SplineFontDB: 3.0
FontName: LondrinaSketch-Regular
FullName: Londrina Sketch
FamilyName: Londrina Sketch
Weight: Book
Copyright: Copyright (c) 2011 by Marcelo Magalhaes (marcelomagalhaes.net), with Reserved Font Name "Londrina"
Version: 1.001 2011
ItalicAngle: 0
UnderlinePosition: -50
UnderlineWidth: 50
Ascent: 800
Descent: 200
sfntRevision: 0x00010042
LayerCount: 2
Layer: 0 1 "Back"  1
Layer: 1 1 "Fore"  0
XUID: [1021 870 1841378150 16642739]
FSType: 0
OS2Version: 2
OS2_WeightWidthSlopeOnly: 0
OS2_UseTypoMetrics: 1
CreationTime: 1331472272
ModificationTime: 1331494198
PfmFamily: 17
TTFWeight: 400
TTFWidth: 5
LineGap: 0
VLineGap: 0
Panose: 2 0 5 6 0 0 0 2 0 3
OS2TypoAscent: 145
OS2TypoAOffset: 1
OS2TypoDescent: -38
OS2TypoDOffset: 1
OS2TypoLinegap: 0
OS2WinAscent: 10
OS2WinAOffset: 1
OS2WinDescent: 21
OS2WinDOffset: 1
HheadAscent: 10
HheadAOffset: 1
HheadDescent: -21
HheadDOffset: 1
OS2SubXSize: 700
OS2SubYSize: 650
OS2SubXOff: 0
OS2SubYOff: 140
OS2SupXSize: 700
OS2SupYSize: 650
OS2SupXOff: 0
OS2SupYOff: 477
OS2StrikeYSize: 50
OS2StrikeYPos: 250
OS2Vendor: 'PYRS'
OS2CodePages: 00000001.00000000
OS2UnicodeRanges: 8000002f.4000201a.00000000.00000000
Lookup: 258 0 0 "'kern' Horizontal Kerning in Latin lookup 0"  {"'kern' Horizontal Kerning in Latin lookup 0 per glyph data 0"  "'kern' Horizontal Kerning in Latin lookup 0 kerning class 1"  } ['kern' ('latn' <'dflt' > ) ]
DEI: 91125
KernClass2: 65+ 57 "'kern' Horizontal Kerning in Latin lookup 0 kerning class 1" 
 5 space
 28 hyphen uni00AD endash emdash
 5 slash
 40 comma period quotesinglbase quotedblbase
 15 colon semicolon
 22 quoteleft quotedblleft
 24 quoteright quotedblright
 9 backslash
 20 quotedbl quotesingle
 9 ampersand
 8 asterisk
 10 registered
 9 trademark
 27 guillemotleft guilsinglleft
 29 guillemotright guilsinglright
 50 A Agrave Aacute Acircumflex Atilde Adieresis Aring
 1 B
 10 C Ccedilla
 5 D Eth
 43 E AE Egrave Eacute Ecircumflex Edieresis OE
 1 F
 1 G

StartChar: exclam
Encoding: 33 33 4
Width: 217
GlyphClass: 2
Flags: W
LayerCount: 2
Fore
SplineSet
165 403 m 1,0,-1
 167 355 l 1,1,-1
 168 345 l 1,2,3
 167 344 167 344 167 341 c 2,4,-1
 169 227 l 1,5,-1
 171 185 l 1,6,-1
 172 186 l 1,7,8
 173 185 173 185 173 182 c 128,-1,9
 173 179 173 179 174 177 c 1,10,-1
 173 174 l 1,11,-1
 167 172 l 2,12,13
 166 171 166 171 162 171 c 1,14,-1
 162 173 l 1,15,-1
 90 171 l 2,16,17
 88 171 88 171 78 169 c 1,18,19
 76 170 76 170 66 170 c 2,20,-1
 55 170 l 1,21,22
 53 168 53 168 53 166 c 1,23,24
 47 172 47 172 38 172 c 1,25,26
 39 173 39 173 40 173 c 1,27,-1
 40 174 l 1,28,29
 41 174 41 174 42 173 c 1,30,-1
 42 174 l 1,31,32
 44 176 44 176 45 176 c 1,33,34
 44 177 44 177 44 179 c 2,35,-1
 44 180 l 1,36,37
 45 180 45 180 45 182 c 2,38,-1
 44 205 l 1,39,-1
 44 218 l 1,40,41
 42 228 42 228 42 234 c 2,42,-1
 43 282 l 1,43,-1
 43 317 l 2,44,45
 43 318 43 318 44 319 c 1,46,-1
 43 320 l 1,47,-1
 44 320 l 1,48,49
 43 321 43 321 43 327 c 2,50,-1
 44 334 l 1,51,-1
 42 344 l 1,52,-1
 43 358 l 1,53,-1
 43 376 l 1,54,55
 42 378 42 378 42 385 c 2,56,-1
 42 395 l 1,57,-1
 41 395 l 1,58,-1
 40 581 l 2,59,60
 40 603 40 603 42 625 c 128,-1,61
 44 647 44 647 45 648 c 2,62,-1
 46 658 l 1,63,64
 45 660 45 660 45 671 c 2,65,-1
 45 685 l 1,66,-1
 46 697 l 1,67,-1
 51 698 l 2,68,69
 52 698 52 698 53 699 c 1,70,-1
 53 700 l 1,71,72
 54 700 54 700 55 701 c 1,73,-1
 58 699 l 1,74,75
 90 699 90 699 99 703 c 1,76,-1
 112 704 l 1,77,-1
 119 704 l 1,78,-1
 138 703 l 1,79,80
 140 704 140 704 166 704 c 1,81,82
 171 699 171 699 172 699 c 1,83,-1
 172 696 l 1,84,85
 170 694 170 694 170 692 c 2,86,-1
 170 689 l 1,87,-1
 169 687 l 2,88,89
 170 687 170 687 169.5 685.5 c 128,-1,90
 169 684 169 684 169 678 c 2,91,-1
 170 542 l 1,92,-1
 169 542 l 1,93,94
 165 461 165 461 165 403 c 1,0,-1
160 357 m 1,95,-1
 159 381 l 1,96,-1
 159 443 l 2,97,98
 159 512 159 512 157 526 c 1,99,-1
 157 546 l 1,100,-1
 156 563 l 1,101,102
 158 569 158 569 158 574 c 2,103,-1
 158 600 l 2,104,105
 158 601 158 601 159 602 c 1,106,-1
 158 607 l 1,107,108
 159 608 159 608 159 610 c 1,109,-1
 158 610 l 1,110,111
 157 616 157 616 157 625 c 128,-1,112
 157 634 157 634 159 640 c 1,113,-1
 158 690 l 1,114,-1
 101 689 l 1,115,-1
 67 690 l 2,116,117
 61 690 61 690 58.5 688.5 c 128,-1,118
 56 687 56 687 56 649.5 c 128,-1,119
 56 612 56 612 57 483 c 1,120,-1
 51 431 l 1,121,-1
 52 427 l 1,122,-1
 51 427 l 1,123,-1
 51 425 l 2,124,125
 51 423 51 423 52 422 c 1,126,-1
 50 421 l 1,127,-1
 52 417 l 1,128,-1
 51 196 l 2,129,130
 51 181 51 181 56 181 c 2,131,-1
 73 181 l 1,132,133
 75 183 75 183 80 183 c 2,134,-1
 86 183 l 1,135,136
 147 186 147 186 162 192 c 1,137,138
 160 298 160 298 160 300 c 2,139,-1
 160 357 l 1,95,-1
171 87 m 1,140,-1
 169 5 l 1,141,-1
 167 5 l 1,142,-1
 167 1 l 1,143,144
 164 1 164 1 162 -3 c 0,145,146
 161 -3 161 -3 160 -2 c 2,147,-1
 159 0 l 1,148,149
 156 3 156 3 148 3 c 1,150,151
 142 1 142 1 137 1 c 2,152,-1
 128 1 l 1,153,154
 114 -1 114 -1 105 -1 c 128,-1,155
 96 -1 96 -1 82 2 c 1,156,-1
 78 1 l 1,157,-1
 78 2 l 1,158,-1
 59 3 l 2,159,160
 57 3 57 3 51 2 c 1,161,-1
 51 4 l 1,162,163
 47 7 47 7 47 8 c 2,164,-1
 47 23 l 1,165,166
 49 84 49 84 53 112 c 1,167,-1
 52 112 l 1,168,169
 49 115 49 115 49 116 c 2,170,-1
 50 117 l 1,171,172
 50 119 50 119 59 122 c 1,173,-1
 59 123 l 1,174,175
 63 127 63 127 79 127 c 1,176,-1
 131 123 l 1,177,-1
 158 125 l 2,178,179
 168 125 168 125 173 120 c 1,180,-1
 174 112 l 1,181,-1
 175 109 l 1,182,183
 173 107 173 107 173 96 c 1,184,-1
 171 87 l 1,140,-1
61 108 m 1,185,-1
 59 73 l 1,186,-1
 59 60 l 1,187,188
 60 51 60 51 60 39 c 2,189,-1
 61 23 l 2,190,191
 62 22 62 22 61.5 18.5 c 128,-1,192
 61 15 61 15 63.5 13.5 c 128,-1,193
 66 12 66 12 73 12 c 2,194,-1
 93 14 l 1,195,-1
 93 13 l 1,196,-1
 123 16 l 1,197,-1
 133 15 l 1,198,-1
 160 19 l 1,199,200
 162 24 162 24 163 65 c 1,201,-1
 161 96 l 1,202,203
 159 103 159 103 153 104.5 c 128,-1,204
 147 106 147 106 122 106 c 0,205,206
 70 108 70 108 67 109 c 1,207,-1
 61 108 l 1,185,-1
EndSplineSet
EndChar

StartChar: quotedbl
Encoding: 34 34 5
Width: 378
GlyphClass: 2
Flags: W
LayerCount: 2
Fore
SplineSet
339 484 m 1,0,-1
 338 480 l 1,1,2
 338 472 338 472 341 467 c 1,3,-1
 336 465 l 2,4,5
 335 464 335 464 331 464 c 1,6,-1
 331 465 l 1,7,-1
 312 464 l 1,8,9
 311 465 311 465 306 465 c 1,10,-1
 306 464 l 1,11,12
 305 465 305 465 304 465 c 2,13,-1
 295 465 l 2,14,15
 290 465 290 465 289 464 c 1,16,-1
 270 464 l 2,17,18
 263 464 263 464 262 463 c 1,19,20
 261 464 261 464 252 464 c 2,21,-1
 243 464 l 1,22,23
 242 463 242 463 242 462 c 2,24,-1
 239 463 l 2,25,26
 237 463 237 463 234 466 c 1,27,-1
 234 486 l 1,28,29
 233 487 233 487 233 489.5 c 128,-1,30
 233 492 233 492 232 493 c 2,31,-1
 231 585 l 1,32,-1
 232 590 l 1,33,-1
 232 599 l 1,34,-1
 231 635 l 1,35,-1
 233 677 l 1,36,-1
 235 689 l 1,37,38
 234 690 234 690 234 702 c 1,39,-1
 235 708 l 1,40,-1
 239 708 l 1,41,-1
 243 710 l 2,42,43
 244 710 244 710 245 709 c 1,44,-1
 263 709 l 1,45,-1
 279 711 l 1,46,-1
 335 711 l 1,47,-1
 339 709 l 1,48,-1
 336 683 l 1,49,-1
 336 619 l 2,50,51
 336 617 336 617 337 616 c 1,52,-1
 337 614 l 1,53,54
 336 612 336 612 336 608 c 2,55,-1
 336 600 l 2,56,57
 336 598 336 598 335 597 c 1,58,-1
 336 592 l 1,59,60
 335 591 335 591 335 585 c 2,61,-1
 336 575 l 1,62,-1
 336 568 l 2,63,64
 336 561 336 561 335 559 c 1,65,66
 336 558 336 558 336 549 c 2,67,-1
 339 506 l 1,68,-1
 338 506 l 1,69,70
 339 503 339 503 339 501 c 2,71,-1
 338 497 l 1,72,-1
 339 497 l 1,73,-1
 338 497 l 1,74,-1
 339 491 l 1,75,76
 338 488 338 488 338 486 c 2,77,-1
 339 484 l 1,0,-1
49 708 m 1,78,-1
 53 710 l 2,79,80
 54 710 54 710 55 709 c 1,81,-1
 73 709 l 1,82,-1
 89 711 l 1,83,-1
 145 711 l 1,84,-1
 149 709 l 1,85,-1
 147 697 l 1,86,-1
 146 619 l 2,87,88
 146 617 146 617 147 616 c 1,89,-1
 147 614 l 1,90,91
 146 613 146 613 146 608 c 2,92,-1
 146 586 l 2,93,94
 146 570 146 570 145 559 c 1,95,96
 146 558 146 558 146 549 c 2,97,-1
 146 529 l 2,98,99
 146 496 146 496 148.5 482 c 128,-1,100
 151 468 151 468 151 467 c 2,101,-1
 146 465 l 2,102,103
 145 464 145 464 141 464 c 1,104,-1
 141 465 l 1,105,-1
 122 464 l 1,106,107
 121 465 121 465 116 465 c 1,108,-1
 116 464 l 1,109,110
 115 465 115 465 114 465 c 2,111,-1
 105 465 l 2,112,113
 100 465 100 465 99 464 c 1,114,-1
 80 464 l 2,115,116
 73 464 73 464 72 463 c 1,117,118
 71 464 71 464 62 464 c 2,119,-1
 53 464 l 1,120,121
 52 463 52 463 52 462 c 2,122,-1
 42 465 l 1,123,-1
 44 466 l 1,124,-1
 44 486 l 1,125,126
 43 487 43 487 43 489.5 c 128,-1,127
 43 492 43 492 42 493 c 1,128,-1
 43 516 l 1,129,-1
 43 531 l 2,130,131
 43 532 43 532 44 533 c 1,132,133
 43 534 43 534 43 536 c 2,134,-1
 44 540 l 1,135,136
 43 541 43 541 43 544 c 2,137,-1
 43 559 l 1,138,139
 42 560 42 560 42 563 c 2,140,-1
 42 568 l 1,141,-1
 41 585 l 1,142,-1
 42 590 l 1,143,-1
 42 599 l 1,144,-1
 41 635 l 1,145,-1
 43 677 l 1,146,-1
 45 689 l 1,147,148
 44 690 44 690 44 702 c 1,149,-1
 45 708 l 1,150,-1
 49 708 l 1,78,-1
49 556 m 2,151,-1
 50 543 l 1,152,-1
 48 540 l 1,153,-1
 48 511 l 1,154,-1
 51 492 l 1,155,156
 51 485 51 485 52 484 c 1,157,-1
 52 470 l 1,158,-1
 68 469 l 1,159,160
 70 470 70 470 74 470 c 2,161,-1
 85 470 l 1,162,163
 86 471 86 471 95 471 c 2,164,-1
 129 471 l 2,165,166
 136 471 136 471 141 474 c 1,167,-1
 137 608 l 1,168,169
 138 610 138 610 138 619 c 128,-1,170
 138 628 138 628 137 629 c 1,171,-1
 137 644 l 2,172,173
 137 650 137 650 138 651 c 1,174,-1
 137 672 l 2,175,176
 137 674 137 674 138 681 c 1,177,-1
 138 705 l 1,178,-1
 91 704 l 1,179,-1
 61 704 l 2,180,181
 54 704 54 704 54 696 c 2,182,-1
 55 667 l 1,183,-1
 55 640 l 1,184,-1
 52 620 l 2,185,186
 52 619 52 619 53 618 c 1,187,-1
 50 609 l 1,188,-1
 50 582 l 2,189,190
 50 581 50 581 51 580 c 1,191,-1
 49 580 l 1,192,193
 49 578 49 578 50 578 c 2,194,-1
 51 563 l 1,195,196
 49 561 49 561 49 556 c 2,151,-1
239 556 m 2,197,-1
 240 543 l 1,198,199
 239 542 239 542 239 538 c 1,200,-1
 240 537 l 1,201,-1
 239 537 l 1,202,-1
 239 494 l 1,203,-1
 241 492 l 1,204,205
 241 485 241 485 242 484 c 1,206,-1
 240 476 l 2,207,208
 241 476 241 476 242 475 c 1,209,-1
 242 470 l 1,210,-1
 258 469 l 1,211,212
 260 470 260 470 264 470 c 2,213,-1
 275 470 l 1,214,215
 276 471 276 471 285 471 c 2,216,-1
 319 471 l 2,217,218
 326 471 326 471 328.5 473 c 128,-1,219
 331 475 331 475 331 474 c 1,220,221
 331 502 331 502 327 566 c 2,222,-1
 326 582 l 2,223,224
 326 587 326 587 327 588 c 1,225,-1
 327 598 l 1,226,-1
 328 619 l 2,227,228
 328 628 328 628 327 629 c 1,229,-1
 327 644 l 2,230,231
 327 650 327 650 328 651 c 1,232,-1
 327 672 l 2,233,234
 327 674 327 674 328 681 c 1,235,-1
 328 705 l 1,236,-1
 281 704 l 1,237,-1
 257 704 l 1,238,-1
 250 705 l 2,239,240
 244 705 244 705 244 700 c 0,241,242
 245 685 245 685 245 676 c 2,243,-1
 245 640 l 1,244,-1
 242 620 l 2,245,246
 242 619 242 619 243 618 c 1,247,-1
 240 609 l 1,248,-1
 241 563 l 1,249,250
 239 561 239 561 239 556 c 2,197,-1
EndSplineSet
EndChar

StartChar: numbersign
Encoding: 35 35 6
Width: 669
GlyphClass: 2
Flags: W
LayerCount: 2
Fore
SplineSet
644 462 m 1,0,-1
 645 451 l 1,1,-1
 644 412 l 1,2,3
 645 410 645 410 645 399 c 2,4,-1
 645 386 l 1,5,6
 640 384 640 384 640 381 c 1,7,-1
 636 381 l 1,8,9
 634 383 634 383 632 383 c 2,10,11
 632 383 632 383 629 383 c 1,12,-1
 629 384 l 1,13,-1
 625 383 l 1,14,15
 612 383 612 383 611 384 c 1,16,17
 561 382 561 382 550.5 382 c 128,-1,18
 540 382 540 382 539 383 c 1,19,20
 524 341 524 341 497 257 c 1,21,-1
 554 256 l 2,22,23
 555 255 555 255 563 255 c 2,24,-1
 598 254 l 2,25,26
 609 254 609 254 614 255 c 1,27,28
 615 254 615 254 627 254 c 1,29,-1
 627 250 l 1,30,31
 628 249 628 249 628 248 c 2,32,-1
 632 246 l 1,33,34
 631 245 631 245 630 242 c 1,35,-1
 629 242 l 1,36,37
 629 238 629 238 630 237 c 1,38,-1
 630 222 l 1,39,40
 631 209 631 209 633 205 c 1,41,-1
 634 207 l 1,42,-1
 634 195 l 2,43,44
 634 186 634 186 633 184 c 1,45,46
 634 182 634 182 634 171 c 2,47,-1
 634 158 l 1,48,49
 629 156 629 156 629 153 c 1,50,-1
 625 153 l 1,51,52
 623 155 623 155 621 155 c 2,53,-1
 618 155 l 1,54,-1
 618 156 l 1,55,-1
 466 156 l 2,56,57
 458 156 458 156 432 80 c 2,58,-1
 425 60 l 1,59,-1
 424 60 l 1,60,61
 411 33 411 33 411 24 c 1,62,63
 408 18 408 18 408 13 c 1,64,-1
 406 8 l 1,65,-1
 402 6 l 1,66,67
 400 1 400 1 395.5 1 c 128,-1,68
 391 1 391 1 390 0 c 1,69,-1
 390 -1 l 1,70,-1
 371 0 l 1,71,-1
 364 1 l 1,72,-1
 364 0 l 1,73,-1
 358 1 l 2,74,75
 358 0 358 0 357 -1 c 1,76,-1
 356 1 l 1,77,-1
 325 0 l 2,78,79
 312 0 312 0 311 1 c 1,80,-1
 310 0 l 1,81,-1
 296 -1 l 1,82,-1
 288 2 l 1,83,-1
 286 -1 l 1,84,85
 284 -1 284 -1 284 4.5 c 128,-1,86
 284 10 284 10 289.5 26.5 c 128,-1,87
 295 43 295 43 302.5 61 c 128,-1,88
 310 79 310 79 317 103.5 c 128,-1,89
 324 128 324 128 337 157 c 1,90,-1
 331 157 l 1,91,-1
 325 158 l 1,92,-1
 324 157 l 2,93,94
 323 157 323 157 322 158 c 1,95,-1
 276 158 l 1,96,97
 275 157 275 157 266 157 c 2,98,-1
 218 157 l 1,99,100
 215 143 215 143 203 116 c 128,-1,101
 191 89 191 89 176 44 c 1,102,-1
 175 44 l 1,103,104
 174 43 174 43 174 40 c 1,105,-1
 173 40 l 1,106,107
 164 20 164 20 164 13 c 1,108,-1
 162 8 l 1,109,-1
 161 8 l 1,110,111
 161 6 161 6 158.5 3.5 c 128,-1,112
 156 1 156 1 154 0.5 c 128,-1,113
 152 0 152 0 150 0.5 c 128,-1,114
 148 1 148 1 146 0 c 1,115,-1
 146 -1 l 1,116,-1
 127 0 l 1,117,-1
 120 1 l 1,118,-1
 120 0 l 1,119,120
 118 0 118 0 115 1 c 1,121,122
 115 0 115 0 114 -1 c 1,123,-1
 112 -1 l 1,124,-1
 112 1 l 1,125,-1
 81 0 l 2,126,127
 68 0 68 0 67 1 c 1,128,-1
 66 0 l 1,129,-1
 53 -1 l 1,130,-1
 44 2 l 1,131,132
 44 0 44 0 43 -1 c 1,133,134
 41 -1 41 -1 41 6 c 128,-1,135
 41 13 41 13 66 80 c 1,136,137
 76 118 76 118 93 155 c 1,138,-1
 86 154 l 1,139,140
 80 156 80 156 60 154.5 c 128,-1,141
 40 153 40 153 39 152 c 1,142,-1
 26 154 l 1,143,-1
 24 158 l 2,144,145
 23 159 23 159 23 162 c 1,146,147
 25 162 25 162 25 163 c 2,148,-1
 23 184 l 1,149,150
 24 185 24 185 24 191 c 1,151,-1
 23 191 l 1,152,153
 26 194 26 194 26 201 c 1,154,-1
 21 225 l 1,155,156
 22 226 22 226 22 235 c 2,157,-1
 21 247 l 1,158,159
 19 247 19 247 19 248 c 128,-1,160
 19 249 19 249 21.5 253 c 128,-1,161
 24 257 24 257 24 262 c 1,162,-1
 27 260 l 1,163,164
 27 258 27 258 26 258 c 2,165,-1
 31 256 l 1,166,-1
 32 257 l 1,167,-1
 34 255 l 1,168,-1
 36 257 l 1,169,-1
 75 257 l 1,170,-1
 98 258 l 1,171,-1
 134 257 l 1,172,173
 143 279 143 279 143 289 c 1,174,-1
 144 292 l 1,175,-1
 143 292 l 1,176,177
 152 307 152 307 161.5 339.5 c 128,-1,178
 171 372 171 372 175 383 c 1,179,-1
 172 383 l 2,180,181
 171 383 171 383 170 384 c 1,182,-1
 158 382 l 1,183,-1
 97 382 l 1,184,185
 91 384 91 384 86 384 c 1,186,-1
 84 382 l 1,187,188
 82 382 82 382 81 383 c 1,189,-1
 41 380 l 1,190,-1
 38 381 l 1,191,-1
 37 394 l 1,192,-1
 35 394 l 1,193,-1
 35 490 l 1,194,-1
 37 486 l 1,195,-1
 86 485 l 1,196,197
 87 486 87 486 112 486 c 2,198,-1
 199 484 l 2,199,200
 209 484 209 484 214 493.5 c 128,-1,201
 219 503 219 503 229 538 c 0,202,203
 245 595 245 595 250 605 c 1,204,-1
 252 615 l 1,205,206
 252 624 252 624 253 625 c 1,207,-1
 254 625 l 1,208,209
 253 626 253 626 253 628 c 1,210,211
 254 628 254 628 255 629 c 2,212,-1
 258 639 l 1,213,214
 264 636 264 636 276 636 c 2,215,-1
 300 637 l 1,216,-1
 309 637 l 1,217,-1
 312 636 l 1,218,-1
 324 637 l 1,219,-1
 336 636 l 2,220,221
 339 636 339 636 345 638 c 1,222,-1
 355 638 l 1,223,-1
 363 639 l 2,224,225
 367 639 367 639 370 634 c 1,226,-1
 369 631 l 1,227,-1
 370 631 l 1,228,229
 372 634 372 634 376 634 c 1,230,231
 376 630 376 630 377 629 c 1,232,-1
 376 629 l 1,233,234
 375 628 375 628 375 620 c 1,235,-1
 374 620 l 1,236,237
 361 588 361 588 346 536 c 1,238,239
 332 496 332 496 332 486 c 1,240,-1
 348 485 l 2,241,242
 348 486 348 486 350 486 c 2,243,-1
 360 486 l 1,244,-1
 360 485 l 1,245,246
 362 485 362 485 362 485.5 c 128,-1,247
 362 486 362 486 364 486 c 1,248,-1
 365 485 l 1,249,-1
 365 486 l 1,250,251
 366 485 366 485 375 485 c 2,252,-1
 381 485 l 1,253,-1
 453 486 l 1,254,255
 455 495 455 495 459 504 c 0,256,257
 473 534 473 534 495 612 c 1,258,-1
 496 615 l 1,259,260
 496 624 496 624 497 625 c 1,261,-1
 498 625 l 1,262,263
 497 626 497 626 497 628 c 1,264,265
 498 628 498 628 499 629 c 2,266,-1
 501 639 l 1,267,268
 507 636 507 636 520 636 c 2,269,-1
 544 637 l 1,270,-1
 553 637 l 1,271,-1
 556 636 l 1,272,-1
 568 637 l 1,273,-1
 580 636 l 2,274,275
 583 636 583 636 589 638 c 1,276,-1
 599 638 l 1,277,-1
 606 639 l 2,278,279
 611 639 611 639 614 634 c 1,280,-1
 613 631 l 1,281,-1
 614 631 l 1,282,283
 616 634 616 634 619 634 c 1,284,285
 619 630 619 630 620 629 c 1,286,-1
 619 629 l 1,287,288
 618 628 618 628 618 620 c 1,289,-1
 616 612 l 1,290,-1
 614 607 l 1,291,-1
 612 605 l 1,292,293
 610 599 610 599 610 596 c 1,294,-1
 608 595 l 1,295,-1
 575 484 l 1,296,-1
 609 482 l 2,297,298
 620 482 620 482 625 483 c 1,299,300
 631 481 631 481 645 481 c 1,301,-1
 645 469 l 1,302,-1
 644 462 l 1,0,-1
312 623 m 2,303,-1
 306 625 l 1,304,-1
 265 625 l 1,305,-1
 264 623 l 1,306,-1
 264 621 l 1,307,-1
 265 624 l 2,308,309
 265 621 265 621 264 621 c 2,310,-1
 263 619 l 1,311,312
 261 619 261 619 261 609 c 1,313,-1
 255 584 l 2,314,315
 255 582 255 582 254 581 c 2,316,-1
 251 568 l 1,317,318
 234 506 234 506 226 498 c 1,319,-1
 224 489 l 1,320,-1
 217 474 l 2,321,322
 216 473 216 473 206 473 c 2,323,-1
 89 473 l 2,324,325
 84 473 84 473 78 475 c 1,326,-1
 69 475 l 2,327,328
 44 475 44 475 44 448 c 1,329,-1
 47 407 l 1,330,331
 47 392 47 392 42 392 c 1,332,333
 43 392 43 392 57 394 c 1,334,-1
 65 394 l 2,335,336
 68 394 68 394 75 394.5 c 128,-1,337
 82 395 82 395 85 395 c 1,338,-1
 83 397 l 1,339,-1
 84 397 l 1,340,-1
 94 395 l 1,341,-1
 158 394 l 1,342,-1
 174 396 l 1,343,344
 175 395 175 395 177 395 c 2,345,-1
 192 395 l 1,346,347
 177 356 177 356 165.5 316 c 128,-1,348
 154 276 154 276 150 264 c 128,-1,349
 146 252 146 252 142 248 c 0,350,351
 132 240 132 240 116 240 c 128,-1,352
 100 240 100 240 76 245 c 128,-1,353
 52 250 52 250 45 250 c 1,354,-1
 30 238 l 1,355,-1
 35 213 l 1,356,-1
 36 184 l 1,357,-1
 46 166 l 1,358,-1
 54 166 l 2,359,360
 56 166 56 166 64 166.5 c 128,-1,361
 72 167 72 167 74 167 c 1,362,-1
 72 169 l 1,363,-1
 73 169 l 1,364,-1
 83 167 l 1,365,-1
 111 167 l 1,366,367
 85 106 85 106 77 76 c 1,368,-1
 73 65 l 1,369,-1
 61 36 l 1,370,371
 54 22 54 22 54 16.5 c 128,-1,372
 54 11 54 11 55 11 c 0,373,374
 78 14 78 14 94 14 c 1,375,-1
 147 9 l 2,376,377
 151 9 151 9 154 20 c 0,378,379
 156 28 156 28 158 33.5 c 128,-1,380
 160 39 160 39 159 39 c 1,381,-1
 159 40 l 1,382,-1
 173 71 l 1,383,-1
 173 74 l 1,384,385
 174 74 174 74 174 75.5 c 128,-1,386
 174 77 174 77 175 78 c 2,387,-1
 180 94 l 1,388,-1
 183 100 l 2,389,390
 185 102 185 102 186 105 c 2,391,-1
 198 138 l 2,392,393
 204 152 204 152 209 169 c 1,394,-1
 265 169 l 2,395,396
 273 169 273 169 274 170 c 1,397,-1
 324 170 l 1,398,-1
 331 169 l 1,399,-1
 355 169 l 1,400,401
 337 130 337 130 321 76 c 1,402,-1
 317 65 l 1,403,404
 305 44 305 44 299 11 c 1,405,406
 329 8 329 8 362.5 8 c 128,-1,407
 396 8 396 8 396 16 c 0,408,409
 396 18 396 18 395 18 c 1,410,411
 396 19 396 19 406 43 c 1,412,413
 406 51 406 51 411 56 c 1,414,-1
 419 84 l 2,415,416
 422 94 422 94 428 102.5 c 128,-1,417
 434 111 434 111 434 114 c 0,418,419
 434 123 434 123 443 140 c 1,420,421
 446 154 446 154 448 156.5 c 128,-1,422
 450 159 450 159 451.5 161.5 c 128,-1,423
 453 164 453 164 455 165 c 0,424,425
 461 168 461 168 466 168 c 1,426,-1
 470 167 l 1,427,-1
 471 167 l 2,428,429
 473 167 473 167 478 166.5 c 128,-1,430
 483 166 483 166 485 166 c 1,431,-1
 484 167 l 1,432,-1
 513 167 l 2,433,434
 521 167 521 167 522 168 c 1,435,436
 523 167 523 167 528.5 167 c 128,-1,437
 534 167 534 167 536 169 c 1,438,-1
 551 168 l 1,439,440
 556 169 556 169 558 169 c 1,441,442
 563 164 563 164 589 164 c 128,-1,443
 615 164 615 164 619 169 c 128,-1,444
 623 174 623 174 623 188 c 0,445,446
 623 242 623 242 604 242 c 2,447,-1
 597 242 l 2,448,449
 583 242 583 242 582 243 c 1,450,-1
 565 243 l 2,451,452
 563 243 563 243 553 245 c 1,453,-1
 481 245 l 1,454,-1
 499 302 l 2,455,456
 503 314 503 314 514.5 348 c 128,-1,457
 526 382 526 382 531 398 c 1,458,459
 537 395 537 395 540.5 395 c 128,-1,460
 544 395 544 395 546 397 c 1,461,-1
 562 396 l 1,462,463
 567 397 567 397 568.5 396.5 c 128,-1,464
 570 396 570 396 572 396 c 2,465,-1
 579 396 l 2,466,467
 581 396 581 396 597 396.5 c 128,-1,468
 613 397 613 397 631 387 c 1,469,-1
 631 397 l 1,470,-1
 633 435 l 1,471,-1
 638 470 l 1,472,473
 625 470 625 470 624 471 c 1,474,475
 623 470 623 470 615 470 c 2,476,-1
 608 470 l 2,477,478
 594 470 594 470 593 471 c 2,479,-1
 560 472 l 1,480,-1
 571 515 l 2,481,482
 587 578 587 578 596 593 c 2,483,-1
 603 606 l 2,484,485
 613 624 613 624 613 625 c 2,486,-1
 596 626 l 2,487,488
 586 626 586 626 579 625 c 1,489,-1
 568 625 l 1,490,491
 560 623 560 623 556.5 623 c 128,-1,492
 553 623 553 623 550 625 c 1,493,-1
 511 625 l 1,494,-1
 506 612 l 1,495,496
 476 528 476 528 472.5 511.5 c 128,-1,497
 469 495 469 495 467 490.5 c 128,-1,498
 465 486 465 486 465 474 c 1,499,-1
 368 473 l 2,500,501
 362 473 362 473 361 474 c 1,502,-1
 360 474 l 1,503,-1
 348 473 l 2,504,505
 347 473 347 473 346 474 c 1,506,-1
 316 474 l 1,507,508
 316 482 316 482 349 581 c 2,509,-1
 353 593 l 2,510,511
 356 603 356 603 360 611 c 0,512,513
 367 625 367 625 367 627 c 1,514,-1
 366 628 l 1,515,516
 350 625 350 625 341 625 c 2,517,-1
 322 625 l 1,518,519
 319 624 319 624 315.5 624 c 128,-1,520
 312 624 312 624 312 623 c 2,303,-1
343 245 m 1,521,-1
 236 245 l 1,522,523
 271 339 271 339 288 398 c 1,524,-1
 391 397 l 2,525,526
 392 396 392 396 406 396 c 2,527,-1
 436 396 l 1,528,529
 425 366 425 366 414.5 331 c 128,-1,530
 404 296 404 296 386 246 c 1,531,-1
 357 245 l 2,532,533
 351 245 351 245 350 246 c 1,534,-1
 342 246 l 1,535,-1
 343 245 l 1,521,-1
292 256 m 1,536,-1
 298 257 l 1,537,-1
 336 258 l 1,538,-1
 336 257 l 1,539,-1
 337 257 l 1,540,541
 337 258 337 258 339 258 c 2,542,-1
 349 258 l 1,543,-1
 349 257 l 1,544,-1
 353 258 l 1,545,-1
 354 257 l 1,546,-1
 354 258 l 1,547,548
 355 257 355 257 357 257 c 2,549,-1
 370 257 l 1,550,-1
 378 258 l 1,551,552
 384 270 384 270 419 384 c 1,553,554
 412 384 412 384 404.5 384 c 128,-1,555
 397 384 397 384 391 385 c 1,556,-1
 389 385 l 1,557,-1
 384 384 l 1,558,-1
 378 385 l 1,559,-1
 342 385 l 1,560,-1
 336 386 l 1,561,-1
 335 385 l 2,562,563
 334 385 334 385 333 386 c 1,564,-1
 296 385 l 1,565,566
 289 364 289 364 275 321.5 c 128,-1,567
 261 279 261 279 253 257 c 1,568,-1
 278 257 l 1,569,-1
 292 256 l 1,536,-1
EndSplineSet
EndChar

StartChar: dollar
Encoding: 36 36 7
Width: 445
GlyphClass: 2
Flags: W
LayerCount: 2
Fore
SplineSet
318 441 m 1,0,-1
 292 440 l 1,1,2
 290 441 290 441 285 442 c 0,3,4
 274 443 274 443 274 449 c 1,5,6
 272 455 272 455 270 472.5 c 128,-1,7
 268 490 268 490 265 500.5 c 128,-1,8
 262 511 262 511 251 520.5 c 128,-1,9
 240 530 240 530 229 530 c 128,-1,10
 218 530 218 530 206 524 c 1,11,-1
 196 510 l 2,12,13
 186 497 186 497 186 480 c 0,14,15
 186 434 186 434 284 380 c 1,16,-1
 326 359 l 1,17,18
 319 359 319 359 305 365 c 1,19,20
 308 363 308 363 313 360 c 0,21,22
 324 355 324 355 326 353 c 1,23,-1
 326 358 l 1,24,25
 331 350 331 350 344 334 c 0,26,27
 376 295 376 295 376 289 c 1,28,-1
 403 253 l 1,29,30
 405 242 405 242 414.5 215.5 c 128,-1,31
 424 189 424 189 427 133 c 0,32,33
 427 132 427 132 422.5 119.5 c 128,-1,34
 418 107 418 107 417.5 105.5 c 128,-1,35
 417 104 417 104 413 93.5 c 128,-1,36
 409 83 409 83 407 80.5 c 128,-1,37
 405 78 405 78 400 69.5 c 128,-1,38
 395 61 395 61 390.5 57 c 128,-1,39
 386 53 386 53 379.5 46.5 c 128,-1,40
 373 40 373 40 367.5 36 c 128,-1,41
 362 32 362 32 338 18.5 c 128,-1,42
 314 5 314 5 300 1 c 1,43,-1
 300 -7 l 1,44,-1
 298 -8 l 1,45,-1
 300 -8 l 1,46,-1
 298 -9 l 1,47,-1
 298 -15 l 1,48,-1
 300 -15 l 1,49,-1
 300 -81 l 2,50,51
 300 -84 300 -84 301 -85 c 1,52,-1
 301 -86 l 2,53,54
 301 -87 301 -87 302 -88 c 1,55,-1
 297 -89 l 1,56,57
 297 -91 297 -91 294 -91 c 1,58,59
 294 -90 294 -90 292 -90 c 2,60,-1
 176 -89 l 1,61,-1
 166 -90 l 1,62,-1
 164 -90 l 2,63,64
 163 -90 163 -90 162 -91 c 1,65,-1
 146 -91 l 1,66,67
 146 -88 146 -88 153 -88 c 1,68,-1
 150 -62 l 1,69,70
 151 -33 151 -33 151 -18 c 1,71,-1
 152 -12 l 1,72,-1
 150 -12 l 1,73,-1
 150 -1 l 1,74,-1
 132 5 l 2,75,76
 71 25 71 25 55 48 c 1,77,78
 28 77 28 77 11 158 c 1,79,-1
 19 231 l 1,80,-1
 19 243 l 1,81,82
 42 246 42 246 61 246 c 2,83,-1
 132 243 l 1,84,-1
 142 243 l 2,85,86
 152 243 152 243 153 244 c 1,87,88
 155 243 155 243 160 242 c 0,89,90
 169 241 169 241 170.5 235.5 c 128,-1,91
 172 230 172 230 173.5 214 c 128,-1,92
 175 198 175 198 177 188.5 c 128,-1,93
 179 179 179 179 184 168 c 0,94,95
 193 144 193 144 222 144 c 0,96,97
 230 144 230 144 239 151 c 1,98,-1
 248 168 l 1,99,-1
 258 182 l 1,100,-1
 248 218 l 1,101,-1
 238 233 l 1,102,-1
 214 257 l 2,103,104
 184 287 184 287 173.5 294.5 c 128,-1,105
 163 302 163 302 149 315 c 128,-1,106
 135 328 135 328 127 331.5 c 128,-1,107
 119 335 119 335 113.5 339.5 c 128,-1,108
 108 344 108 344 105 348 c 0,109,110
 93 364 93 364 84 373 c 2,111,-1
 63 395 l 2,112,113
 20 439 20 439 19 516 c 1,114,115
 15 523 15 523 15 532 c 1,116,117
 16 534 16 534 22.5 556.5 c 128,-1,118
 29 579 29 579 32 584.5 c 128,-1,119
 35 590 35 590 45.5 607.5 c 128,-1,120
 56 625 56 625 68 632 c 0,121,122
 106 654 106 654 152 659 c 1,123,-1
 152 665 l 1,124,-1
 150 665 l 1,125,126
 152 667 152 667 151.5 668.5 c 128,-1,127
 151 670 151 670 151 686 c 2,128,-1
 152 724 l 1,129,-1
 152 744 l 1,130,131
 150 746 150 746 150 750 c 1,132,-1
 149 751 l 1,133,-1
 152 751 l 1,134,-1
 153 753 l 1,135,-1
 160 754 l 2,136,137
 162 754 162 754 165 753 c 2,138,-1
 245 752 l 2,139,140
 258 752 258 752 273 753 c 2,141,-1
 302 755 l 2,142,143
 303 755 303 755 304 755 c 1,144,-1
 304 753 l 1,145,-1
 298 751 l 1,146,-1
 298 676 l 1,147,-1
 301 676 l 1,148,-1
 300 660 l 1,149,150
 309 660 309 660 343.5 647 c 128,-1,151
 378 634 378 634 390 619 c 1,152,153
 415 594 415 594 425 553 c 0,154,155
 426 549 426 549 429.5 533.5 c 128,-1,156
 433 518 433 518 434 516 c 1,157,-1
 425 451 l 1,158,159
 425 442 425 442 426 441 c 1,160,161
 412 439 412 439 405 439 c 2,162,-1
 386 439 l 1,163,-1
 318 441 l 1,0,-1
284 -56 m 1,164,-1
 285 -16 l 1,165,-1
 284 15 l 1,166,167
 303 15 303 15 333 29 c 1,168,169
 336 29 336 29 340 36 c 128,-1,170
 344 43 344 43 348 43 c 1,171,-1
 364 52 l 1,172,173
 385 66 385 66 393 79 c 128,-1,174
 401 92 401 92 404.5 109.5 c 128,-1,175
 408 127 408 127 411 132.5 c 128,-1,176
 414 138 414 138 414 151 c 128,-1,177
 414 164 414 164 407 177 c 1,178,-1
 410 199 l 1,179,180
 406 216 406 216 381.5 252 c 128,-1,181
 357 288 357 288 348 308 c 1,182,-1
 329 325 l 1,183,-1
 309 351 l 1,184,-1
 286 363 l 1,185,-1
 251 386 l 1,186,-1
 238 398 l 1,187,-1
 200 413 l 1,188,-1
 194 424 l 2,189,190
 171 465 171 465 171 487.5 c 128,-1,191
 171 510 171 510 188.5 526 c 128,-1,192
 206 542 206 542 220 542 c 128,-1,193
 234 542 234 542 246 539 c 1,194,195
 275 521 275 521 281 502 c 0,196,197
 283 495 283 495 285 477.5 c 128,-1,198
 287 460 287 460 289 452 c 1,199,-1
 402 452 l 1,200,-1
 409 455 l 1,201,202
 408 456 408 456 408 463 c 2,203,-1
 412 505 l 1,204,205
 412 535 412 535 409 551 c 128,-1,206
 406 567 406 567 387.5 588.5 c 128,-1,207
 369 610 369 610 333 629 c 1,208,209
 317 636 317 636 285 644 c 1,210,-1
 279 707 l 1,211,212
 279 725 279 725 278 729.5 c 128,-1,213
 277 734 277 734 272 734 c 2,214,-1
 261 733 l 1,215,-1
 259 734 l 1,216,-1
 191 735 l 1,217,-1
 169 734 l 1,218,-1
 166 734 l 1,219,220
 167 733 167 733 167 716 c 2,221,-1
 166 676 l 1,222,-1
 166 650 l 1,223,224
 141 650 141 650 107.5 639 c 128,-1,225
 74 628 74 628 60 608.5 c 128,-1,226
 46 589 46 589 41 566.5 c 128,-1,227
 36 544 36 544 33.5 539.5 c 128,-1,228
 31 535 31 535 31 524.5 c 128,-1,229
 31 514 31 514 37 500 c 1,230,-1
 35 480 l 1,231,232
 39 464 39 464 60.5 430 c 128,-1,233
 82 396 82 396 90 380 c 1,234,-1
 91 372 l 1,235,-1
 117 357 l 1,236,-1
 117 358 l 1,237,-1
 141 341 l 1,238,-1
 138 341 l 1,239,-1
 143 338 l 1,240,241
 150 330 150 330 165 323 c 1,242,243
 169 311 169 311 174.5 306 c 128,-1,244
 180 301 180 301 188.5 296 c 128,-1,245
 197 291 197 291 200 288 c 2,246,-1
 210 280 l 1,247,-1
 223 266 l 1,248,-1
 251 262 l 1,249,250
 273 217 273 217 273 190.5 c 128,-1,251
 273 164 273 164 256.5 148 c 128,-1,252
 240 132 240 132 217 132 c 2,253,-1
 208 132 l 1,254,255
 202 134 202 134 199 134 c 1,256,257
 174 151 174 151 168.5 165 c 128,-1,258
 163 179 163 179 162 185.5 c 128,-1,259
 161 192 161 192 159.5 206.5 c 128,-1,260
 158 221 158 221 156 231 c 1,261,-1
 43 231 l 1,262,-1
 36 226 l 1,263,-1
 32 180 l 1,264,265
 32 123 32 123 69 76.5 c 128,-1,266
 106 30 106 30 166 18 c 1,267,-1
 168 -7 l 1,268,-1
 166 -7 l 1,269,270
 168 -52 168 -52 168 -52 c 1,271,-1
 166 -63 l 1,272,-1
 169 -64 l 1,273,-1
 166 -64 l 1,274,-1
 168 -65 l 1,275,-1
 169 -66 l 1,276,-1
 244 -70 l 1,277,278
 258 -72 258 -72 262 -72 c 128,-1,279
 266 -72 266 -72 272 -65.5 c 128,-1,280
 278 -59 278 -59 280 -59 c 128,-1,281
 282 -59 282 -59 284 -61 c 1,282,-1
 284 -56 l 1,164,-1
EndSplineSet
EndChar

StartChar: percent
Encoding: 37 37 8
Width: 604
GlyphClass: 2
Flags: W
LayerCount: 2
Fore
SplineSet
431 703 m 1,0,-1
 468 706 l 1,1,2
 469 705 469 705 469 701 c 1,3,-1
 468 701 l 1,4,-1
 469 698 l 1,5,6
 470 701 470 701 475 701 c 1,7,-1
 476 696 l 1,8,-1
 475 696 l 1,9,10
 474 695 474 695 474 685 c 1,11,-1
 467 669 l 1,12,-1
 465 660 l 1,13,-1
 457 639 l 1,14,-1
 458 637 l 1,15,-1
 447 609 l 1,16,17
 427 544 427 544 362 354 c 128,-1,18
 297 164 297 164 289 139.5 c 128,-1,19
 281 115 281 115 274.5 104.5 c 128,-1,20
 268 94 268 94 268 89 c 1,21,-1
 262 75 l 1,22,23
 262 75 262 75 261 69 c 1,24,-1
 247 35 l 1,25,26
 247 30 247 30 244 27 c 1,27,-1
 242 17 l 1,28,-1
 239 12 l 1,29,30
 239 10 239 10 238 9 c 1,31,-1
 234 11 l 1,32,-1
 233 16 l 1,33,-1
 231 11 l 1,34,35
 231 7 231 7 230 6 c 1,36,-1
 235 6 l 1,37,38
 231 2 231 2 228 3 c 128,-1,39
 225 4 225 4 223 3 c 1,40,-1
 223 2 l 1,41,-1
 202 3 l 1,42,-1
 202 4 l 1,43,-1
 194 3 l 1,44,-1
 188 4 l 2,45,46
 188 3 188 3 187 2 c 1,47,-1
 185 2 l 1,48,-1
 185 4 l 1,49,-1
 151 3 l 2,50,51
 136 3 136 3 135 4 c 1,52,-1
 134 3 l 1,53,-1
 120 2 l 1,54,-1
 111 5 l 1,55,-1
 109 1 l 1,56,57
 107 1 107 1 107 10 c 128,-1,58
 107 19 107 19 134 91 c 1,59,60
 163 185 163 185 188 234 c 1,61,62
 187 234 187 234 187 236 c 1,63,64
 194 243 194 243 194 255 c 1,65,66
 195 255 195 255 196 254 c 1,67,68
 218 322 218 322 221 324 c 1,69,-1
 219 325 l 1,70,71
 241 368 241 368 268 459 c 128,-1,72
 295 550 295 550 311 589 c 1,73,-1
 320 615 l 1,74,75
 324 623 324 623 324 631 c 1,76,-1
 328 642 l 2,77,78
 330 650 330 650 330 652 c 2,79,-1
 339 680 l 2,80,81
 340 681 340 681 340 691 c 1,82,-1
 341 691 l 1,83,84
 341 693 341 693 340 694 c 1,85,86
 341 694 341 694 342 695 c 1,87,-1
 342 699 l 1,88,89
 343 700 343 700 345 707 c 1,90,91
 352 703 352 703 369 703 c 2,92,-1
 392 704 l 1,93,-1
 431 703 l 1,0,-1
438 693 m 1,94,-1
 390 695 l 2,95,96
 367 695 367 695 363 691 c 1,97,-1
 354 677 l 1,98,-1
 353 671 l 1,99,-1
 339 631 l 1,100,101
 339 625 339 625 338 624 c 2,102,-1
 329 595 l 2,103,104
 328 594 328 594 328 588 c 1,105,-1
 318 563 l 2,106,107
 317 562 317 562 317 558 c 1,108,-1
 300 506 l 2,109,110
 300 505 300 505 298 505 c 1,111,-1
 298 501 l 1,112,113
 297 500 297 500 296 500 c 2,114,-1
 291 481 l 2,115,116
 290 480 290 480 290 479 c 2,117,-1
 290 474 l 1,118,119
 289 474 289 474 288 473 c 2,120,-1
 285 459 l 1,121,122
 283 457 283 457 271 417 c 1,123,124
 269 417 269 417 269 415.5 c 128,-1,125
 269 414 269 414 270 413 c 1,126,127
 267 410 267 410 267 405 c 1,128,-1
 262 395 l 1,129,-1
 243 340 l 1,130,131
 239 336 239 336 239 329 c 1,132,-1
 217 275 l 2,133,134
 216 274 216 274 216 269 c 1,135,136
 213 266 213 266 213 261 c 1,137,-1
 209 249 l 2,138,139
 208 249 208 249 207 248 c 2,140,-1
 206 246 l 1,141,-1
 204 238 l 1,142,-1
 202 236 l 1,143,-1
 193 210 l 2,144,145
 193 207 193 207 192 206 c 1,146,-1
 191 206 l 1,147,148
 191 201 191 201 190 200 c 2,149,-1
 184 187 l 1,150,151
 184 184 184 184 181 181 c 1,152,153
 181 177 181 177 180 176 c 2,154,-1
 176 163 l 1,155,156
 174 163 174 163 169 143.5 c 128,-1,157
 164 124 164 124 159 110 c 2,158,-1
 153 93 l 1,159,160
 153 89 153 89 150 86 c 1,161,-1
 149 80 l 1,162,-1
 136 46 l 1,163,164
 136 42 136 42 135 41 c 2,165,-1
 128 24 l 1,166,-1
 125 10 l 1,167,-1
 145 11 l 1,168,-1
 145 12 l 1,169,-1
 154 11 l 1,170,171
 164 13 164 13 173 13 c 2,172,-1
 194 13 l 2,173,174
 214 13 214 13 223 16 c 1,175,-1
 224 21 l 2,176,177
 224 24 224 24 225 25 c 2,178,-1
 258 118 l 1,179,-1
 259 125 l 1,180,-1
 262 130 l 1,181,-1
 263 138 l 1,182,-1
 264 138 l 1,183,184
 264 140 264 140 265 141 c 1,185,-1
 266 141 l 1,186,187
 266 146 266 146 267 147 c 2,188,-1
 280 179 l 1,189,190
 280 182 280 182 281 183 c 2,191,-1
 289 208 l 2,192,193
 290 209 290 209 290 215 c 1,194,-1
 291 215 l 1,195,196
 292 216 292 216 292 219 c 1,197,-1
 299 236 l 2,198,199
 300 237 300 237 300 243 c 1,200,201
 303 246 303 246 303 250 c 1,202,-1
 307 256 l 1,203,-1
 308 263 l 1,204,205
 333 326 333 326 333 333 c 1,206,-1
 335 335 l 1,207,208
 336 345 336 345 338 348 c 1,209,-1
 339 348 l 1,210,211
 340 349 340 349 340 351 c 1,212,213
 343 354 343 354 343 359 c 1,214,-1
 351 380 l 1,215,-1
 352 384 l 1,216,-1
 353 387 l 2,217,218
 354 387 354 387 355 390.5 c 128,-1,219
 356 394 356 394 358 396 c 1,220,-1
 374 448 l 1,221,222
 374 452 374 452 375 453 c 2,223,-1
 377 454 l 1,224,-1
 385 482 l 2,225,226
 386 483 386 483 386 488 c 1,227,-1
 387 488 l 1,228,229
 388 489 388 489 388 497 c 1,230,-1
 396 518 l 1,231,232
 396 525 396 525 398.5 527.5 c 128,-1,233
 401 530 401 530 401 534 c 1,234,235
 406 544 406 544 407 550.5 c 128,-1,236
 408 557 408 557 409 560 c 2,237,-1
 417 579 l 1,238,-1
 418 585 l 1,239,-1
 426 606 l 1,240,241
 426 613 426 613 429 613 c 1,242,-1
 431 620 l 1,243,244
 431 625 431 625 432 626 c 2,245,-1
 438 643 l 2,246,247
 439 644 439 644 439 650 c 1,248,249
 450 679 450 679 453 694 c 1,250,-1
 438 693 l 1,94,-1
575 274 m 1,251,-1
 576 263 l 1,252,-1
 577 255 l 2,253,254
 577 251 577 251 578 250 c 1,255,-1
 577 249 l 1,256,-1
 581 224 l 1,257,-1
 581 213 l 1,258,-1
 580 201 l 1,259,-1
 581 192 l 2,260,261
 581 184 581 184 580 183 c 2,262,-1
 577 156 l 2,263,264
 575 142 575 142 575 141 c 2,265,-1
 570 115 l 1,266,267
 570 109 570 109 564 97.5 c 128,-1,268
 558 86 558 86 558 85 c 128,-1,269
 558 84 558 84 557 82 c 2,270,-1
 552 69 l 1,271,-1
 541 58 l 1,272,-1
 535 51 l 1,273,-1
 529 47 l 1,274,275
 511 40 511 40 509 38 c 1,276,-1
 505 37 l 2,277,278
 504 37 504 37 503 36 c 2,279,-1
 481 29 l 2,280,281
 480 29 480 29 479 30 c 1,282,-1
 479 29 l 1,283,-1
 477 30 l 1,284,-1
 477 29 l 1,285,-1
 469 30 l 1,286,-1
 457 31 l 1,287,-1
 457 32 l 1,288,289
 453 32 453 32 452 31 c 1,290,-1
 435 36 l 1,291,-1
 401 57 l 1,292,-1
 399 61 l 1,293,-1
 394 65 l 1,294,-1
 394 66 l 1,295,296
 393 67 393 67 392 67 c 2,297,-1
 391 70 l 1,298,299
 387 70 387 70 387 72 c 1,300,-1
 373 96 l 1,301,-1
 369 107 l 1,302,-1
 369 111 l 2,303,304
 369 114 369 114 367 116 c 1,305,-1
 361 156 l 2,306,307
 360 158 360 158 360 161 c 128,-1,308
 360 164 360 164 359 165 c 1,309,-1
 360 165 l 1,310,-1
 359 168 l 1,311,-1
 360 168 l 1,312,-1
 359 177 l 2,313,314
 359 184 359 184 358 185 c 1,315,-1
 362 225 l 2,316,317
 362 233 362 233 363 234 c 2,318,-1
 369 281 l 1,319,-1
 380 309 l 1,320,321
 382 310 382 310 382 311 c 128,-1,322
 382 312 382 312 383 313 c 2,323,-1
 389 322 l 1,324,325
 389 322 389 322 394 329 c 2,326,-1
 411 348 l 1,327,-1
 411 349 l 1,328,329
 413 349 413 349 449 364 c 1,330,-1
 470 366 l 2,331,332
 477 366 477 366 478.5 367 c 128,-1,333
 480 368 480 368 481 367 c 1,334,-1
 490 368 l 1,335,-1
 496 366 l 2,336,337
 497 366 497 366 498 365 c 1,338,-1
 500 365 l 1,339,340
 504 364 504 364 512.5 360 c 128,-1,341
 521 356 521 356 527 356 c 1,342,-1
 528 355 l 1,343,344
 533 355 533 355 533 351 c 1,345,-1
 535 351 l 1,346,-1
 538 347 l 1,347,-1
 542 344 l 1,348,-1
 544 342 l 1,349,350
 546 338 546 338 548 335 c 0,351,352
 556 326 556 326 556 324 c 0,353,354
 557 321 557 321 560 318 c 1,355,-1
 575 274 l 1,251,-1
223 411 m 2,356,-1
 218 403 l 2,357,358
 218 402 218 402 217 400 c 2,359,-1
 212 387 l 1,360,-1
 201 376 l 1,361,-1
 195 369 l 1,362,-1
 173 357 l 1,363,-1
 165 355 l 2,364,365
 164 355 164 355 163 354 c 2,366,-1
 141 347 l 2,367,368
 140 347 140 347 139 348 c 1,369,-1
 139 347 l 1,370,-1
 137 348 l 1,371,-1
 137 347 l 1,372,-1
 129 348 l 1,373,-1
 117 349 l 1,374,-1
 117 350 l 1,375,376
 113 350 113 350 112 349 c 1,377,-1
 95 354 l 1,378,-1
 86 355 l 1,379,380
 77 360 77 360 76 360 c 1,381,-1
 76 362 l 1,382,383
 72 364 72 364 67.5 369 c 128,-1,384
 63 374 63 374 61 375 c 1,385,-1
 59 379 l 1,386,387
 57 380 57 380 56.5 381 c 128,-1,388
 56 382 56 382 54 383 c 2,389,-1
 44 394 l 1,390,-1
 44 396 l 1,391,-1
 36 410 l 1,392,-1
 29 425 l 1,393,-1
 29 429 l 2,394,395
 29 432 29 432 27 434 c 1,396,-1
 21 474 l 2,397,398
 20 476 20 476 20 479 c 128,-1,399
 20 482 20 482 19 483 c 1,400,-1
 20 483 l 1,401,-1
 19 486 l 1,402,-1
 20 486 l 1,403,-1
 19 495 l 2,404,405
 19 502 19 502 18 503 c 1,406,-1
 22 543 l 2,407,408
 22 551 22 551 23 552 c 2,409,-1
 29 599 l 1,410,411
 31 604 31 604 33.5 609.5 c 128,-1,412
 36 615 36 615 37.5 618.5 c 128,-1,413
 39 622 39 622 40 625 c 128,-1,414
 41 628 41 628 43 631 c 2,415,-1
 54 647 l 1,416,-1
 58 650 l 1,417,-1
 58 651 l 1,418,419
 59 652 59 652 60 652 c 2,420,-1
 63 657 l 1,421,-1
 71 666 l 1,422,-1
 71 667 l 1,423,424
 72 667 72 667 73 669 c 128,-1,425
 74 671 74 671 78 671 c 1,426,427
 80 673 80 673 80 674 c 2,428,-1
 83 675 l 2,429,430
 86 675 86 675 87 676 c 2,431,-1
 109 682 l 1,432,-1
 130 684 l 2,433,434
 137 684 137 684 138.5 685 c 128,-1,435
 140 686 140 686 141 685 c 1,436,-1
 150 686 l 1,437,-1
 156 684 l 2,438,439
 157 684 157 684 158 683 c 1,440,-1
 160 683 l 1,441,442
 164 682 164 682 172.5 678 c 128,-1,443
 181 674 181 674 187 674 c 1,444,-1
 188 673 l 1,445,446
 193 673 193 673 193 669 c 1,447,-1
 195 669 l 1,448,-1
 198 665 l 1,449,-1
 208 655 l 1,450,-1
 210 655 l 1,451,452
 212 649 212 649 214 647 c 1,453,-1
 214 646 l 1,454,455
 233 603 233 603 235 596 c 1,456,-1
 235 592 l 1,457,-1
 236 581 l 1,458,-1
 237 573 l 2,459,460
 237 569 237 569 238 568 c 1,461,-1
 237 567 l 1,462,-1
 241 510 l 2,463,464
 241 502 241 502 240 501 c 2,465,-1
 237 474 l 2,466,467
 235 460 235 460 235 459 c 2,468,-1
 230 433 l 1,469,-1
 229 424 l 1,470,-1
 226 417 l 2,471,472
 225 416 225 416 225 414 c 1,473,474
 223 412 223 412 223 411 c 2,356,-1
535 336 m 2,475,-1
 528 342 l 1,476,-1
 527 342 l 1,477,478
 527 343 527 343 523 346 c 1,479,-1
 522 345 l 1,480,481
 515 351 515 351 513 351 c 1,482,-1
 513 352 l 1,483,-1
 487 358 l 2,484,485
 485 358 485 358 479 357 c 1,486,-1
 467 357 l 1,487,488
 464 358 464 358 462 358 c 128,-1,489
 460 358 460 358 457 357 c 2,490,-1
 437 351 l 2,491,492
 436 350 436 350 433.5 350 c 128,-1,493
 431 350 431 350 431 351 c 0,494,495
 436 354 436 354 438 354 c 1,496,-1
 438 355 l 1,497,498
 431 351 431 351 426 351 c 2,499,-1
 425 351 l 1,500,-1
 418 346 l 1,501,-1
 418 345 l 1,502,503
 411 342 411 342 411 341 c 1,504,-1
 414 341 l 1,505,-1
 394 319 l 1,506,-1
 395 318 l 1,507,-1
 388 309 l 1,508,-1
 386 301 l 1,509,-1
 384 301 l 1,510,-1
 382 295 l 2,511,512
 382 294 382 294 379 290 c 1,513,-1
 380 288 l 1,514,-1
 377 283 l 1,515,-1
 371 257 l 1,516,517
 372 256 372 256 372 252 c 2,518,-1
 369 233 l 1,519,-1
 370 217 l 1,520,-1
 369 217 l 1,521,522
 369 208 369 208 370 207 c 1,523,-1
 367 198 l 1,524,-1
 366 179 l 1,525,-1
 367 167 l 1,526,-1
 369 147 l 2,527,528
 370 146 370 146 370 139 c 1,529,-1
 372 127 l 1,530,-1
 373 122 l 1,531,-1
 377 112 l 2,532,533
 377 110 377 110 378 109 c 2,534,-1
 385 94 l 1,535,536
 399 80 399 80 406 66 c 1,537,-1
 407 66 l 1,538,539
 407 65 407 65 408 64 c 1,540,-1
 410 64 l 1,541,542
 410 62 410 62 411 62 c 2,543,-1
 423 55 l 2,544,545
 423 54 423 54 425 54 c 1,546,-1
 427 52 l 1,547,548
 429 52 429 52 429 51 c 2,549,-1
 453 40 l 2,550,551
 454 39 454 39 458 39 c 2,552,-1
 476 38 l 1,553,554
 477 39 477 39 486 39 c 1,555,556
 508 51 508 51 517 54.5 c 128,-1,557
 526 58 526 58 526.5 58.5 c 128,-1,558
 527 59 527 59 527 60 c 2,559,-1
 527 64 l 1,560,-1
 551 105 l 1,561,-1
 553 111 l 1,562,-1
 554 115 l 2,563,564
 554 119 554 119 555 120 c 2,565,-1
 560 138 l 1,566,567
 560 146 560 146 569 187 c 1,568,-1
 569 195 l 1,569,-1
 571 215 l 1,570,-1
 571 222 l 2,571,572
 571 229 571 229 570 230 c 1,573,-1
 570 244 l 1,574,-1
 568 252 l 1,575,-1
 568 257 l 1,576,577
 569 257 569 257 569 259 c 2,578,-1
 559 290 l 1,579,-1
 543 322 l 2,580,581
 542 323 542 323 541 323 c 2,582,-1
 536 334 l 2,583,584
 535 335 535 335 535 336 c 2,475,-1
220 456 m 1,585,586
 220 464 220 464 229 505 c 1,587,-1
 229 565 l 2,588,589
 229 569 229 569 228 570 c 1,590,-1
 228 575 l 1,591,592
 229 575 229 575 229 577 c 2,593,-1
 219 608 l 1,594,-1
 213 625 l 2,595,596
 212 630 212 630 210 632 c 2,597,-1
 209 634 l 1,598,-1
 201 641 l 1,599,-1
 196 652 l 1,600,601
 194 653 194 653 188 660 c 1,602,-1
 187 660 l 1,603,604
 187 661 187 661 186 662 c 2,605,-1
 176 668 l 2,606,607
 175 669 175 669 173 669 c 1,608,-1
 173 670 l 1,609,-1
 147 676 l 2,610,611
 145 676 145 676 139 675 c 1,612,-1
 127 675 l 1,613,614
 124 676 124 676 122 676 c 128,-1,615
 120 676 120 676 117 675 c 2,616,-1
 98 672 l 1,617,-1
 98 673 l 1,618,-1
 95 672 l 1,619,620
 86 672 86 672 78 664 c 1,621,-1
 78 663 l 1,622,623
 73 662 73 662 71 658 c 1,624,625
 71 659 71 659 74 659 c 1,626,627
 72 657 72 657 69 656 c 1,628,-1
 63 651 l 1,629,-1
 60 645 l 1,630,631
 57 645 57 645 57 640 c 1,632,-1
 54 637 l 1,633,-1
 55 636 l 1,634,-1
 44 619 l 1,635,-1
 31 575 l 1,636,637
 32 574 32 574 32 570 c 2,638,-1
 29 551 l 1,639,-1
 30 535 l 1,640,-1
 29 535 l 1,641,642
 29 526 29 526 30 525 c 1,643,-1
 27 516 l 1,644,-1
 26 497 l 1,645,-1
 27 485 l 1,646,-1
 29 465 l 2,647,648
 30 464 30 464 30 457 c 1,649,-1
 32 445 l 1,650,-1
 33 440 l 1,651,-1
 43 415 l 1,652,-1
 50 403 l 1,653,-1
 56 394 l 1,654,-1
 68 382 l 1,655,-1
 70 382 l 1,656,657
 70 380 70 380 71 380 c 2,658,-1
 97 365 l 1,659,-1
 113 358 l 2,660,661
 114 357 114 357 118 357 c 2,662,-1
 136 356 l 1,663,664
 137 357 137 357 146 357 c 1,665,-1
 161 363 l 1,666,667
 165 363 165 363 168 366 c 2,668,-1
 180 374 l 1,669,670
 187 381 187 381 193 391 c 1,671,-1
 200 406 l 2,672,673
 200 407 200 407 201 408 c 2,674,-1
 211 423 l 1,675,-1
 213 429 l 1,676,-1
 214 433 l 2,677,678
 214 437 214 437 215 438 c 2,679,-1
 220 456 l 1,585,586
93 576 m 1,680,-1
 92 588 l 2,681,682
 92 593 92 593 94 595 c 2,683,-1
 108 611 l 1,684,-1
 112 613 l 1,685,686
 112 615 112 615 121 618 c 1,687,688
 127 618 127 618 128 619 c 1,689,-1
 141 619 l 1,690,691
 142 620 142 620 143 620 c 2,692,-1
 160 605 l 1,693,-1
 162 601 l 2,694,695
 162 600 162 600 163 599 c 2,696,-1
 169 569 l 2,697,698
 169 566 169 566 171 490 c 1,699,-1
 165 438 l 2,700,701
 165 437 165 437 162 431 c 0,702,703
 161 431 161 431 159 429 c 1,704,-1
 159 428 l 1,705,-1
 156 424 l 1,706,-1
 141 415 l 1,707,-1
 131 413 l 1,708,709
 113 416 113 416 106 423.5 c 128,-1,710
 99 431 99 431 97.5 436 c 128,-1,711
 96 441 96 441 94 457 c 1,712,-1
 91 541 l 2,713,714
 91 542 91 542 90 543 c 1,715,-1
 93 576 l 1,680,-1
452 295 m 1,716,717
 452 297 452 297 461 300 c 1,718,719
 467 300 467 300 468 301 c 1,720,-1
 481 301 l 1,721,722
 482 302 482 302 483 302 c 2,723,-1
 493 297 l 1,724,-1
 507 266 l 1,725,-1
 509 251 l 2,726,727
 510 244 510 244 510 183 c 2,728,-1
 510 182 l 2,729,730
 510 163 510 163 509 132 c 1,731,-1
 505 120 l 2,732,733
 505 119 505 119 502 113 c 0,734,735
 501 113 501 113 499 111 c 1,736,-1
 499 110 l 1,737,-1
 496 106 l 1,738,-1
 494 105 l 1,739,740
 494 103 494 103 492 103 c 1,741,-1
 491 101 l 1,742,743
 482 98 482 98 481 97 c 2,744,-1
 471 95 l 1,745,746
 453 98 453 98 446 105.5 c 128,-1,747
 439 113 439 113 437.5 118 c 128,-1,748
 436 123 436 123 434 139 c 2,749,-1
 431 160 l 1,750,-1
 433 258 l 2,751,752
 433 270 433 270 436 273 c 1,753,-1
 436 282 l 1,754,755
 439 285 439 285 442 287 c 0,756,757
 447 290 447 290 447 293 c 1,758,-1
 452 295 l 1,716,717
499 258 m 1,759,-1
 498 267 l 1,760,-1
 498 274 l 1,761,-1
 496 278 l 1,762,-1
 494 278 l 1,763,764
 494 281 494 281 493 281 c 2,765,-1
 492 281 l 1,766,-1
 489 285 l 1,767,-1
 487 285 l 1,768,769
 487 287 487 287 486 287 c 2,770,-1
 481 290 l 1,771,772
 463 290 463 290 456 283 c 1,773,774
 453 283 453 283 450 280 c 128,-1,775
 447 277 447 277 447 274 c 2,776,-1
 440 248 l 1,777,-1
 439 218 l 2,778,779
 438 217 438 217 438 209.5 c 128,-1,780
 438 202 438 202 440 188 c 1,781,-1
 442 148 l 1,782,-1
 444 135 l 1,783,-1
 447 122 l 2,784,785
 449 117 449 117 454.5 111.5 c 128,-1,786
 460 106 460 106 461 106 c 2,787,-1
 462 106 l 1,788,789
 462 107 462 107 464 107 c 2,790,-1
 473 106 l 2,791,792
 475 106 475 106 478 105 c 1,793,-1
 486 108 l 1,794,-1
 495 114 l 1,795,-1
 498 121 l 1,796,-1
 501 132 l 1,797,-1
 501 177 l 1,798,-1
 504 198 l 1,799,-1
 503 213 l 1,800,801
 503 231 503 231 500 238 c 1,802,-1
 499 258 l 1,759,-1
155 432 m 1,803,-1
 158 439 l 2,804,805
 158 441 158 441 159 442 c 2,806,-1
 161 450 l 1,807,-1
 163 531 l 2,808,809
 163 549 163 549 160 556 c 1,810,-1
 159 576 l 2,811,812
 159 596 159 596 149 603 c 1,813,-1
 147 603 l 1,814,815
 147 605 147 605 146 605 c 2,816,-1
 141 608 l 1,817,-1
 137 608 l 2,818,819
 128 608 128 608 117.5 603.5 c 128,-1,820
 107 599 107 599 107 592 c 1,821,-1
 100 566 l 1,822,-1
 99 536 l 2,823,824
 98 535 98 535 98 527.5 c 128,-1,825
 98 520 98 520 100 506 c 1,826,-1
 102 466 l 1,827,-1
 104 453 l 1,828,-1
 107 440 l 2,829,830
 109 435 109 435 114.5 429.5 c 128,-1,831
 120 424 120 424 121 424 c 2,832,-1
 122 424 l 1,833,834
 122 425 122 425 124 425 c 2,835,-1
 133 424 l 2,836,837
 135 424 135 424 138 423 c 1,838,-1
 146 426 l 1,839,-1
 155 432 l 1,803,-1
559 311 m 1,840,-1
 560 306 l 1,841,-1
 565 294 l 1,842,-1
 560 310 l 1,843,-1
 559 311 l 1,840,-1
EndSplineSet
EndChar

StartChar: ampersand
Encoding: 38 38 9
Width: 565
GlyphClass: 2
Flags: W
LayerCount: 2
Fore
SplineSet
452 1 m 1,0,-1
 431 -2 l 1,1,2
 413 -2 413 -2 401 15 c 1,3,-1
 370 37 l 1,4,-1
 336 15 l 1,5,6
 287 0 287 0 164 0 c 0,7,8
 151 0 151 0 144 4 c 1,9,10
 53 38 53 38 29 108 c 0,11,12
 20 134 20 134 15.5 165 c 128,-1,13
 11 196 11 196 8 209 c 1,14,-1
 8 262 l 1,15,16
 26 342 26 342 75 377 c 1,17,18
 103 405 103 405 124 410 c 1,19,-1
 108 430 l 2,20,21
 96 445 96 445 92.5 449 c 128,-1,22
 89 453 89 453 79.5 466 c 128,-1,23
 70 479 70 479 67.5 484.5 c 128,-1,24
 65 490 65 490 58.5 501.5 c 128,-1,25
 52 513 52 513 50 521 c 128,-1,26
 48 529 48 529 45 540 c 0,27,28
 40 560 40 560 40 594 c 128,-1,29
 40 628 40 628 60.5 661.5 c 128,-1,30
 81 695 81 695 108 713 c 1,31,32
 166 740 166 740 212 740 c 128,-1,33
 258 740 258 740 299 728 c 1,34,-1
 346 708 l 1,35,-1
 390 668 l 1,36,37
 406 643 406 643 406 597.5 c 128,-1,38
 406 552 406 552 384 502 c 128,-1,39
 362 452 362 452 315 413 c 1,40,-1
 362 339 l 1,41,42
 362 349 362 349 371 378.5 c 128,-1,43
 380 408 380 408 393 408 c 0,44,45
 429 408 429 408 472 402 c 2,46,-1
 514 396 l 1,47,48
 527 396 527 396 536 399 c 1,49,50
 538 377 538 377 538 364 c 0,51,52
 538 249 538 249 491 152 c 1,53,-1
 555 60 l 1,54,-1
 561 48 l 2,55,56
 568 32 568 32 568 27 c 2,57,-1
 566 -1 l 1,58,-1
 517 -2 l 1,59,-1
 452 1 l 1,0,-1
523 384 m 1,60,-1
 513 383 l 1,61,62
 502 383 502 383 500 384 c 2,63,-1
 482 386 l 1,64,65
 461 391 461 391 418 395 c 1,66,-1
 407 392 l 2,67,68
 406 391 406 391 400 391 c 128,-1,69
 394 391 394 391 392 394 c 1,70,-1
 392 375 l 1,71,72
 384 358 384 358 370 292 c 1,73,-1
 298 415 l 1,74,75
 340 457 340 457 352.5 476.5 c 128,-1,76
 365 496 365 496 370.5 521.5 c 128,-1,77
 376 547 376 547 387 569 c 128,-1,78
 398 591 398 591 398 613.5 c 128,-1,79
 398 636 398 636 379 660 c 1,80,-1
 341 694 l 1,81,82
 272 726 272 726 241 726 c 0,83,84
 176 726 176 726 124 704 c 1,85,-1
 115 699 l 1,86,-1
 116 700 l 1,87,88
 98 690 98 690 91.5 682.5 c 128,-1,89
 85 675 85 675 75 654 c 1,90,-1
 67 641 l 2,91,92
 55 622 55 622 55 591 c 128,-1,93
 55 560 55 560 58 543.5 c 128,-1,94
 61 527 61 527 73 506.5 c 128,-1,95
 85 486 85 486 89.5 478.5 c 128,-1,96
 94 471 94 471 118 441.5 c 128,-1,97
 142 412 142 412 148 404 c 1,98,99
 135 398 135 398 121.5 390.5 c 128,-1,100
 108 383 108 383 95 377 c 1,101,102
 89 368 89 368 73 352 c 0,103,104
 37 315 37 315 24 260 c 1,105,-1
 24 210 l 1,106,-1
 30 179 l 1,107,108
 38 99 38 99 80 58 c 1,109,110
 97 40 97 40 132 26.5 c 128,-1,111
 167 13 167 13 213 13 c 0,112,113
 233 13 233 13 259 17.5 c 128,-1,114
 285 22 285 22 285 23 c 1,115,116
 286 19 286 19 294 19 c 128,-1,117
 302 19 302 19 322 28 c 1,118,-1
 354 51 l 1,119,-1
 369 56 l 1,120,-1
 424 18 l 1,121,-1
 452 14 l 1,122,-1
 554 14 l 1,123,-1
 554 27 l 2,124,125
 554 32 554 32 549 40.5 c 128,-1,126
 544 49 544 49 543 52 c 1,127,-1
 545 51 l 1,128,-1
 473 150 l 1,129,130
 523 262 523 262 523 384 c 1,60,-1
279 265 m 0,131,132
 287 265 287 265 298 233.5 c 128,-1,133
 309 202 309 202 309 185 c 2,134,-1
 309 182 l 1,135,-1
 299 163 l 1,136,-1
 299 165 l 1,137,138
 296 158 296 158 280 152 c 128,-1,139
 264 146 264 146 258 145 c 128,-1,140
 252 144 252 144 234 149 c 1,141,-1
 235 148 l 1,142,143
 197 148 197 148 180 166.5 c 128,-1,144
 163 185 163 185 163 213 c 0,145,146
 163 238 163 238 191 285 c 0,147,148
 193 290 193 290 194.5 290 c 128,-1,149
 196 290 196 290 200.5 291 c 128,-1,150
 205 292 205 292 210 293 c 2,151,-1
 234 298 l 1,152,153
 252 290 252 290 258.5 284.5 c 128,-1,154
 265 279 265 279 277 263 c 1,155,156
 277 265 277 265 279 265 c 0,131,132
176 205 m 0,157,158
 176 170 176 170 222 163 c 1,159,160
 228 161 228 161 235.5 157.5 c 128,-1,161
 243 154 243 154 247.5 154 c 128,-1,162
 252 154 252 154 261 160 c 1,163,164
 265 160 265 160 277 163 c 128,-1,165
 289 166 289 166 289 169 c 1,166,-1
 300 192 l 1,167,168
 300 199 300 199 289 228 c 2,169,-1
 279 253 l 1,170,-1
 276 251 l 1,171,172
 272 251 272 251 266 261 c 128,-1,173
 260 271 260 271 258.5 273 c 128,-1,174
 257 275 257 275 254 278 c 0,175,176
 248 282 248 282 235 286 c 1,177,178
 214 282 214 282 207 280.5 c 128,-1,179
 200 279 200 279 198.5 275 c 128,-1,180
 197 271 197 271 196 270 c 0,181,182
 176 228 176 228 176 205 c 0,157,158
186 572 m 2,183,-1
 187 583 l 1,184,-1
 187 592 l 2,185,186
 187 608 187 608 197 618 c 1,187,-1
 204 629 l 1,188,-1
 204 627 l 1,189,190
 208 635 208 635 219 635 c 128,-1,191
 230 635 230 635 236.5 630 c 128,-1,192
 243 625 243 625 243 623 c 1,193,-1
 242 623 l 1,194,195
 251 614 251 614 251 572.5 c 128,-1,196
 251 531 251 531 237 514 c 1,197,-1
 236 509 l 1,198,199
 229 502 229 502 219 502 c 0,200,201
 199 502 199 502 189 554 c 1,202,203
 186 564 186 564 186 572 c 2,183,-1
219 510 m 0,204,205
 234 510 234 510 241.5 530.5 c 128,-1,206
 249 551 249 551 249 578 c 0,207,208
 249 627 249 627 223 627 c 2,209,-1
 217 627 l 2,210,211
 211 627 211 627 206 622 c 1,212,-1
 199 612 l 1,213,214
 191 612 191 612 191 572 c 0,215,216
 191 571 191 571 193 557 c 0,217,218
 200 510 200 510 219 510 c 0,204,205
EndSplineSet
EndChar

StartChar: quotesingle
Encoding: 39 39 10
Width: 185
GlyphClass: 2
Flags: W
LayerCount: 2
Fore
SplineSet
51 462 m 2,0,-1
 46 464 l 1,1,2
 41 464 41 464 40 465 c 1,3,-1
 40 466 l 1,4,-1
 43 466 l 1,5,-1
 43 486 l 1,6,-1
 41 493 l 1,7,-1
 42 515 l 1,8,-1
 42 531 l 2,9,10
 42 532 42 532 43 533 c 1,11,12
 42 534 42 534 42 536 c 2,13,-1
 43 540 l 1,14,15
 41 542 41 542 41 544 c 2,16,-1
 42 550 l 1,17,-1
 42 563 l 2,18,19
 42 566 42 566 41 568 c 2,20,-1
 40 583 l 1,21,-1
 41 586 l 1,22,-1
 40 590 l 1,23,-1
 41 594 l 1,24,-1
 40 594 l 1,25,-1
 40 641 l 1,26,-1
 42 677 l 1,27,-1
 44 689 l 1,28,29
 43 690 43 690 43 702 c 1,30,-1
 44 708 l 1,31,-1
 49 708 l 2,32,33
 50 708 50 708 51.5 709 c 128,-1,34
 53 710 53 710 54 709 c 1,35,-1
 72 709 l 1,36,-1
 88 711 l 1,37,-1
 144 711 l 1,38,-1
 148 709 l 1,39,-1
 146 704 l 2,40,41
 146 703 146 703 147 702 c 1,42,43
 146 701 146 701 146 697 c 2,44,-1
 145 683 l 1,45,-1
 145 619 l 2,46,47
 145 617 145 617 145.5 615 c 128,-1,48
 146 613 146 613 146 608.5 c 128,-1,49
 146 604 146 604 145 603 c 1,50,-1
 145 592 l 1,51,52
 144 591 144 591 144 586.5 c 128,-1,53
 144 582 144 582 145 582 c 2,54,-1
 144 559 l 1,55,56
 145 558 145 558 145 549 c 2,57,-1
 146 516 l 1,58,-1
 146 475 l 1,59,-1
 150 467 l 1,60,61
 142 464 142 464 140 464 c 2,62,-1
 121 465 l 1,63,-1
 121 464 l 1,64,65
 120 465 120 465 115 465 c 2,66,-1
 104 465 l 2,67,68
 84 465 84 465 52 464 c 0,69,70
 51 463 51 463 51 462 c 2,0,-1
53 701 m 2,71,-1
 54 692 l 1,72,-1
 53 692 l 2,73,74
 54 692 54 692 54 690 c 2,75,-1
 54 687 l 2,76,77
 54 686 54 686 53 685 c 1,78,-1
 54 672 l 1,79,-1
 50 609 l 1,80,-1
 50 582 l 1,81,-1
 49 582 l 1,82,83
 49 581 49 581 50 580 c 1,84,-1
 48 580 l 1,85,-1
 50 578 l 1,86,-1
 50 563 l 1,87,-1
 51 481 l 1,88,-1
 50 475 l 1,89,-1
 49 474 l 1,90,-1
 51 474 l 1,91,-1
 51 470 l 1,92,-1
 67 469 l 1,93,94
 68 470 68 470 73 470 c 2,95,-1
 84 470 l 1,96,97
 85 471 85 471 94 471 c 2,98,-1
 128 471 l 2,99,100
 136 471 136 471 137 472 c 1,101,102
 136 473 136 473 136 475 c 2,103,-1
 135 487 l 2,104,105
 135 488 135 488 136 488 c 128,-1,106
 137 488 137 488 137 485 c 2,107,-1
 138 479 l 1,108,-1
 140 474 l 1,109,-1
 139 527 l 1,110,-1
 139 550 l 1,111,112
 136 581 136 581 135.5 584 c 128,-1,113
 135 587 135 587 136 588 c 1,114,-1
 136 598 l 1,115,-1
 137 619 l 2,116,117
 137 628 137 628 136 629 c 1,118,-1
 136 638 l 1,119,-1
 135 645 l 2,120,121
 136 645 136 645 136 647.5 c 128,-1,122
 136 650 136 650 137 651 c 1,123,-1
 136 672 l 1,124,-1
 137 681 l 1,125,-1
 137 705 l 1,126,-1
 90 704 l 1,127,-1
 59 704 l 2,128,129
 53 704 53 704 53 701 c 2,71,-1
121 467 m 1,130,-1
 108 468 l 1,131,-1
 105 467 l 1,132,-1
 121 467 l 1,130,-1
EndSplineSet
EndChar

StartChar: parenleft
Encoding: 40 40 11
Width: 314
GlyphClass: 2
Flags: W
LayerCount: 2
Fore
SplineSet
287 603 m 1,0,-1
 286 595 l 1,1,-1
 286 579 l 1,2,-1
 285 579 l 1,3,4
 285 577 285 577 286 576 c 1,5,6
 283 579 283 579 263 569 c 128,-1,7
 243 559 243 559 227 549 c 128,-1,8
 211 539 211 539 201 516 c 128,-1,9
 191 493 191 493 189 479.5 c 128,-1,10
 187 466 187 466 184.5 446.5 c 128,-1,11
 182 427 182 427 180 413 c 0,12,13
 173 377 173 377 173 354 c 1,14,-1
 176 318 l 1,15,16
 176 218 176 218 192 186 c 0,17,18
 201 169 201 169 216 158 c 1,19,20
 217 155 217 155 240.5 143 c 128,-1,21
 264 131 264 131 266 131 c 1,22,-1
 267 130 l 1,23,24
 268 131 268 131 273 131 c 1,25,26
 273 130 273 130 274 129 c 1,27,-1
 288 129 l 1,28,-1
 288 24 l 1,29,-1
 285 7 l 1,30,31
 281 7 281 7 280 6 c 1,32,-1
 280 5 l 2,33,34
 280 1 280 1 229 1 c 0,35,36
 117 1 117 1 56 107 c 1,37,38
 38 136 38 136 38 151 c 1,39,-1
 40 162 l 2,40,41
 40 165 40 165 39 166 c 2,42,-1
 37 175 l 1,43,-1
 31 251 l 1,44,-1
 32 257 l 1,45,-1
 33 257 l 1,46,47
 37 289 37 289 37 292 c 2,48,-1
 37 339 l 1,49,-1
 40 477 l 1,50,-1
 39 501 l 2,51,52
 39 506 39 506 41 516 c 1,53,-1
 42 531 l 1,54,55
 42 577 42 577 66.5 623.5 c 128,-1,56
 91 670 91 670 132 688 c 1,57,58
 134 690 134 690 143 693 c 128,-1,59
 152 696 152 696 153 697 c 2,60,-1
 215 703 l 1,61,-1
 233 703 l 1,62,-1
 258 702 l 2,63,64
 286 700 286 700 286 691 c 2,65,-1
 286 605 l 1,66,-1
 287 603 l 1,0,-1
278 112 m 1,67,68
 271 119 271 119 253 124 c 1,69,-1
 253 125 l 1,70,71
 247 128 247 128 232.5 134 c 128,-1,72
 218 140 218 140 214 143 c 0,73,74
 181 168 181 168 173 191 c 1,75,-1
 172 191 l 1,76,-1
 170 201 l 1,77,78
 167 201 167 201 167 209 c 1,79,-1
 159 251 l 1,80,81
 155 258 155 258 155 272 c 1,82,83
 157 278 157 278 157 283 c 1,84,-1
 158 284 l 1,85,-1
 158 386 l 1,86,-1
 161 395 l 1,87,88
 160 396 160 396 160 398 c 1,89,-1
 162 400 l 1,90,-1
 162 406 l 1,91,-1
 161 445 l 1,92,-1
 162 459 l 1,93,-1
 162 468 l 2,94,95
 162 469 162 469 164 479 c 0,96,97
 165 479 165 479 166 480 c 0,98,99
 179 506 179 506 179 513 c 1,100,-1
 192 532 l 1,101,-1
 193 532 l 1,102,-1
 205 549 l 1,103,-1
 207 549 l 1,104,105
 209 555 209 555 220.5 562 c 128,-1,106
 232 569 232 569 239 574 c 1,107,-1
 239 575 l 1,108,-1
 264 581 l 1,109,110
 264 610 264 610 268 621 c 1,111,-1
 270 640 l 1,112,-1
 270 672 l 2,113,114
 270 679 270 679 267 679 c 1,115,-1
 262 681 l 1,116,-1
 262 682 l 1,117,118
 253 686 253 686 242 686 c 2,119,-1
 220 684 l 1,120,-1
 160 670 l 1,121,-1
 145 664 l 2,122,123
 142 663 142 663 140 661 c 2,124,-1
 130 656 l 2,125,126
 129 655 129 655 126 655 c 1,127,-1
 121 653 l 1,128,-1
 94 633 l 1,129,-1
 87 630 l 1,130,131
 80 621 80 621 76 616 c 128,-1,132
 72 611 72 611 72 609 c 2,133,-1
 71 606 l 1,134,135
 68 606 68 606 65 596 c 1,136,-1
 63 594 l 1,137,-1
 54 553 l 1,138,-1
 54 307 l 1,139,-1
 50 296 l 1,140,141
 50 291 50 291 51 290 c 1,142,-1
 50 285 l 1,143,-1
 51 285 l 1,144,-1
 50 241 l 2,145,146
 50 236 50 236 51 235 c 2,147,-1
 52 178 l 1,148,-1
 55 163 l 2,149,150
 56 156 56 156 58 152 c 2,151,-1
 68 119 l 1,152,-1
 72 110 l 1,153,-1
 80 98 l 1,154,155
 80 90 80 90 92 80 c 1,156,-1
 97 74 l 1,157,-1
 99 74 l 1,158,159
 109 64 109 64 113 62 c 0,160,161
 114 61 114 61 114 60 c 2,162,-1
 145 41 l 1,163,-1
 229 20 l 1,164,165
 237 20 237 20 238 19 c 2,166,-1
 262 15 l 2,167,168
 265 14 265 14 267 14 c 2,169,-1
 277 16 l 1,170,-1
 275 26 l 1,171,-1
 275 38 l 2,172,173
 275 52 275 52 278 62 c 1,174,-1
 278 112 l 1,67,68
191 513 m 1,175,-1
 186 502 l 1,176,-1
 185 496 l 1,177,-1
 181 484 l 1,178,-1
 177 476 l 1,179,180
 171 448 171 448 170 426 c 2,181,-1
 169 400 l 2,182,183
 168 399 168 399 168 394.5 c 128,-1,184
 168 390 168 390 170 390 c 1,185,-1
 172 404 l 1,186,-1
 176 439 l 2,187,188
 176 441 176 441 175 442 c 1,189,-1
 177 449 l 2,190,191
 177 451 177 451 176 452 c 1,192,-1
 182 467 l 1,193,194
 182 491 182 491 191 509 c 1,195,-1
 192 509 l 1,196,-1
 191 513 l 1,175,-1
171 286 m 1,197,198
 169 284 169 284 169 281 c 2,199,-1
 169 268 l 2,200,201
 169 267 169 267 170 266 c 1,202,-1
 169 234 l 1,203,-1
 171 234 l 1,204,205
 172 233 172 233 172 226 c 1,206,-1
 174 220 l 1,207,208
 177 216 177 216 177 210 c 1,209,-1
 178 210 l 1,210,211
 178 221 178 221 175 232 c 1,212,213
 173 275 173 275 171 286 c 1,197,198
194 516 m 2,214,215
 194 518 194 518 196 520 c 128,-1,216
 198 522 198 522 198 523 c 2,217,-1
 197 522 l 1,218,219
 194 521 194 521 192 513 c 1,220,-1
 194 514 l 1,221,-1
 194 516 l 2,214,215
EndSplineSet
EndChar

StartChar: parenright
Encoding: 41 41 12
Width: 313
GlyphClass: 2
Flags: W
LayerCount: 2
Fore
SplineSet
270 162 m 2,0,-1
 272 151 l 1,1,2
 272 136 272 136 254 107 c 1,3,4
 220 48 220 48 176 24.5 c 128,-1,5
 132 1 132 1 81 1 c 128,-1,6
 30 1 30 1 30 5 c 2,7,-1
 30 6 l 1,8,9
 29 7 29 7 25 7 c 1,10,-1
 22 24 l 1,11,-1
 22 129 l 1,12,-1
 36 129 l 1,13,14
 37 130 37 130 37 131 c 1,15,16
 42 131 42 131 43 130 c 1,17,-1
 44 131 l 1,18,19
 46 131 46 131 69.5 143 c 128,-1,20
 93 155 93 155 94 158 c 1,21,22
 124 180 124 180 130 232 c 0,23,24
 134 269 134 269 134 318 c 1,25,-1
 137 354 l 1,26,27
 137 377 137 377 132.5 402 c 128,-1,28
 128 427 128 427 125.5 446 c 128,-1,29
 123 465 123 465 119.5 481.5 c 128,-1,30
 116 498 116 498 106 519 c 0,31,32
 86 558 86 558 24 576 c 1,33,34
 25 577 25 577 25 579 c 1,35,-1
 24 579 l 1,36,-1
 24 595 l 1,37,-1
 23 603 l 1,38,-1
 24 605 l 1,39,-1
 24 691 l 2,40,41
 24 700 24 700 52 702 c 2,42,-1
 77 703 l 1,43,-1
 95 703 l 1,44,-1
 157 697 l 2,45,46
 158 696 158 696 167 693 c 0,47,48
 215 677 215 677 241.5 626.5 c 128,-1,49
 268 576 268 576 268 531 c 1,50,-1
 269 516 l 1,51,52
 271 506 271 506 271 501 c 2,53,-1
 270 477 l 1,54,-1
 273 339 l 1,55,-1
 273 292 l 2,56,57
 273 289 273 289 277 257 c 1,58,-1
 278 257 l 1,59,60
 278 257 278 257 279 251 c 1,61,-1
 273 175 l 1,62,-1
 271 166 l 2,63,64
 270 165 270 165 270 162 c 2,0,-1
57 124 m 1,65,66
 39 119 39 119 32 112 c 1,67,-1
 32 62 l 1,68,69
 35 52 35 52 35 38 c 2,70,-1
 35 26 l 1,71,-1
 33 16 l 1,72,-1
 43 14 l 2,73,74
 45 14 45 14 48 15 c 2,75,-1
 72 19 l 2,76,77
 73 20 73 20 81 20 c 1,78,-1
 159 39 l 1,79,-1
 165 41 l 1,80,-1
 192 58 l 1,81,-1
 196 60 l 2,82,83
 196 61 196 61 197 62 c 2,84,-1
 199 63 l 1,85,86
 204 67 204 67 211 74 c 1,87,-1
 213 74 l 1,88,89
 221 84 221 84 223.5 87.5 c 128,-1,90
 226 91 226 91 227 92 c 2,91,-1
 238 110 l 1,92,-1
 242 119 l 1,93,-1
 252 152 l 2,94,95
 254 156 254 156 255 163 c 2,96,-1
 258 178 l 1,97,-1
 259 235 l 2,98,99
 260 236 260 236 260 241 c 2,100,-1
 259 285 l 1,101,-1
 260 285 l 1,102,-1
 259 290 l 1,103,104
 260 291 260 291 260 296 c 1,105,-1
 256 307 l 1,106,-1
 256 553 l 1,107,-1
 247 594 l 1,108,-1
 245 596 l 1,109,110
 242 606 242 606 239 606 c 1,111,-1
 238 609 l 2,112,113
 238 611 238 611 234 616 c 128,-1,114
 230 621 230 621 223 630 c 1,115,-1
 216 633 l 1,116,-1
 189 653 l 1,117,-1
 184 655 l 1,118,119
 181 655 181 655 180 656 c 2,120,-1
 170 661 l 2,121,122
 168 663 168 663 165 664 c 2,123,-1
 150 670 l 1,124,-1
 90 684 l 1,125,-1
 68 686 l 2,126,127
 57 686 57 686 48 682 c 1,128,-1
 48 681 l 1,129,-1
 43 679 l 1,130,131
 40 679 40 679 40 672 c 2,132,-1
 40 640 l 1,133,-1
 42 621 l 1,134,135
 46 610 46 610 46 581 c 1,136,-1
 71 575 l 1,137,-1
 71 574 l 1,138,139
 82 567 82 567 88.5 562.5 c 128,-1,140
 95 558 95 558 97.5 556.5 c 128,-1,141
 100 555 100 555 103 549 c 1,142,-1
 105 549 l 1,143,-1
 117 532 l 1,144,-1
 118 532 l 1,145,-1
 131 513 l 1,146,147
 131 506 131 506 144 480 c 0,148,149
 145 479 145 479 146 479 c 0,150,151
 148 469 148 469 148 468 c 2,152,-1
 148 459 l 1,153,-1
 149 445 l 1,154,-1
 148 406 l 1,155,-1
 148 400 l 1,156,-1
 150 398 l 1,157,158
 150 396 150 396 149 395 c 1,159,-1
 152 386 l 1,160,-1
 152 284 l 1,161,-1
 153 283 l 1,162,163
 153 278 153 278 155 272 c 1,164,165
 155 258 155 258 151 251 c 1,166,-1
 143 209 l 1,167,168
 143 201 143 201 140 201 c 1,169,-1
 138 191 l 1,170,-1
 137 191 l 1,171,172
 135 184 135 184 126 172 c 128,-1,173
 117 160 117 160 108.5 153 c 128,-1,174
 100 146 100 146 96 143 c 128,-1,175
 92 140 92 140 77.5 134 c 128,-1,176
 63 128 63 128 57 125 c 1,177,-1
 57 124 l 1,65,66
128 467 m 1,178,-1
 134 452 l 1,179,180
 133 451 133 451 133 449 c 2,181,-1
 135 442 l 1,182,183
 134 441 134 441 134 439 c 2,184,-1
 138 404 l 1,185,-1
 140 390 l 1,186,187
 142 390 142 390 142 394.5 c 128,-1,188
 142 399 142 399 141 400 c 2,189,-1
 140 426 l 2,190,191
 140 434 140 434 133 476 c 1,192,-1
 129 484 l 1,193,-1
 125 496 l 1,194,-1
 124 502 l 1,195,-1
 122 507 l 1,196,197
 120 507 120 507 119 513 c 1,198,-1
 118 509 l 1,199,-1
 119 509 l 1,200,201
 128 491 128 491 128 467 c 1,178,-1
132 210 m 1,202,-1
 133 210 l 1,203,204
 133 211 133 211 138 226 c 1,205,206
 138 233 138 233 139 234 c 1,207,-1
 141 234 l 1,208,-1
 140 266 l 1,209,210
 141 267 141 267 141 268 c 2,211,-1
 141 281 l 2,212,213
 141 284 141 284 139 286 c 1,214,215
 137 275 137 275 135 232 c 1,216,217
 132 221 132 221 132 210 c 1,202,-1
112 523 m 1,218,-1
 116 516 l 1,219,-1
 116 514 l 1,220,-1
 118 513 l 1,221,222
 116 521 116 521 113 522 c 1,223,-1
 112 523 l 1,218,-1
EndSplineSet
EndChar

StartChar: asterisk
Encoding: 42 42 13
Width: 367
GlyphClass: 2
Flags: W
LayerCount: 2
Fore
SplineSet
93 533 m 1,0,1
 87 536 87 536 87 540 c 1,2,-1
 77 550 l 1,3,-1
 78 551 l 2,4,5
 78 552 78 552 73 553 c 1,6,-1
 74 554 l 1,7,-1
 32 601 l 1,8,-1
 27 603 l 1,9,10
 26 608 26 608 26 610 c 128,-1,11
 26 612 26 612 27 612 c 2,12,-1
 22 618 l 2,13,14
 23 618 23 618 24 619 c 1,15,-1
 27 618 l 1,16,17
 33 618 33 618 36 625 c 1,18,-1
 44 635 l 1,19,-1
 43 635 l 1,20,-1
 51 645 l 1,21,-1
 52 644 l 1,22,-1
 62 654 l 1,23,24
 62 656 62 656 65 656 c 1,25,-1
 75 667 l 1,26,27
 76 672 76 672 85 680 c 1,28,-1
 87 678 l 1,29,-1
 104 697 l 2,30,31
 104 696 104 696 105 696 c 128,-1,32
 106 696 106 696 110 700 c 1,33,34
 127 683 127 683 133 680 c 1,35,-1
 147 666 l 1,36,-1
 148 667 l 1,37,-1
 157 657 l 2,38,39
 159 656 159 656 166 648 c 128,-1,40
 173 640 173 640 179 636 c 1,41,-1
 180 636 l 1,42,-1
 189 629 l 1,43,-1
 224 664 l 1,44,-1
 225 663 l 2,45,46
 225 664 225 664 240.5 678 c 128,-1,47
 256 692 256 692 262 698 c 1,48,49
 263 695 263 695 266 694 c 1,50,-1
 264 692 l 1,51,52
 272 690 272 690 274 685.5 c 128,-1,53
 276 681 276 681 277 680 c 1,54,-1
 277 681 l 1,55,56
 296 665 296 665 306 652 c 0,57,58
 323 632 323 632 334 626 c 1,59,-1
 334 624 l 1,60,-1
 342 616 l 1,61,-1
 341 615 l 1,62,63
 342 614 342 614 343 614 c 2,64,-1
 346 615 l 1,65,-1
 346 612 l 2,66,67
 346 609 346 609 347 609 c 2,68,-1
 319 577 l 1,69,-1
 319 576 l 2,70,71
 319 571 319 571 304 558 c 0,72,73
 286 543 286 543 281 535 c 1,74,-1
 282 535 l 1,75,-1
 280 532 l 2,76,77
 280 531 280 531 285 526 c 128,-1,78
 290 521 290 521 292 520 c 1,79,-1
 291 519 l 1,80,81
 309 496 309 496 326 482 c 1,82,-1
 325 482 l 1,83,84
 328 475 328 475 332 474 c 1,85,-1
 331 473 l 1,86,87
 334 470 334 470 337.5 467 c 128,-1,88
 341 464 341 464 342.5 462.5 c 128,-1,89
 344 461 344 461 345.5 459 c 128,-1,90
 347 457 347 457 348 456 c 0,91,92
 349 453 349 453 349 448 c 1,93,94
 346 442 346 442 321 417 c 1,95,-1
 292 390 l 2,96,97
 290 388 290 388 285.5 383 c 128,-1,98
 281 378 281 378 279 376 c 1,99,-1
 278 377 l 1,100,-1
 273 370 l 1,101,-1
 272 371 l 1,102,-1
 266 364 l 1,103,-1
 266 365 l 1,104,105
 262 364 262 364 259 361 c 1,106,107
 243 377 243 377 234 384 c 1,108,-1
 202 414 l 2,109,110
 201 414 201 414 198 417 c 1,111,-1
 198 416 l 1,112,113
 195 420 195 420 189 425.5 c 128,-1,114
 183 431 183 431 181 433 c 1,115,116
 175 430 175 430 165 418.5 c 128,-1,117
 155 407 155 407 151 406 c 1,118,-1
 150 407 l 1,119,-1
 113 370 l 1,120,121
 104 373 104 373 85 392 c 128,-1,122
 66 411 66 411 61 414 c 1,123,-1
 53 421 l 1,124,-1
 54 422 l 1,125,126
 46 422 46 422 35 441 c 1,127,-1
 33 439 l 1,128,129
 31 440 31 440 27.5 444 c 128,-1,130
 24 448 24 448 22 449 c 1,131,-1
 25 453 l 1,132,-1
 24 454 l 1,133,-1
 43 472 l 1,134,135
 43 477 43 477 47 477 c 1,136,-1
 46 478 l 1,137,-1
 68 500 l 1,138,-1
 67 501 l 1,139,-1
 87 521 l 1,140,-1
 86 522 l 1,141,142
 87 525 87 525 92 527 c 1,143,-1
 90 529 l 1,144,-1
 93 533 l 1,0,1
115.5 682.5 m 128,-1,146
 114 684 114 684 114 686 c 128,-1,147
 114 688 114 688 115 691 c 1,148,-1
 114 692 l 1,149,-1
 102 680 l 1,150,-1
 107 680 l 1,151,152
 96 669 96 669 90 668 c 1,153,-1
 69 644 l 2,154,155
 69 645 69 645 70 646 c 1,156,157
 37 617 37 617 37 610 c 0,158,159
 37 609 37 609 40 609 c 1,160,-1
 40 607 l 1,161,-1
 55 590 l 1,162,-1
 56 586 l 2,163,164
 56 585 56 585 60 585 c 1,165,-1
 89 553 l 1,166,-1
 96 546 l 1,167,-1
 96 547 l 1,168,169
 102 536 102 536 107 531 c 1,170,171
 104 525 104 525 104 522 c 0,172,173
 102 516 102 516 99 516 c 1,174,-1
 99 517 l 1,175,-1
 70 486 l 1,176,177
 70 481 70 481 63 477 c 1,178,-1
 53 465 l 1,179,180
 53 468 53 468 54 469 c 1,181,182
 52 467 52 467 46 463 c 0,183,184
 29 452 29 452 29 450 c 1,185,-1
 40 455 l 1,186,187
 53 435 53 435 78.5 410 c 128,-1,188
 104 385 104 385 113 385 c 128,-1,189
 122 385 122 385 126 400 c 1,190,191
 140 413 140 413 150.5 422.5 c 128,-1,192
 161 432 161 432 163 435 c 128,-1,193
 165 438 165 438 169 441 c 128,-1,194
 173 444 173 444 173.5 444 c 128,-1,195
 174 444 174 444 183 447 c 1,196,197
 196 434 196 434 205 429.5 c 128,-1,198
 214 425 214 425 214 424 c 128,-1,199
 214 423 214 423 205 423 c 1,200,201
 209 422 209 422 215 417 c 2,202,-1
 228 405 l 2,203,204
 259 376 259 376 261 376 c 1,205,-1
 313 425 l 1,206,-1
 337 451 l 1,207,208
 322 461 322 461 305 487 c 1,209,-1
 307 486 l 1,210,-1
 267 530 l 1,211,212
 267 533 267 533 268 534 c 2,213,-1
 270 540 l 1,214,-1
 280 550 l 1,215,-1
 278 550 l 1,216,217
 278 551 278 551 282 555 c 2,218,-1
 298 572 l 1,219,220
 328 594 328 594 328 611 c 2,221,-1
 328 613 l 1,222,-1
 327 615 l 1,223,-1
 327 617 l 1,224,225
 325 620 325 620 320 624 c 1,226,-1
 319 624 l 2,227,228
 315 624 315 624 314 626 c 0,229,230
 303 640 303 640 296 647 c 2,231,-1
 278 664 l 1,232,233
 270 670 270 670 266.5 673.5 c 128,-1,234
 263 677 263 677 261.5 678 c 128,-1,235
 260 679 260 679 259 680 c 128,-1,236
 258 681 258 681 257 681 c 128,-1,237
 256 681 256 681 256 682 c 1,238,239
 249 682 249 682 241 665 c 1,240,-1
 242 664 l 1,241,-1
 223 647 l 1,242,243
 209 633 209 633 207 633 c 1,244,-1
 187 614 l 1,245,246
 190 614 190 614 174.5 627.5 c 128,-1,247
 159 641 159 641 155 642 c 1,248,-1
 148 650 l 1,249,-1
 138 657 l 1,250,251
 128 677 128 677 122.5 679 c 128,-1,145
 117 681 117 681 115.5 682.5 c 128,-1,146
327 615 m 1,252,-1
 328 614 l 1,253,-1
 327 615 l 1,252,-1
EndSplineSet
EndChar

StartChar: plus
Encoding: 43 43 14
Width: 445
GlyphClass: 2
Flags: W
LayerCount: 2
Fore
SplineSet
289 520 m 1,0,-1
 291 516 l 1,1,-1
 297 518 l 1,2,-1
 299 515 l 1,3,-1
 299 510 l 1,4,5
 300 509 300 509 300 505 c 2,6,-1
 298 489 l 2,7,8
 298 485 298 485 299 484 c 1,9,-1
 300 484 l 1,10,11
 300 483 300 483 299 482 c 1,12,-1
 300 459 l 1,13,-1
 301 459 l 1,14,15
 301 453 301 453 300.5 444 c 128,-1,16
 300 435 300 435 301 408 c 1,17,-1
 302 397 l 2,18,19
 302 396 302 396 303 395 c 1,20,-1
 322 396 l 1,21,22
 323 395 323 395 328 395 c 2,23,-1
 343 395 l 2,24,25
 354 395 354 395 362 394 c 2,26,-1
 377 392 l 1,27,-1
 377 393 l 1,28,29
 378 393 378 393 379 392 c 1,30,-1
 380 392 l 1,31,32
 387 393 387 393 393 393 c 2,33,-1
 420 392 l 1,34,35
 419 391 419 391 419 385 c 1,36,-1
 417 385 l 1,37,-1
 419 375 l 1,38,39
 418 374 418 374 418 364 c 1,40,-1
 419 364 l 1,41,42
 418 363 418 363 418 355 c 2,43,-1
 418 354 l 2,44,45
 418 353 418 353 419 352 c 1,46,-1
 418 351 l 1,47,-1
 419 351 l 1,48,-1
 419 330 l 2,49,50
 419 310 419 310 420 302.5 c 128,-1,51
 421 295 421 295 420 294 c 2,52,-1
 419 273 l 2,53,54
 419 272 419 272 418 271 c 2,55,-1
 416 257 l 2,56,57
 416 255 416 255 420 253 c 1,58,59
 420 247 420 247 393 247 c 2,60,-1
 314 247 l 1,61,-1
 309 242 l 1,62,-1
 302 241 l 1,63,-1
 298 240 l 1,64,65
 298 238 298 238 300 231 c 1,66,-1
 294 149 l 1,67,-1
 292 149 l 1,68,-1
 292 137 l 2,69,70
 292 118 292 118 286 115 c 1,71,-1
 272 113 l 2,72,73
 271 112 271 112 262 112 c 128,-1,74
 253 112 253 112 193 115 c 1,75,-1
 171 114 l 1,76,-1
 171 115 l 1,77,-1
 161 114 l 1,78,-1
 150 116 l 1,79,80
 141 116 141 116 141 124 c 1,81,-1
 139 129 l 1,82,-1
 140 134 l 1,83,84
 138 154 138 154 138 181 c 2,85,-1
 138 213 l 1,86,-1
 137 240 l 1,87,88
 116 244 116 244 44 244 c 2,89,-1
 30 244 l 1,90,91
 28 246 28 246 23 252 c 1,92,-1
 24 286 l 2,93,94
 24 310 24 310 21 324 c 1,95,-1
 21 366 l 1,96,-1
 20 366 l 1,97,-1
 19 380 l 2,98,99
 19 383 19 383 19.5 384 c 128,-1,100
 20 385 20 385 25 385 c 1,101,-1
 25 386 l 1,102,-1
 31 385 l 1,103,-1
 42 386 l 2,104,105
 43 387 43 387 49 387 c 1,106,-1
 54 386 l 1,107,108
 57 387 57 387 59 387 c 128,-1,109
 61 387 61 387 61 386 c 2,110,-1
 63 387 l 1,111,112
 75 387 75 387 82 388 c 2,113,-1
 104 389 l 2,114,115
 125 390 125 390 141 392 c 1,116,-1
 141 393 l 1,117,118
 144 393 144 393 145 394 c 1,119,-1
 145 405 l 1,120,-1
 148 439 l 2,121,122
 148 449 148 449 149 451 c 1,123,-1
 149 459 l 1,124,125
 146 468 146 468 146 473 c 2,126,-1
 146 475 l 1,127,-1
 148 475 l 1,128,-1
 151 501 l 1,129,-1
 152 501 l 1,130,-1
 151 507 l 1,131,-1
 151 508 l 2,132,133
 151 510 151 510 157 522 c 1,134,-1
 160 522 l 1,135,136
 166 515 166 515 170 515 c 128,-1,137
 174 515 174 515 175 516 c 2,138,-1
 241 519 l 1,139,-1
 259 521 l 1,140,-1
 259 518 l 1,141,-1
 278 518 l 1,142,-1
 289 520 l 1,0,-1
396 375 m 1,143,-1
 380 372 l 1,144,-1
 359 372 l 1,145,-1
 309 374 l 1,146,-1
 290 374 l 1,147,148
 290 377 290 377 289 378 c 1,149,-1
 289 387 l 1,150,151
 288 388 288 388 284 388 c 1,152,-1
 283 499 l 1,153,-1
 281 499 l 1,154,-1
 281 503 l 2,155,156
 281 506 281 506 258 506 c 2,157,-1
 226 505 l 1,158,-1
 179 505 l 1,159,160
 176 503 176 503 170.5 501 c 128,-1,161
 165 499 165 499 164 488.5 c 128,-1,162
 163 478 163 478 163 435.5 c 128,-1,163
 163 393 163 393 163 378 c 1,164,-1
 161 378 l 1,165,-1
 161 376 l 1,166,-1
 151 378 l 1,167,-1
 150 377 l 1,168,-1
 128 374 l 1,169,170
 62 367 62 367 58 367 c 2,171,-1
 40 367 l 1,172,-1
 38 331 l 1,173,-1
 36 330 l 1,174,-1
 37 328 l 2,175,176
 38 328 38 328 38 326 c 2,177,-1
 37 320 l 1,178,-1
 37 305 l 2,179,180
 37 304 37 304 38 303 c 1,181,-1
 36 301 l 1,182,183
 36 299 36 299 38 299 c 1,184,-1
 38 294 l 1,185,-1
 39 278 l 1,186,187
 38 277 38 277 38 265 c 1,188,-1
 47 262 l 1,189,-1
 59 262 l 1,190,191
 69 260 69 260 99 260 c 2,192,-1
 144 260 l 2,193,194
 147 260 147 260 165 257 c 1,195,-1
 166 247 l 2,196,197
 166 239 166 239 162 206 c 1,198,-1
 165 136 l 1,199,200
 168 133 168 133 236 133 c 0,201,202
 260 133 260 133 267 134 c 1,203,-1
 268 135 l 1,204,205
 269 142 269 142 270.5 164.5 c 128,-1,206
 272 187 272 187 275 197 c 1,207,-1
 276 208 l 1,208,-1
 275 227 l 1,209,-1
 276 237 l 1,210,211
 276 264 276 264 283 264 c 1,212,-1
 285 262 l 1,213,-1
 292 263 l 1,214,215
 344 263 344 263 355 262 c 1,216,-1
 395 262 l 1,217,218
 398 266 398 266 398 268 c 2,219,-1
 397 275 l 2,220,221
 397 279 397 279 398 280 c 1,222,-1
 399 280 l 1,223,-1
 399 367 l 1,224,-1
 400 370 l 1,225,-1
 401 370 l 1,226,227
 403 372 403 372 403 374 c 1,228,-1
 396 375 l 1,143,-1
EndSplineSet
EndChar

StartChar: comma
Encoding: 44 44 15
Width: 188
GlyphClass: 2
Flags: W
LayerCount: 2
Fore
SplineSet
84 -99 m 1,0,-1
 75 -100 l 1,1,-1
 73 -100 l 1,2,3
 73 -99 73 -99 74 -98 c 1,4,-1
 71 -98 l 1,5,-1
 71 -77 l 1,6,-1
 73 -75 l 1,7,-1
 74 -61 l 2,8,9
 76 -47 76 -47 77.5 -31 c 128,-1,10
 79 -15 79 -15 80 -11 c 2,11,-1
 81 -1 l 1,12,-1
 80 3 l 1,13,-1
 68 2 l 1,14,-1
 49 2 l 1,15,-1
 49 3 l 1,16,17
 38 3 38 3 37 2 c 1,18,-1
 37 4 l 1,19,20
 33 7 33 7 33 8 c 2,21,-1
 31 49 l 1,22,-1
 33 81 l 1,23,24
 36 91 36 91 39 112 c 1,25,-1
 38 112 l 1,26,27
 35 115 35 115 35 116 c 2,28,-1
 36 117 l 1,29,30
 36 120 36 120 46 123.5 c 128,-1,31
 56 127 56 127 65 127 c 2,32,-1
 117 123 l 1,33,-1
 144 125 l 2,34,35
 154 125 154 125 159 120 c 1,36,-1
 161 108 l 1,37,-1
 160 108 l 1,38,-1
 155 47 l 1,39,-1
 156 47 l 1,40,41
 156 46 156 46 155 45 c 1,42,-1
 155 5 l 1,43,-1
 153 5 l 1,44,-1
 151 -3 l 1,45,-1
 152 -5 l 1,46,-1
 153 -17 l 1,47,48
 153 -34 153 -34 144 -83 c 1,49,50
 145 -84 145 -84 145 -92 c 128,-1,51
 145 -100 145 -100 141 -100 c 128,-1,52
 137 -100 137 -100 136 -99 c 1,53,-1
 134 -100 l 1,54,55
 133 -99 133 -99 84 -99 c 1,0,-1
79 13 m 1,56,-1
 89 14 l 1,57,-1
 90 15 l 1,58,-1
 89 12 l 1,59,-1
 88 -4 l 1,60,-1
 89 -4 l 1,61,62
 89 -30 89 -30 85.5 -57 c 128,-1,63
 82 -84 82 -84 82 -89 c 1,64,65
 83 -90 83 -90 88 -90 c 128,-1,66
 93 -90 93 -90 104 -89 c 1,67,-1
 132 -91 l 1,68,-1
 133 -91 l 1,69,-1
 132 -88 l 1,70,-1
 133 -88 l 1,71,72
 135 -78 135 -78 138.5 -48.5 c 128,-1,73
 142 -19 142 -19 143 -11 c 2,74,-1
 145 5 l 1,75,-1
 144 10 l 1,76,-1
 148 63 l 2,77,78
 148 64 148 64 149 65 c 1,79,-1
 148 65 l 1,80,81
 147 73 147 73 147 81 c 2,82,-1
 147 96 l 1,83,-1
 145 105 l 1,84,-1
 127 104 l 1,85,-1
 94 108 l 2,86,87
 92 108 92 108 89 107 c 1,88,-1
 64 108 l 2,89,90
 55 108 55 108 53 109 c 1,91,-1
 47 108 l 2,92,93
 46 107 46 107 46 96 c 2,94,-1
 47 47 l 1,95,-1
 48 30 l 1,96,-1
 48 20 l 1,97,-1
 49 14 l 2,98,99
 49 12 49 12 52 12 c 2,100,-1
 59 12 l 1,101,-1
 79 14 l 1,102,-1
 79 13 l 1,56,-1
EndSplineSet
EndChar

StartChar: hyphen
Encoding: 45 45 16
Width: 521
GlyphClass: 2
Flags: W
LayerCount: 2
Fore
SplineSet
516 275 m 1,0,1
 516 246 516 246 514 228 c 1,2,-1
 515 228 l 2,3,4
 517 228 517 228 518 224 c 2,5,-1
 519 209 l 1,6,-1
 519 206 l 1,7,-1
 520 196 l 1,8,-1
 519 195 l 1,9,10
 515 195 515 195 512 204 c 1,11,-1
 461 200 l 1,12,-1
 402 200 l 1,13,-1
 402 197 l 1,14,-1
 359 196 l 1,15,-1
 296 196 l 2,16,17
 255 196 255 196 235 195 c 1,18,-1
 235 193 l 1,19,-1
 181 191 l 1,20,-1
 181 189 l 1,21,-1
 165 189 l 1,22,-1
 48 191 l 1,23,24
 48 193 48 193 43 197 c 128,-1,25
 38 201 38 201 36 207 c 1,26,-1
 38 207 l 1,27,-1
 38 226 l 1,28,-1
 36 226 l 1,29,-1
 37 227 l 1,30,31
 37 229 37 229 38 230 c 1,32,-1
 36 231 l 1,33,-1
 38 240 l 1,34,-1
 38 340 l 2,35,36
 38 345 38 345 39.5 346.5 c 128,-1,37
 41 348 41 348 43 352 c 1,38,-1
 39 356 l 1,39,40
 42 359 42 359 48 359 c 2,41,-1
 130 364 l 2,42,43
 141 364 141 364 141 362 c 1,44,-1
 140 361 l 1,45,-1
 351 361 l 1,46,-1
 396 365 l 1,47,-1
 423 367 l 1,48,-1
 423 365 l 1,49,-1
 509 371 l 1,50,-1
 519 361 l 1,51,52
 517 359 517 359 517 357 c 2,53,-1
 515 340 l 1,54,55
 515 296 515 296 518 275 c 1,56,-1
 516 275 l 1,0,1
479 241 m 2,57,-1
 478 255 l 2,58,59
 478 260 478 260 479 261 c 1,60,-1
 480 261 l 1,61,-1
 483 296 l 1,62,-1
 483 304 l 1,63,-1
 479 328 l 1,64,-1
 480 341 l 2,65,66
 480 346 480 346 479 347 c 1,67,68
 471 345 471 345 470 345 c 2,69,-1
 118 339 l 1,70,-1
 118 337 l 1,71,72
 110 336 110 336 101 335.5 c 128,-1,73
 92 335 92 335 87.5 334.5 c 128,-1,74
 83 334 83 334 77.5 333 c 128,-1,75
 72 332 72 332 70 331.5 c 128,-1,76
 68 331 68 331 66 329 c 0,77,78
 62 326 62 326 62 319 c 2,79,-1
 62 308 l 2,80,81
 62 290 62 290 63 272.5 c 128,-1,82
 64 255 64 255 63 254 c 1,83,-1
 64 248 l 1,84,-1
 63 243 l 1,85,-1
 63 236 l 2,86,87
 63 219 63 219 72 219 c 2,88,-1
 121 218 l 1,89,-1
 202 219 l 1,90,-1
 249 222 l 1,91,-1
 251 223 l 1,92,-1
 262 222 l 1,93,-1
 433 222 l 1,94,-1
 465 224 l 1,95,-1
 466 226 l 1,96,-1
 466 224 l 1,97,-1
 473 226 l 1,98,99
 468 228 468 228 461 230 c 1,100,101
 479 230 479 230 479 241 c 2,57,-1
456 228 m 1,102,-1
 452 227 l 2,103,104
 449 227 449 227 445 231 c 1,105,106
 451 231 451 231 452 230 c 1,107,-1
 456 230 l 1,108,-1
 456 228 l 1,102,-1
457 228 m 1,109,-1
 457 230 l 1,110,-1
 460 230 l 1,111,112
 458 228 458 228 457 228 c 1,109,-1
EndSplineSet
EndChar

StartChar: period
Encoding: 46 46 17
Width: 189
GlyphClass: 2
Flags: W
LayerCount: 2
Fore
SplineSet
156 120 m 1,0,-1
 156 105 l 1,1,-1
 154 89 l 1,2,3
 154 89 154 89 153 53 c 1,4,-1
 153 41 l 1,5,-1
 152 34 l 1,6,-1
 153 27 l 1,7,8
 152 26 152 26 152 5 c 1,9,-1
 150 5 l 1,10,-1
 150 1 l 1,11,-1
 143 -2 l 1,12,13
 140 3 140 3 132 3 c 2,14,-1
 131 3 l 1,15,-1
 120 1 l 1,16,-1
 111 1 l 1,17,18
 105 -1 105 -1 90.5 -1 c 128,-1,19
 76 -1 76 -1 65 2 c 1,20,-1
 61 1 l 1,21,22
 50 2 50 2 37 2 c 2,23,-1
 34 2 l 1,24,-1
 34 4 l 1,25,26
 30 7 30 7 30 8 c 2,27,-1
 30 23 l 1,28,29
 29 24 29 24 29 40 c 2,30,-1
 28 63 l 1,31,-1
 30 81 l 1,32,33
 33 91 33 91 36 112 c 1,34,35
 32 113 32 113 32 117 c 1,36,-1
 35 121 l 1,37,-1
 42 123 l 1,38,39
 46 127 46 127 60 127 c 1,40,-1
 114 123 l 1,41,-1
 143 124 l 2,42,43
 152 124 152 124 156 120 c 1,0,-1
145 54 m 1,44,-1
 145 65 l 1,45,46
 144 81 144 81 144 96 c 2,47,-1
 144 99 l 2,48,49
 144 103 144 103 142 105 c 1,50,-1
 124 104 l 1,51,-1
 104 107 l 1,52,-1
 91 107 l 1,53,-1
 91 108 l 1,54,55
 89 108 89 108 86 107 c 1,56,-1
 86 108 l 1,57,58
 52 108 52 108 50 109 c 1,59,-1
 44 108 l 2,60,61
 43 107 43 107 43 96 c 2,62,-1
 43 23 l 1,63,64
 44 22 44 22 44 18 c 0,65,66
 44 12 44 12 56 12 c 2,67,-1
 81 13 l 1,68,69
 97 15 97 15 116 15 c 1,70,-1
 143 19 l 2,71,72
 144 20 144 20 144 30 c 2,73,-1
 145 54 l 1,44,-1
EndSplineSet
EndChar

StartChar: slash
Encoding: 47 47 18
Width: 412
GlyphClass: 2
Flags: W
LayerCount: 2
Fore
SplineSet
24 5 m 1,0,-1
 22 1 l 1,1,2
 20 1 20 1 20 6 c 128,-1,3
 20 11 20 11 24 25 c 128,-1,4
 28 39 28 39 32.5 51.5 c 128,-1,5
 37 64 37 64 42 77 c 128,-1,6
 47 90 47 90 47 91 c 2,7,-1
 63 135 l 2,8,9
 73 165 73 165 77.5 174 c 128,-1,10
 82 183 82 183 84 195 c 0,11,12
 90 221 90 221 99 228 c 1,13,-1
 101 234 l 2,14,15
 100 234 100 234 100 236 c 1,16,17
 107 243 107 243 107 253 c 2,18,-1
 107 255 l 1,19,20
 108 255 108 255 109 254 c 1,21,22
 132 322 132 322 134 324 c 1,23,-1
 132 325 l 1,24,25
 143 345 143 345 155 384 c 128,-1,26
 167 423 167 423 174 441 c 128,-1,27
 181 459 181 459 194.5 502.5 c 128,-1,28
 208 546 208 546 210.5 550.5 c 128,-1,29
 213 555 213 555 225 590.5 c 128,-1,30
 237 626 237 626 237 631 c 1,31,-1
 239 635 l 1,32,-1
 241 642 l 1,33,-1
 245 654 l 1,34,-1
 252 680 l 2,35,36
 253 681 253 681 253 691 c 1,37,-1
 254 691 l 1,38,39
 254 693 254 693 253 694 c 1,40,41
 254 694 254 694 255 695 c 1,42,-1
 255 699 l 1,43,44
 257 701 257 701 258 707 c 1,45,46
 265 703 265 703 285.5 703 c 128,-1,47
 306 703 306 703 343 704 c 1,48,-1
 345 703 l 1,49,50
 362 706 362 706 381 706 c 1,51,52
 382 705 382 705 382 701 c 1,53,-1
 381 698 l 1,54,-1
 382 698 l 1,55,56
 384 701 384 701 388 701 c 1,57,-1
 389 696 l 1,58,-1
 388 696 l 1,59,60
 387 695 387 695 387 685 c 1,61,-1
 378 660 l 1,62,-1
 373 648 l 1,63,-1
 371 642 l 1,64,-1
 371 637 l 1,65,-1
 370 637 l 2,66,67
 369 637 369 637 362 614 c 0,68,69
 341 538 341 538 329 504 c 128,-1,70
 317 470 317 470 270 333 c 128,-1,71
 223 196 223 196 208.5 155.5 c 128,-1,72
 194 115 194 115 187.5 104.5 c 128,-1,73
 181 94 181 94 181 89 c 1,74,-1
 160 35 l 1,75,76
 160 30 160 30 157 27 c 1,77,78
 157 25 157 25 148 10 c 1,79,-1
 147 16 l 1,80,-1
 145 11 l 1,81,-1
 144 11 l 1,82,83
 144 7 144 7 143 6 c 1,84,-1
 148 6 l 1,85,86
 144 2 144 2 141 3 c 128,-1,87
 138 4 138 4 136 3 c 1,88,-1
 136 2 l 1,89,-1
 115 3 l 1,90,-1
 107 4 l 1,91,-1
 107 3 l 1,92,-1
 101 4 l 2,93,94
 101 3 101 3 100 2 c 1,95,-1
 98 2 l 1,96,-1
 98 4 l 1,97,-1
 64 3 l 2,98,99
 49 3 49 3 48 4 c 1,100,-1
 47 3 l 1,101,-1
 33 2 l 1,102,-1
 24 5 l 1,0,-1
190 171 m 2,103,104
 190 173 190 173 194 182 c 1,105,-1
 195 182 l 1,106,-1
 202 208 l 1,107,-1
 203 208 l 1,108,109
 218 252 218 252 218 253 c 2,110,-1
 220 257 l 1,111,-1
 222 259 l 1,112,-1
 234 292 l 1,113,-1
 236 300 l 1,114,-1
 237 300 l 1,115,116
 245 324 245 324 248 336 c 1,117,-1
 250 338 l 1,118,119
 251 348 251 348 253 351 c 1,120,-1
 254 351 l 1,121,122
 255 352 255 352 255 354 c 1,123,124
 260 359 260 359 263.5 372.5 c 128,-1,125
 267 386 267 386 267 387 c 2,126,-1
 268 390 l 1,127,128
 270 390 270 390 273 399 c 2,129,-1
 278 414 l 1,130,-1
 279 422 l 1,131,-1
 280 422 l 1,132,-1
 282 434 l 1,133,-1
 294 467 l 1,134,-1
 300 485 l 2,135,136
 301 486 301 486 301 491 c 1,137,-1
 302 491 l 1,138,139
 310 521 310 521 313 527 c 128,-1,140
 316 533 316 533 316 537 c 1,141,-1
 319 543 l 1,142,143
 319 551 319 551 334 588 c 1,144,-1
 352 640 l 1,145,-1
 353 646 l 2,146,147
 354 647 354 647 354 653 c 1,148,149
 365 682 365 682 368 697 c 1,150,-1
 355 697 l 1,151,-1
 352 696 l 1,152,153
 342 698 342 698 312 698 c 128,-1,154
 282 698 282 698 278 694 c 1,155,-1
 269 680 l 1,156,-1
 259 653 l 1,157,158
 257 639 257 639 255 634 c 1,159,-1
 254 634 l 1,160,161
 254 628 254 628 253 627 c 2,162,-1
 245 600 l 1,163,-1
 244 598 l 2,164,165
 243 597 243 597 243 591 c 1,166,-1
 224 541 l 1,167,-1
 222 535 l 1,168,-1
 220 530 l 1,169,-1
 213 506 l 1,170,-1
 213 504 l 1,171,172
 212 503 212 503 211 503 c 2,173,-1
 200 462 l 1,174,175
 197 460 197 460 197 453 c 1,176,-1
 190 431 l 1,177,178
 184 420 184 420 184 418.5 c 128,-1,179
 184 417 184 417 185 416 c 1,180,181
 182 413 182 413 182 408 c 1,182,-1
 180 406 l 1,183,-1
 161 350 l 2,184,185
 160 345 160 345 157.5 342.5 c 128,-1,186
 155 340 155 340 155 339 c 2,187,-1
 154 332 l 1,188,-1
 140 300 l 2,189,190
 139 299 139 299 139 295 c 1,191,-1
 135 285 l 1,192,193
 131 278 131 278 131 272 c 1,194,195
 128 269 128 269 128 264 c 1,196,-1
 110 220 l 1,197,-1
 109 213 l 1,198,-1
 108 213 l 1,199,200
 108 210 108 210 107 209 c 2,201,-1
 96 184 l 1,202,203
 86 154 86 154 86 148 c 1,204,-1
 84 143 l 1,205,-1
 83 143 l 1,206,207
 82 141 82 141 82 138.5 c 128,-1,208
 82 136 82 136 81 135 c 2,209,-1
 79 127 l 1,210,-1
 66 91 l 1,211,-1
 65 89 l 1,212,-1
 64 83 l 1,213,-1
 43 27 l 1,214,-1
 40 13 l 1,215,-1
 60 14 l 1,216,-1
 60 15 l 1,217,-1
 69 14 l 1,218,219
 127 16 127 16 137 17 c 1,220,-1
 140 28 l 1,221,-1
 142 34 l 1,222,-1
 143 38 l 1,223,-1
 145 38 l 1,224,-1
 158 78 l 2,225,226
 159 82 159 82 161 87.5 c 128,-1,227
 163 93 163 93 163 95 c 2,228,-1
 164 99 l 2,229,230
 165 99 165 99 166 104 c 0,231,232
 172 123 172 123 183 150 c 2,233,-1
 189 165 l 1,234,-1
 190 171 l 2,103,104
132 321 m 1,235,-1
 131 321 l 1,236,-1
 132 322 l 1,237,-1
 132 321 l 1,235,-1
EndSplineSet
EndChar

StartChar: zero
Encoding: 48 48 19
Width: 513
GlyphClass: 2
Flags: W
LayerCount: 2
Fore
SplineSet
56 141 m 1,0,-1
 54 149 l 1,1,-1
 52 149 l 1,2,-1
 52 153 l 1,3,-1
 39 188 l 1,4,-1
 37 201 l 1,5,-1
 37 204 l 1,6,-1
 35 204 l 1,7,-1
 33 217 l 1,8,-1
 32 228 l 1,9,-1
 30 228 l 1,10,-1
 29 264 l 1,11,12
 25 268 25 268 25.5 274.5 c 128,-1,13
 26 281 26 281 26 283 c 1,14,-1
 27 283 l 1,15,16
 27 285 27 285 26 285 c 2,17,-1
 27 288 l 1,18,19
 27 298 27 298 26 305 c 2,20,-1
 24 345 l 1,21,-1
 32 389 l 1,22,-1
 32 407 l 2,23,24
 32 422 32 422 35 436 c 2,25,-1
 37 447 l 1,26,-1
 39 463 l 1,27,28
 42 478 42 478 42.5 484 c 128,-1,29
 43 490 43 490 43.5 493 c 128,-1,30
 44 496 44 496 44 498 c 2,31,-1
 44 500 l 1,32,-1
 46 509 l 1,33,-1
 48 524 l 1,34,-1
 54 543 l 1,35,36
 63 562 63 562 70 580 c 1,37,-1
 70 582 l 1,38,39
 78 590 78 590 78 593 c 128,-1,40
 78 596 78 596 80 596 c 1,41,42
 83 601 83 601 97 620 c 1,43,-1
 107 630 l 1,44,-1
 107 632 l 1,45,46
 109 634 109 634 110 634 c 1,47,-1
 110 637 l 1,48,-1
 117 643 l 1,49,-1
 117 645 l 1,50,-1
 126 654 l 1,51,-1
 135 662 l 1,52,-1
 135 665 l 1,53,54
 136 665 136 665 138.5 668 c 128,-1,55
 141 671 141 671 148 673 c 1,56,57
 148 675 148 675 149 675 c 2,58,-1
 151 675 l 1,59,-1
 168 684 l 1,60,-1
 174 686 l 1,61,-1
 179 688 l 1,62,-1
 179 690 l 1,63,-1
 208 697 l 1,64,-1
 224 698 l 1,65,-1
 224 700 l 1,66,-1
 256 701 l 1,67,68
 265 704 265 704 277 704 c 2,69,-1
 297 703 l 1,70,-1
 336 692 l 2,71,72
 340 690 340 690 345.5 686.5 c 128,-1,73
 351 683 351 683 368.5 677 c 128,-1,74
 386 671 386 671 387 668 c 1,75,-1
 393 666 l 1,76,-1
 396 662 l 1,77,-1
 420 641 l 1,78,-1
 420 638 l 1,79,-1
 422 638 l 1,80,81
 431 616 431 616 441 606 c 1,82,-1
 444 599 l 1,83,-1
 452 587 l 1,84,-1
 452 583 l 1,85,-1
 458 569 l 1,86,87
 472 532 472 532 475 517 c 1,88,-1
 475 509 l 1,89,90
 478 497 478 497 478 487 c 2,91,-1
 479 457 l 1,92,-1
 486 404 l 1,93,-1
 487 404 l 1,94,-1
 488 386 l 1,95,-1
 488 366 l 1,96,97
 487 365 487 365 487 362.5 c 128,-1,98
 487 360 487 360 486 360 c 2,99,-1
 488 341 l 1,100,101
 488 330 488 330 485 320 c 1,102,-1
 486 304 l 1,103,104
 481 277 481 277 479 273 c 1,105,-1
 479 265 l 1,106,107
 475 254 475 254 475 238 c 1,108,-1
 473 224 l 1,109,-1
 466 188 l 1,110,-1
 451 138 l 2,111,112
 449 134 449 134 447 132 c 2,113,-1
 428 93 l 1,114,115
 429 92 429 92 429 91 c 1,116,-1
 427 91 l 1,117,-1
 425 84 l 1,118,119
 405 64 405 64 391 45 c 1,120,-1
 389 44 l 1,121,-1
 385 43 l 1,122,-1
 357 31 l 2,123,124
 357 30 357 30 349.5 27 c 128,-1,125
 342 24 342 24 337 21 c 2,126,-1
 312 9 l 1,127,-1
 274 1 l 1,128,-1
 270 1 l 1,129,-1
 255 3 l 2,130,131
 248 3 248 3 225.5 5 c 128,-1,132
 203 7 203 7 203 9 c 1,133,-1
 194 11 l 1,134,-1
 150 26 l 1,135,136
 147 29 147 29 144 29 c 1,137,-1
 144 32 l 1,138,139
 137 36 137 36 127 46.5 c 128,-1,140
 117 57 117 57 112 60 c 1,141,-1
 112 62 l 1,142,-1
 108 65 l 1,143,-1
 108 68 l 1,144,-1
 86 90 l 1,145,-1
 86 93 l 1,146,-1
 81 96 l 1,147,-1
 81 98 l 1,148,-1
 76 105 l 1,149,-1
 75 105 l 1,150,151
 75 112 75 112 71 114.5 c 128,-1,152
 67 117 67 117 67 120 c 1,153,-1
 57 141 l 1,154,-1
 56 141 l 1,0,-1
401 119 m 2,155,156
 402 119 402 119 409 134 c 1,157,-1
 411 134 l 1,158,159
 411 142 411 142 415 142 c 1,160,-1
 429 177 l 1,161,-1
 432 179 l 1,162,-1
 443 227 l 1,163,-1
 444 227 l 1,164,165
 446 230 446 230 447 240 c 1,166,-1
 448 240 l 1,167,168
 448 260 448 260 455.5 307 c 128,-1,169
 463 354 463 354 464 366 c 2,170,-1
 465 386 l 1,171,-1
 466 386 l 1,172,-1
 466 390 l 2,173,174
 466 412 466 412 464 418 c 1,175,-1
 464 433 l 1,176,177
 463 433 463 433 463 439 c 2,178,-1
 459 464 l 2,179,180
 459 466 459 466 460 467 c 1,181,-1
 459 473 l 1,182,183
 456 473 456 473 456 479 c 2,184,-1
 457 494 l 2,185,186
 457 508 457 508 449 521 c 128,-1,187
 441 534 441 534 441 542 c 1,188,-1
 439 551 l 1,189,-1
 422 592 l 2,190,191
 421 592 421 592 420 593 c 1,192,-1
 420 595 l 1,193,194
 418 597 418 597 416 597 c 1,195,-1
 416 600 l 1,196,197
 415 600 415 600 413 602 c 1,198,-1
 413 604 l 1,199,200
 410 607 410 607 399 626 c 1,201,-1
 397 626 l 1,202,-1
 395 634 l 1,203,204
 393 634 393 634 390 637 c 1,205,-1
 388 642 l 1,206,-1
 351 666 l 1,207,-1
 351 667 l 1,208,209
 345 669 345 669 345 671 c 1,210,-1
 289 684 l 1,211,-1
 275 682 l 1,212,-1
 250 683 l 1,213,-1
 239 684 l 2,214,215
 231 684 231 684 229 682 c 1,216,-1
 179 672 l 1,217,218
 178 673 178 673 177 673 c 2,219,-1
 173 672 l 1,220,221
 138 653 138 653 136 651 c 1,222,223
 136 649 136 649 139 649 c 2,224,-1
 141 649 l 1,225,226
 137 645 137 645 130 643 c 1,227,-1
 128 640 l 1,228,-1
 125 640 l 1,229,230
 125 637 125 637 117 631 c 1,231,-1
 113 623 l 2,232,233
 112 623 112 623 111 622 c 1,234,-1
 111 620 l 1,235,236
 110 619 110 619 104 608.5 c 128,-1,237
 98 598 98 598 77 563 c 1,238,-1
 76 560 l 1,239,-1
 75 556 l 1,240,-1
 68 542 l 1,241,-1
 66 536 l 1,242,243
 64 534 64 534 64 529 c 1,244,-1
 62 523 l 1,245,-1
 51 464 l 1,246,247
 52 463 52 463 52 456 c 2,248,-1
 48 392 l 1,249,-1
 48 380 l 2,250,251
 48 372 48 372 49 371 c 1,252,253
 48 367 48 367 40 312 c 1,254,-1
 40 309 l 2,255,256
 40 303 40 303 43 273 c 1,257,-1
 45 273 l 1,258,-1
 47 250 l 1,259,-1
 48 244 l 2,260,261
 49 243 49 243 49 230 c 1,262,-1
 51 210 l 1,263,-1
 61 176 l 1,264,-1
 65 166 l 1,265,-1
 67 160 l 1,266,-1
 69 158 l 1,267,268
 69 148 69 148 76 138 c 128,-1,269
 83 128 83 128 84 128 c 2,270,-1
 87 120 l 1,271,-1
 90 119 l 1,272,-1
 99 104 l 1,273,274
 101 104 101 104 101.5 102 c 128,-1,275
 102 100 102 100 103 100 c 2,276,-1
 104 97 l 1,277,-1
 124 77 l 1,278,-1
 126 77 l 1,279,-1
 129 73 l 1,280,-1
 132 73 l 1,281,282
 140 64 140 64 145 62 c 1,283,-1
 147 62 l 1,284,-1
 148 59 l 1,285,-1
 150 59 l 1,286,-1
 163 51 l 1,287,-1
 163 50 l 1,288,-1
 164 50 l 1,289,290
 163 46 163 46 196 34 c 1,291,-1
 198 31 l 1,292,-1
 237 21 l 2,293,294
 243 19 243 19 260 19 c 1,295,-1
 268 20 l 1,296,-1
 268 21 l 1,297,-1
 290 23 l 1,298,-1
 321 32 l 1,299,300
 321 36 321 36 329 36 c 1,301,-1
 338 41 l 1,302,-1
 338 42 l 1,303,304
 345 42 345 42 359 56 c 1,305,-1
 361 56 l 1,306,-1
 377 77 l 1,307,-1
 377 79 l 1,308,-1
 381 82 l 2,309,310
 381 83 381 83 380 84 c 1,311,312
 382 84 382 84 383 87.5 c 128,-1,313
 384 91 384 91 386 91 c 1,314,-1
 401 119 l 2,155,156
338 461 m 1,315,-1
 342 385 l 1,316,-1
 342 371 l 1,317,318
 344 357 344 357 344 352 c 2,319,-1
 343 333 l 2,320,321
 342 332 342 332 342 320 c 2,322,-1
 342 302 l 2,323,324
 342 293 342 293 341 292 c 1,325,-1
 342 270 l 1,326,-1
 338 228 l 1,327,-1
 336 215 l 2,328,329
 335 214 335 214 335 205 c 1,330,-1
 329 189 l 1,331,332
 329 185 329 185 328 184 c 1,333,-1
 327 184 l 1,334,335
 327 181 327 181 324 178 c 2,336,-1
 317 170 l 1,337,-1
 317 168 l 1,338,-1
 300 154 l 1,339,340
 300 151 300 151 292 147 c 1,341,342
 280 143 280 143 276 141 c 128,-1,343
 272 139 272 139 261 139 c 1,344,-1
 252 140 l 1,345,-1
 252 141 l 1,346,347
 251 141 251 141 250 140 c 1,348,-1
 232 144 l 2,349,350
 222 147 222 147 218 149 c 1,351,-1
 216 151 l 1,352,353
 188 169 188 169 182 230 c 1,354,-1
 181 234 l 1,355,-1
 179 234 l 1,356,-1
 179 272 l 1,357,-1
 176 272 l 1,358,-1
 175 281 l 1,359,-1
 178 316 l 1,360,361
 178 330 178 330 175 334 c 1,362,-1
 175 363 l 1,363,364
 174 364 174 364 174 366 c 2,365,-1
 174 420 l 1,366,-1
 178 446 l 1,367,-1
 180 492 l 2,368,369
 180 501 180 501 185 506 c 1,370,371
 185 527 185 527 196 536 c 0,372,373
 199 539 199 539 204 542.5 c 128,-1,374
 209 546 209 546 209 548 c 1,375,376
 226 554 226 554 253 566 c 1,377,-1
 269 568 l 1,378,379
 279 568 279 568 281 569 c 1,380,-1
 281 567 l 1,381,382
 282 568 282 568 285 568 c 1,383,-1
 285 566 l 1,384,-1
 291 564 l 1,385,-1
 301 556 l 1,386,-1
 303 556 l 2,387,388
 301 556 301 556 313 540 c 128,-1,389
 325 524 325 524 326 524 c 2,390,-1
 328 524 l 2,391,392
 330 524 330 524 330 519 c 1,393,-1
 332 519 l 1,394,-1
 333 494 l 1,395,-1
 334 488 l 1,396,-1
 336 488 l 1,397,-1
 338 464 l 2,398,399
 338 462 338 462 337 461 c 1,400,-1
 338 461 l 1,315,-1
326 253 m 1,401,-1
 325 290 l 1,402,-1
 326 290 l 1,403,-1
 326 307 l 1,404,-1
 327 307 l 1,405,-1
 327 342 l 1,406,-1
 328 351 l 1,407,-1
 326 351 l 1,408,-1
 327 354 l 2,409,410
 327 355 327 355 328 356 c 1,411,-1
 326 356 l 1,412,-1
 325 380 l 2,413,414
 325 381 325 381 326 382 c 1,415,-1
 325 382 l 1,416,417
 325 420 325 420 320 435 c 1,418,-1
 316 495 l 1,419,-1
 315 495 l 1,420,-1
 313 508 l 1,421,-1
 312 511 l 2,422,423
 311 511 311 511 307.5 515.5 c 128,-1,424
 304 520 304 520 299 526 c 0,425,426
 286 540 286 540 260 540 c 128,-1,427
 234 540 234 540 213 519 c 1,428,-1
 213 517 l 1,429,430
 209 515 209 515 205 502 c 1,431,-1
 205 496 l 1,432,-1
 203 496 l 1,433,434
 204 495 204 495 204 489 c 1,435,-1
 202 489 l 1,436,437
 193 446 193 446 193 443 c 2,438,-1
 192 411 l 1,439,-1
 191 410 l 1,440,-1
 192 411 l 1,441,-1
 192 410 l 2,442,443
 192 396 192 396 191 395 c 1,444,-1
 190 395 l 1,445,-1
 192 392 l 1,446,447
 189 380 189 380 189 364.5 c 128,-1,448
 189 349 189 349 194 329 c 1,449,-1
 195 301 l 1,450,-1
 197 301 l 1,451,-1
 198 266 l 2,452,453
 198 254 198 254 199 247 c 1,454,-1
 200 247 l 1,455,-1
 201 227 l 1,456,-1
 202 227 l 1,457,-1
 203 222 l 1,458,-1
 206 201 l 1,459,-1
 214 183 l 1,460,-1
 215 183 l 1,461,462
 215 169 215 169 244 162 c 1,463,-1
 248 160 l 1,464,-1
 293 167 l 1,465,-1
 294 170 l 1,466,-1
 296 170 l 2,467,468
 297 170 297 170 297 172 c 1,469,-1
 300 172 l 1,470,-1
 304 176 l 1,471,-1
 304 177 l 1,472,473
 308 177 308 177 316 191 c 1,474,475
 316 197 316 197 317 198 c 2,476,-1
 325 222 l 2,477,478
 326 224 326 224 326 237 c 2,479,-1
 326 253 l 1,401,-1
EndSplineSet
EndChar

StartChar: one
Encoding: 49 49 20
Width: 366
GlyphClass: 2
Flags: W
LayerCount: 2
Fore
SplineSet
321 699 m 1,0,-1
 320 679 l 2,1,2
 320 678 320 678 321 677 c 1,3,-1
 320 673 l 1,4,-1
 321 587 l 1,5,-1
 321 586 l 1,6,-1
 319 568 l 1,7,-1
 319 524 l 2,8,9
 319 513 319 513 320 512 c 1,10,-1
 320 470 l 1,11,-1
 321 470 l 1,12,13
 319 464 319 464 319 459 c 2,14,-1
 318 432 l 1,15,-1
 316 431 l 1,16,-1
 318 431 l 1,17,-1
 316 411 l 1,18,-1
 315 308 l 1,19,-1
 313 276 l 1,20,-1
 313 275 l 1,21,-1
 312 275 l 1,22,-1
 309 168 l 1,23,-1
 310 168 l 1,24,25
 309 137 309 137 309 113 c 2,26,-1
 309 99 l 1,27,-1
 311 66 l 1,28,-1
 311 55 l 2,29,30
 311 49 311 49 309 45 c 1,31,-1
 310 41 l 1,32,-1
 307 32 l 1,33,-1
 309 15 l 1,34,-1
 296 15 l 1,35,-1
 298 8 l 1,36,-1
 293 6 l 1,37,-1
 293 5 l 1,38,39
 292 6 292 6 277 6 c 2,40,-1
 199 6 l 1,41,-1
 161 11 l 2,42,43
 160 11 160 11 159 9.5 c 128,-1,44
 158 8 158 8 156 8 c 1,45,-1
 156 9 l 1,46,-1
 154 8 l 1,47,-1
 154 9 l 1,48,49
 152 11 152 11 152 12 c 2,50,-1
 151 16 l 2,51,52
 151 18 151 18 152 19 c 1,53,-1
 150 98 l 1,54,-1
 150 125 l 1,55,-1
 152 149 l 1,56,-1
 151 149 l 1,57,58
 156 262 156 262 157 263 c 1,59,-1
 156 285 l 2,60,61
 155 286 155 286 155 294.5 c 128,-1,62
 155 303 155 303 156.5 322.5 c 128,-1,63
 158 342 158 342 160 384 c 1,64,65
 163 391 163 391 163 414 c 1,66,-1
 162 414 l 1,67,-1
 164 452 l 2,68,69
 164 454 164 454 163 454 c 1,70,-1
 163 463 l 1,71,-1
 164 473 l 1,72,-1
 163 484 l 1,73,74
 164 485 164 485 164 486 c 1,75,-1
 163 486 l 1,76,-1
 164 501 l 1,77,-1
 164 515 l 1,78,79
 157 508 157 508 152 493 c 1,80,81
 149 493 149 493 148.5 489 c 128,-1,82
 148 485 148 485 147 484 c 1,83,-1
 145 484 l 1,84,85
 142 474 142 474 138 470 c 1,86,-1
 137 470 l 1,87,-1
 132 458 l 1,88,-1
 130 454 l 1,89,-1
 126 451 l 1,90,-1
 116 449 l 1,91,-1
 113 451 l 1,92,-1
 101 453 l 1,93,-1
 99 451 l 1,94,-1
 91 453 l 1,95,-1
 83 452 l 1,96,-1
 84 453 l 1,97,-1
 72 456 l 1,98,-1
 73 458 l 1,99,100
 55 463 55 463 46 463 c 1,101,102
 -4 474 -4 474 -5 475 c 1,103,-1
 -7 475 l 1,104,-1
 -6 478 l 1,105,106
 -8 478 -8 478 -10 480 c 1,107,-1
 -10 483 l 1,108,-1
 -9 482 l 1,109,110
 -6 490 -6 490 -3 493 c 1,111,-1
 -3 494 l 1,112,113
 -2 494 -2 494 -1 495 c 2,114,-1
 0 500 l 1,115,-1
 3 507 l 2,116,117
 7 514 7 514 7 519 c 1,118,-1
 9 519 l 1,119,-1
 34 573 l 1,120,-1
 34 577 l 1,121,122
 35 578 35 578 36 578 c 2,123,-1
 37 581 l 1,124,125
 47 594 47 594 47 602 c 1,126,-1
 49 607 l 1,127,-1
 51 607 l 1,128,-1
 64 632 l 1,129,130
 64 639 64 639 75 663 c 1,131,-1
 81 672 l 2,132,133
 82 675 82 675 82 677 c 2,134,-1
 87 686 l 1,135,-1
 89 693 l 1,136,137
 94 699 94 699 96.5 707.5 c 128,-1,138
 99 716 99 716 102 718 c 1,139,-1
 102 715 l 1,140,141
 103 716 103 716 108 716 c 2,142,-1
 132 717 l 1,143,-1
 140 716 l 2,144,145
 144 716 144 716 145 717 c 1,146,-1
 145 719 l 1,147,-1
 169 720 l 1,148,-1
 173 718 l 1,149,-1
 173 720 l 1,150,-1
 182 719 l 1,151,-1
 182 717 l 1,152,153
 194 717 194 717 195 716 c 1,154,-1
 195 718 l 1,155,156
 196 717 196 717 205 717 c 2,157,-1
 255 719 l 1,158,-1
 274 717 l 1,159,-1
 274 714 l 1,160,-1
 297 717 l 1,161,-1
 297 716 l 1,162,163
 304 718 304 718 306 718 c 2,164,-1
 315 714 l 2,165,166
 316 714 316 714 316 712 c 128,-1,167
 316 710 316 710 316.5 707.5 c 128,-1,168
 317 705 317 705 316 704 c 1,169,-1
 318 704 l 1,170,-1
 320 699 l 1,171,-1
 321 699 l 1,0,-1
290 398 m 1,172,-1
 292 444 l 1,173,-1
 292 451 l 1,174,-1
 291 564 l 1,175,-1
 292 572 l 1,176,177
 291 573 291 573 291 576 c 2,178,-1
 293 639 l 1,179,-1
 293 657 l 1,180,181
 294 658 294 658 295 658 c 1,182,-1
 295 668 l 1,183,-1
 294 696 l 1,184,-1
 268 696 l 1,185,-1
 268 694 l 1,186,-1
 234 694 l 1,187,-1
 203 690 l 1,188,-1
 178 690 l 2,189,190
 146 690 146 690 117 689 c 1,191,-1
 117 690 l 1,192,193
 116 689 116 689 110 689 c 2,194,-1
 104 689 l 1,195,-1
 105 686 l 1,196,-1
 104 686 l 1,197,-1
 89 660 l 1,198,-1
 89 657 l 1,199,200
 88 656 88 656 86 656 c 1,201,-1
 83 647 l 1,202,-1
 66 612 l 1,203,-1
 63 602 l 1,204,-1
 61 601 l 1,205,-1
 51 577 l 1,206,-1
 42 558 l 1,207,-1
 36 542 l 1,208,-1
 34 542 l 1,209,-1
 32 533 l 1,210,211
 30 531 30 531 26.5 521 c 128,-1,212
 23 511 23 511 22 509 c 1,213,-1
 21 509 l 1,214,215
 21 508 21 508 16 499.5 c 128,-1,216
 11 491 11 491 11 489 c 1,217,218
 12 490 12 490 12 491 c 2,219,-1
 116 464 l 2,220,221
 118 464 118 464 120 467 c 1,222,223
 120 474 120 474 132 488 c 1,224,-1
 132 490 l 1,225,-1
 134 490 l 1,226,-1
 151 527 l 1,227,-1
 153 527 l 1,228,-1
 161 544 l 1,229,-1
 175 563 l 2,230,231
 177 567 177 567 181 568 c 1,232,-1
 181 566 l 1,233,-1
 183 567 l 1,234,235
 186 567 186 567 189 558 c 1,236,237
 184 553 184 553 184 545 c 128,-1,238
 184 537 184 537 185 536 c 1,239,-1
 183 501 l 2,240,241
 183 493 183 493 184 492 c 1,242,-1
 184 478 l 2,243,244
 184 466 184 466 183 458 c 1,245,-1
 185 458 l 1,246,-1
 183 457 l 1,247,-1
 184 450 l 1,248,-1
 184 437 l 2,249,250
 184 419 184 419 182 417 c 1,251,-1
 181 417 l 1,252,253
 181 413 181 413 183 413 c 1,254,255
 182 411 182 411 182 400 c 2,256,-1
 182 387 l 1,257,258
 177 273 177 273 177 220 c 128,-1,259
 177 167 177 167 176 152 c 1,260,-1
 177 24 l 2,261,262
 178 23 178 23 189 23 c 1,263,-1
 191 24 l 1,264,-1
 197 23 l 1,265,-1
 244 28 l 2,266,267
 247 29 247 29 257 29 c 2,268,-1
 270 29 l 2,269,270
 278 29 278 29 282 34 c 0,271,272
 290 46 290 46 290 127 c 1,273,-1
 289 170 l 2,274,275
 289 185 289 185 290 186 c 1,276,277
 289 187 289 187 289 189 c 2,278,-1
 289 217 l 1,279,-1
 288 236 l 2,280,281
 288 246 288 246 289 248 c 1,282,-1
 287 249 l 1,283,284
 290 268 290 268 290 311 c 1,285,-1
 289 334 l 1,286,-1
 290 342 l 1,287,-1
 290 365 l 1,288,289
 291 366 291 366 291 373 c 2,290,-1
 290 398 l 1,172,-1
EndSplineSet
EndChar

StartChar: two
Encoding: 50 50 21
Width: 498
GlyphClass: 2
Flags: W
LayerCount: 2
Fore
SplineSet
429 643 m 1,0,-1
 430 638 l 1,1,-1
 431 635 l 1,2,-1
 433 635 l 1,3,-1
 434 630 l 1,4,5
 436 628 436 628 438.5 622.5 c 128,-1,6
 441 617 441 617 442 616 c 2,7,-1
 446 594 l 1,8,-1
 448 594 l 1,9,-1
 450 584 l 1,10,-1
 459 516 l 1,11,-1
 461 510 l 1,12,-1
 461 496 l 2,13,14
 461 495 461 495 464 474 c 1,15,-1
 457 420 l 1,16,-1
 444 376 l 1,17,-1
 430 351 l 2,18,19
 429 350 429 350 428 350 c 1,20,-1
 428 347 l 1,21,22
 426 347 426 347 426 346 c 0,23,24
 424 341 424 341 410 323 c 1,25,26
 410 325 410 325 409 326 c 1,27,-1
 379 302 l 1,28,-1
 373 299 l 1,29,-1
 370 299 l 1,30,31
 348 286 348 286 344 286 c 2,32,-1
 343 286 l 1,33,-1
 330 280 l 1,34,35
 322 280 322 280 321 279 c 2,36,-1
 312 277 l 1,37,38
 281 261 281 261 279 261 c 1,39,-1
 279 260 l 1,40,-1
 272 257 l 1,41,42
 262 254 262 254 248 244 c 1,43,-1
 250 243 l 1,44,45
 238 238 238 238 236 233 c 1,46,-1
 234 233 l 1,47,48
 226 225 226 225 225 225 c 2,49,-1
 216 213 l 2,50,51
 211 207 211 207 203 190 c 128,-1,52
 195 173 195 173 191 166 c 1,53,-1
 203 145 l 1,54,-1
 232 144 l 1,55,-1
 242 144 l 1,56,57
 243 145 243 145 254 145 c 2,58,-1
 282 146 l 2,59,60
 287 146 287 146 288 145 c 1,61,62
 302 147 302 147 305.5 147 c 128,-1,63
 309 147 309 147 310 146 c 1,64,-1
 310 145 l 1,65,66
 311 146 311 146 312 146 c 2,67,-1
 339 146 l 1,68,-1
 339 148 l 1,69,-1
 349 148 l 1,70,-1
 378 146 l 1,71,-1
 378 145 l 1,72,-1
 379 145 l 1,73,74
 380 146 380 146 382.5 145.5 c 128,-1,75
 385 145 385 145 387 145 c 2,76,-1
 398 146 l 1,77,-1
 417 145 l 1,78,79
 439 145 439 145 446 148 c 1,80,-1
 451 141 l 1,81,-1
 451 143 l 1,82,-1
 453 142 l 1,83,-1
 453 135 l 1,84,85
 450 130 450 130 450 116 c 2,86,-1
 451 93 l 1,87,-1
 452 54 l 2,88,89
 452 53 452 53 451 52 c 1,90,-1
 452 52 l 1,91,-1
 451 43 l 1,92,-1
 451 38 l 1,93,-1
 452 30 l 1,94,-1
 452 29 l 1,95,-1
 451 15 l 1,96,-1
 450 15 l 1,97,98
 450 14 450 14 450.5 12 c 128,-1,99
 451 10 451 10 451 9 c 2,100,-1
 449 10 l 2,101,102
 448 10 448 10 447 9.5 c 128,-1,103
 446 9 446 9 445 9 c 1,104,105
 446 8 446 8 446 5 c 1,106,-1
 445 5 l 1,107,108
 444 8 444 8 438 8 c 2,109,-1
 433 8 l 1,110,-1
 419 7 l 1,111,-1
 410 8 l 1,112,-1
 400 8 l 1,113,-1
 330 4 l 1,114,115
 329 5 329 5 326 5 c 1,116,-1
 326 4 l 1,117,-1
 319 5 l 1,118,-1
 318 4 l 1,119,-1
 306 6 l 2,120,121
 303 6 303 6 302 5 c 0,122,123
 297 4 297 4 274.5 2 c 128,-1,124
 252 0 252 0 249 -0.5 c 128,-1,125
 246 -1 246 -1 244 -1 c 2,126,-1
 239 -1 l 2,127,128
 233 -1 233 -1 232 0 c 1,129,-1
 232 1 l 1,130,131
 230 2 230 2 220 2 c 2,132,-1
 197 2 l 1,133,-1
 153 1 l 1,134,-1
 93 1 l 1,135,136
 83 -1 83 -1 80 -1 c 128,-1,137
 77 -1 77 -1 76 0 c 2,138,-1
 46 2 l 1,139,-1
 43 5 l 1,140,-1
 40 5 l 1,141,-1
 40 7 l 1,142,-1
 37 7 l 2,143,144
 36 7 36 7 34 15 c 1,145,146
 32 16 32 16 30 17.5 c 128,-1,147
 28 19 28 19 27 19 c 1,148,149
 28 20 28 20 28 31 c 2,150,-1
 28 59 l 1,151,-1
 30 81 l 1,152,-1
 30 97 l 1,153,-1
 28 97 l 1,154,-1
 30 105 l 1,155,-1
 28 105 l 1,156,-1
 28 114 l 1,157,-1
 30 114 l 1,158,-1
 30 141 l 1,159,160
 42 195 42 195 42 211 c 1,161,-1
 43 211 l 1,162,163
 44 221 44 221 46 224 c 1,164,-1
 47 224 l 1,165,-1
 50 234 l 1,166,-1
 52 234 l 1,167,168
 59 252 59 252 61 254 c 2,169,-1
 69 262 l 1,170,-1
 69 264 l 1,171,172
 93 288 93 288 97 288 c 1,173,-1
 100 291 l 1,174,-1
 102 291 l 2,175,176
 103 291 103 291 103 293 c 1,177,-1
 106 293 l 1,178,179
 117 299 117 299 129 311 c 1,180,-1
 131 311 l 1,181,182
 132 312 132 312 132 314 c 1,183,-1
 139 316 l 1,184,185
 148 325 148 325 206 360 c 1,186,-1
 213 363 l 1,187,-1
 216 363 l 1,188,189
 216 365 216 365 217 366 c 2,190,-1
 241 378 l 1,191,-1
 243 382 l 1,192,-1
 266 397 l 1,193,-1
 266 399 l 1,194,-1
 269 399 l 1,195,196
 271 402 271 402 286 417 c 1,197,-1
 286 419 l 1,198,199
 288 420 288 420 299 434 c 1,200,-1
 301 440 l 1,201,-1
 306 463 l 1,202,-1
 307 488 l 1,203,204
 298 519 298 519 295 519 c 1,205,-1
 295 522 l 1,206,-1
 293 525 l 1,207,208
 291 525 291 525 288.5 529.5 c 128,-1,209
 286 534 286 534 281 534 c 2,210,-1
 276 535 l 1,211,-1
 276 537 l 1,212,-1
 252 544 l 1,213,-1
 239 544 l 1,214,-1
 239 542 l 1,215,-1
 230 540 l 1,216,-1
 227 540 l 1,217,-1
 197 510 l 1,218,-1
 195 504 l 1,219,-1
 190 492 l 1,220,-1
 185 462 l 1,221,222
 187 452 187 452 187 450 c 1,223,-1
 185 449 l 1,224,-1
 185 432 l 1,225,-1
 183 432 l 1,226,227
 183 419 183 419 169 419 c 1,228,-1
 156 420 l 1,229,-1
 150 419 l 1,230,-1
 150 418 l 1,231,232
 137 418 137 418 136 419 c 1,233,-1
 116 419 l 1,234,-1
 116 418 l 1,235,236
 115 417 115 417 101 417 c 2,237,-1
 99 417 l 1,238,-1
 86 418 l 1,239,-1
 86 417 l 1,240,241
 84 417 84 417 83 418 c 1,242,-1
 57 417 l 1,243,-1
 52 417 l 1,244,-1
 52 415 l 1,245,246
 53 415 53 415 54 414 c 1,247,248
 40 414 40 414 36 417.5 c 128,-1,249
 32 421 32 421 32 429 c 2,250,-1
 32 482 l 1,251,-1
 33 484 l 1,252,-1
 31 501 l 2,253,254
 31 502 31 502 35 534 c 1,255,-1
 42 574 l 1,256,-1
 43 582 l 1,257,-1
 45 582 l 1,258,-1
 46 589 l 1,259,-1
 54 613 l 1,260,-1
 64 635 l 1,261,-1
 75 649 l 1,262,-1
 77 649 l 1,263,-1
 80 653 l 1,264,-1
 83 653 l 1,265,266
 83 656 83 656 102 669 c 1,267,-1
 102 671 l 1,268,-1
 112 675 l 1,269,-1
 112 676 l 1,270,271
 113 677 113 677 116 677 c 1,272,-1
 116 679 l 1,273,-1
 151 690 l 1,274,275
 183 698 183 698 189 698 c 2,276,-1
 202 699 l 1,277,-1
 240 703 l 1,278,-1
 263 703 l 1,279,280
 277 705 277 705 283 705 c 2,281,-1
 322 702 l 1,282,-1
 322 701 l 1,283,-1
 336 698 l 1,284,-1
 336 697 l 1,285,-1
 345 696 l 1,286,287
 357 688 357 688 381 683 c 1,288,-1
 381 682 l 1,289,290
 395 678 395 678 411 662 c 1,291,-1
 413 662 l 1,292,-1
 428 645 l 1,293,-1
 429 643 l 1,0,-1
388 333 m 1,294,295
 388 338 388 338 391.5 338 c 128,-1,296
 395 338 395 338 396 339 c 1,297,-1
 396 341 l 1,298,-1
 398 341 l 1,299,300
 399 344 399 344 414 359 c 1,301,-1
 414 361 l 1,302,303
 415 361 415 361 416 362 c 1,304,-1
 416 366 l 1,305,-1
 420 369 l 1,306,-1
 422 376 l 2,307,308
 423 376 423 376 424 377 c 1,309,-1
 424 380 l 1,310,-1
 427 382 l 1,311,-1
 439 421 l 1,312,-1
 441 421 l 1,313,-1
 443 433 l 2,314,315
 446 454 446 454 446 457 c 2,316,-1
 446 492 l 2,317,318
 446 497 446 497 444 511 c 1,319,-1
 444 522 l 1,320,-1
 443 532 l 1,321,322
 433 566 433 566 433 585 c 1,323,-1
 431 585 l 1,324,-1
 431 587 l 1,325,326
 414 646 414 646 405 646 c 1,327,-1
 405 649 l 1,328,329
 403 649 403 649 403 650 c 2,330,-1
 403 652 l 1,331,332
 398 652 398 652 396 658 c 1,333,-1
 393 658 l 1,334,335
 393 661 393 661 375.5 670 c 128,-1,336
 358 679 358 679 354 679 c 2,337,-1
 347 680 l 1,338,-1
 346 682 l 1,339,-1
 330 687 l 1,340,-1
 317 688 l 1,341,-1
 304 690 l 1,342,-1
 302 690 l 1,343,-1
 252 693 l 1,344,-1
 237 691 l 2,345,346
 231 691 231 691 196 686 c 1,347,-1
 175 679 l 1,348,-1
 175 677 l 1,349,-1
 140 671 l 2,350,351
 131 670 131 670 129 668 c 1,352,-1
 129 667 l 1,353,354
 124 667 124 667 115 656 c 1,355,-1
 113 656 l 1,356,357
 112 655 112 655 112 653 c 1,358,-1
 103 650 l 1,359,-1
 78 628 l 1,360,-1
 69 605 l 2,361,362
 69 603 69 603 68 601 c 2,363,-1
 64 589 l 1,364,-1
 61 577 l 2,365,366
 60 576 60 576 54 541 c 1,367,-1
 53 507 l 1,368,-1
 52 499 l 1,369,-1
 50 499 l 1,370,-1
 52 493 l 1,371,-1
 50 493 l 1,372,-1
 49 477 l 1,373,374
 50 476 50 476 50 473 c 1,375,-1
 49 473 l 1,376,377
 50 472 50 472 50 462 c 1,378,-1
 49 462 l 1,379,380
 50 457 50 457 50 451 c 0,381,382
 48 434 48 434 54 434 c 2,383,-1
 60 433 l 1,384,-1
 60 430 l 1,385,-1
 70 432 l 1,386,-1
 70 430 l 1,387,-1
 120 430 l 1,388,-1
 144 434 l 1,389,-1
 144 432 l 1,390,-1
 145 434 l 1,391,-1
 152 435 l 1,392,-1
 156 435 l 2,393,394
 160 435 160 435 162 437 c 1,395,-1
 160 437 l 1,396,397
 159 438 159 438 158 438 c 1,398,-1
 158 440 l 1,399,-1
 166 440 l 1,400,401
 170 450 170 450 170 452 c 0,402,403
 167 466 167 466 167 473 c 1,404,-1
 168 479 l 1,405,-1
 169 479 l 1,406,407
 170 481 170 481 173.5 496.5 c 128,-1,408
 177 512 177 512 182 524 c 1,409,-1
 191 540 l 1,410,-1
 198 546 l 1,411,-1
 200 550 l 1,412,-1
 203 550 l 1,413,414
 204 556 204 556 208 556 c 2,415,-1
 210 556 l 1,416,-1
 216 559 l 2,417,418
 218 561 218 561 224 563 c 128,-1,419
 230 565 230 565 233 567 c 1,420,-1
 250 569 l 1,421,-1
 250 570 l 1,422,-1
 255 571 l 2,423,424
 260 571 260 571 302 553 c 1,425,-1
 317 535 l 1,426,-1
 319 529 l 1,427,-1
 321 529 l 1,428,-1
 325 494 l 1,429,-1
 326 488 l 1,430,-1
 328 488 l 1,431,-1
 328 470 l 1,432,-1
 330 466 l 1,433,-1
 329 452 l 2,434,435
 329 449 329 449 330 448 c 1,436,-1
 329 448 l 1,437,438
 328 447 328 447 328 441 c 0,439,440
 326 422 326 422 307 403 c 1,441,-1
 307 400 l 1,442,443
 306 400 306 400 285 383 c 1,444,-1
 282 382 l 1,445,446
 282 379 282 379 276.5 377 c 128,-1,447
 271 375 271 375 269 375 c 1,448,-1
 269 374 l 1,449,450
 268 373 268 373 266 372.5 c 128,-1,451
 264 372 264 372 264 370 c 1,452,-1
 262 370 l 2,453,454
 261 370 261 370 261 368 c 1,455,-1
 258 368 l 1,456,457
 254 364 254 364 252.5 361.5 c 128,-1,458
 251 359 251 359 210 340 c 1,459,-1
 205 338 l 1,460,-1
 205 337 l 1,461,462
 200 336 200 336 195 330 c 1,463,-1
 188 328 l 1,464,-1
 188 326 l 1,465,-1
 183 325 l 1,466,-1
 181 322 l 1,467,-1
 155 307 l 1,468,469
 150 306 150 306 147 302 c 1,470,-1
 145 302 l 1,471,-1
 143 299 l 1,472,-1
 140 299 l 1,473,-1
 125 288 l 2,474,475
 125 287 125 287 123 285 c 1,476,-1
 121 285 l 1,477,-1
 102 266 l 1,478,-1
 100 266 l 1,479,-1
 88 254 l 1,480,-1
 86 254 l 1,481,482
 86 250 86 250 80 248 c 1,483,484
 75 239 75 239 69 234 c 1,485,-1
 69 232 l 1,486,487
 61 224 61 224 61 220 c 128,-1,488
 61 216 61 216 60 214 c 2,489,-1
 55 189 l 1,490,-1
 56 178 l 2,491,492
 56 168 56 168 50 126 c 1,493,-1
 52 112 l 1,494,-1
 50 112 l 1,495,-1
 50 80 l 1,496,-1
 48 79 l 1,497,-1
 48 42 l 2,498,499
 48 41 48 41 47 40 c 1,500,-1
 47 36 l 2,501,502
 47 29 47 29 48.5 26.5 c 128,-1,503
 50 24 50 24 58 24 c 2,504,-1
 63 24 l 2,505,506
 64 24 64 24 65 25 c 1,507,-1
 73 25 l 2,508,509
 80 25 80 25 83 22 c 1,510,-1
 80 20 l 1,511,-1
 84 20 l 1,512,-1
 84 24 l 1,513,-1
 90 20 l 1,514,-1
 146 25 l 1,515,-1
 155 23 l 2,516,517
 157 23 157 23 158 24 c 1,518,-1
 229 24 l 1,519,-1
 229 25 l 1,520,-1
 246 26 l 1,521,-1
 289 27 l 2,522,523
 290 27 290 27 300 29 c 1,524,-1
 315 26 l 1,525,-1
 354 26 l 1,526,-1
 369 27 l 2,527,528
 382 27 382 27 384 26 c 1,529,-1
 423 27 l 1,530,-1
 423 29 l 1,531,-1
 426 27 l 1,532,-1
 426 29 l 1,533,534
 438 29 438 29 440.5 32.5 c 128,-1,535
 443 36 443 36 443 49 c 1,536,-1
 444 51 l 1,537,-1
 439 115 l 1,538,-1
 440 122 l 2,539,540
 440 124 440 124 439 127 c 1,541,542
 403 131 403 131 388 131 c 1,543,-1
 388 134 l 1,544,545
 377 133 377 133 366.5 133 c 128,-1,546
 356 133 356 133 356 134 c 2,547,-1
 338 131 l 1,548,-1
 317 132 l 2,549,550
 314 132 314 132 311.5 132.5 c 128,-1,551
 309 133 309 133 308 132 c 1,552,-1
 291 132 l 1,553,-1
 266 130 l 1,554,-1
 249 131 l 1,555,556
 247 129 247 129 224 129 c 2,557,-1
 185 130 l 1,558,-1
 185 134 l 1,559,560
 179 134 179 134 176 137 c 1,561,-1
 177 180 l 1,562,-1
 179 180 l 1,563,564
 179 188 179 188 180 189 c 1,565,-1
 181 189 l 1,566,567
 180 188 180 188 180 186 c 2,568,-1
 185 202 l 2,569,570
 186 202 186 202 194 216 c 1,571,572
 194 220 194 220 201.5 226 c 128,-1,573
 209 232 209 232 211 238 c 1,574,-1
 213 238 l 1,575,-1
 213 240 l 1,576,-1
 226 249 l 1,577,578
 228 249 228 249 232 253 c 1,579,-1
 256 265 l 1,580,-1
 257 268 l 1,581,-1
 261 270 l 2,582,583
 267 272 267 272 273.5 275 c 128,-1,584
 280 278 280 278 287 281 c 1,585,-1
 287 283 l 1,586,-1
 296 285 l 1,587,-1
 300 285 l 1,588,-1
 360 315 l 1,589,-1
 362 315 l 1,590,591
 363 316 363 316 363 317 c 1,592,-1
 366 317 l 1,593,-1
 388 333 l 1,294,295
213 217 m 2,594,-1
 213 218 l 1,595,596
 212 218 212 218 209 211 c 1,597,-1
 210 211 l 1,598,599
 213 214 213 214 213 217 c 2,594,-1
EndSplineSet
EndChar

StartChar: three
Encoding: 51 51 22
Width: 492
GlyphClass: 2
Flags: W
LayerCount: 2
Fore
SplineSet
300 702 m 1,0,-1
 334 699 l 1,1,-1
 340 697 l 1,2,-1
 340 695 l 1,3,-1
 364 685 l 2,4,5
 371 683 371 683 371.5 682.5 c 128,-1,6
 372 682 372 682 372 680 c 1,7,-1
 388 673 l 2,8,9
 396 670 396 670 396 667 c 1,10,-1
 399 667 l 1,11,12
 402 658 402 658 407.5 654 c 128,-1,13
 413 650 413 650 414 650 c 1,14,-1
 414 648 l 1,15,-1
 418 645 l 1,16,-1
 418 642 l 1,17,-1
 425 638 l 1,18,-1
 437 615 l 1,19,-1
 445 593 l 1,20,21
 450 573 450 573 450 566 c 2,22,-1
 451 503 l 1,23,-1
 453 503 l 1,24,-1
 451 494 l 1,25,-1
 453 493 l 1,26,-1
 451 493 l 1,27,-1
 451 478 l 1,28,29
 455 471 455 471 455 463 c 1,30,-1
 451 440 l 1,31,-1
 451 438 l 1,32,-1
 453 438 l 1,33,-1
 451 430 l 1,34,-1
 453 430 l 1,35,-1
 454 398 l 1,36,37
 453 397 453 397 453 395 c 2,38,-1
 454 370 l 2,39,40
 454 361 454 361 453 360 c 2,41,-1
 452 341 l 2,42,43
 451 341 451 341 451 338 c 1,44,-1
 452 338 l 1,45,46
 452 337 452 337 453 336 c 1,47,-1
 451 336 l 1,48,-1
 451 294 l 1,49,-1
 450 269 l 1,50,-1
 451 253 l 2,51,52
 451 245 451 245 449 243 c 1,53,-1
 450 243 l 1,54,55
 450 242 450 242 449 241 c 2,56,-1
 447 201 l 1,57,-1
 442 161 l 1,58,59
 443 160 443 160 443 157 c 1,60,-1
 442 157 l 1,61,62
 442 146 442 146 441 145 c 1,63,-1
 440 145 l 1,64,-1
 443 131 l 1,65,-1
 441 131 l 1,66,67
 435 113 435 113 433 109 c 1,68,-1
 432 109 l 1,69,-1
 431 102 l 1,70,-1
 430 102 l 1,71,72
 430 97 430 97 414 69 c 1,73,-1
 413 66 l 1,74,75
 411 66 411 66 410 65 c 2,76,-1
 402 53 l 1,77,-1
 394 45 l 1,78,79
 394 43 394 43 377 34 c 128,-1,80
 360 25 360 25 357 25 c 1,81,82
 355 23 355 23 352.5 23 c 128,-1,83
 350 23 350 23 349 22 c 1,84,-1
 349 20 l 1,85,-1
 316 15 l 1,86,87
 266 2 266 2 224 2 c 1,88,-1
 224 3 l 1,89,-1
 220 2 l 1,90,-1
 190 4 l 1,91,-1
 181 5 l 1,92,-1
 181 7 l 1,93,-1
 115 19 l 1,94,95
 108 22 108 22 102 22 c 1,96,-1
 88 31 l 1,97,-1
 85 31 l 1,98,99
 85 34 85 34 76 39 c 1,100,-1
 74 43 l 1,101,-1
 72 43 l 1,102,-1
 72 45 l 1,103,-1
 71 44 l 1,104,105
 60 44 60 44 49 84 c 1,106,-1
 35 147 l 1,107,-1
 36 146 l 1,108,-1
 36 222 l 1,109,-1
 37 219 l 1,110,-1
 54 221 l 1,111,-1
 98 225 l 1,112,-1
 107 225 l 1,113,114
 135 230 135 230 139 230 c 2,115,-1
 163 229 l 1,116,-1
 175 217 l 2,117,118
 176 216 176 216 176 215 c 2,119,-1
 176 214 l 2,120,121
 176 213 176 213 181.5 203 c 128,-1,122
 187 193 187 193 188 192 c 1,123,-1
 188 190 l 1,124,-1
 194 184 l 1,125,-1
 196 184 l 1,126,127
 196 183 196 183 197 182 c 1,128,-1
 200 182 l 1,129,130
 200 179 200 179 211 175 c 1,131,-1
 213 172 l 1,132,-1
 216 171 l 1,133,134
 218 169 218 169 223 169 c 1,135,-1
 227 168 l 1,136,137
 231 164 231 164 245 164 c 1,138,-1
 273 172 l 1,139,-1
 273 174 l 1,140,-1
 285 178 l 1,141,-1
 287 178 l 1,142,143
 289 180 289 180 289 182 c 1,144,-1
 292 183 l 1,145,-1
 301 198 l 1,146,-1
 303 208 l 1,147,-1
 303 227 l 1,148,149
 289 266 289 266 288 267 c 1,150,-1
 288 269 l 1,151,-1
 278 275 l 2,152,153
 277 276 277 276 277 277 c 1,154,-1
 274 277 l 1,155,156
 273 278 273 278 272 280 c 0,157,158
 270 285 270 285 264 285 c 1,159,-1
 264 286 l 1,160,-1
 257 289 l 1,161,-1
 238 291 l 1,162,-1
 188 291 l 1,163,164
 188 291 188 291 182 290 c 1,165,166
 182 290 182 290 172 291 c 1,167,-1
 172 288 l 1,168,-1
 170 289 l 1,169,-1
 167 296 l 1,170,171
 166 295 166 295 164 295 c 1,172,-1
 164 296 l 1,173,174
 162 298 162 298 162 300 c 2,175,-1
 164 310 l 1,176,-1
 164 317 l 1,177,-1
 165 348 l 1,178,-1
 164 365 l 1,179,180
 164 394 164 394 166 412 c 1,181,-1
 165 416 l 1,182,-1
 166 424 l 1,183,184
 165 427 165 427 165 429 c 1,185,-1
 171 432 l 1,186,-1
 174 432 l 1,187,-1
 186 433 l 2,188,189
 188 433 188 433 191 432 c 1,190,-1
 214 432 l 1,191,-1
 220 430 l 1,192,-1
 220 432 l 1,193,-1
 257 436 l 1,194,-1
 262 436 l 1,195,196
 299 448 299 448 299 462 c 1,197,-1
 302 485 l 1,198,-1
 301 515 l 1,199,-1
 294 530 l 1,200,-1
 293 530 l 1,201,-1
 285 538 l 1,202,-1
 266 544 l 1,203,-1
 266 546 l 1,204,-1
 262 547 l 1,205,206
 220 547 220 547 206 537 c 0,207,208
 201 534 201 534 195.5 526.5 c 128,-1,209
 190 519 190 519 189 518 c 1,210,-1
 189 516 l 1,211,-1
 182 510 l 1,212,-1
 180 504 l 1,213,214
 177 503 177 503 173 493 c 1,215,-1
 172 493 l 1,216,217
 170 487 170 487 165 487 c 2,218,-1
 115 488 l 1,219,-1
 55 487 l 2,220,221
 43 487 43 487 36 488 c 1,222,-1
 36 486 l 1,223,-1
 31 487 l 1,224,-1
 30 486 l 1,225,-1
 30 512 l 1,226,-1
 27 532 l 1,227,-1
 31 580 l 1,228,-1
 33 580 l 1,229,230
 38 594 38 594 40.5 601.5 c 128,-1,231
 43 609 43 609 44 610.5 c 128,-1,232
 45 612 45 612 47 612.5 c 128,-1,233
 49 613 49 613 50 614 c 2,234,-1
 65 639 l 2,235,236
 66 640 66 640 71 644 c 0,237,238
 87 656 87 656 91 662 c 1,239,-1
 94 662 l 1,240,241
 94 663 94 663 99 667 c 128,-1,242
 104 671 104 671 107 671 c 1,243,-1
 109 673 l 1,244,245
 111 673 111 673 119 677 c 1,246,-1
 119 678 l 1,247,248
 130 678 130 678 142 686 c 1,249,-1
 150 690 l 1,250,-1
 150 691 l 1,251,252
 169 691 169 691 191 699 c 1,253,-1
 205 701 l 1,254,-1
 276 703 l 1,255,-1
 300 702 l 1,0,-1
428 566 m 2,256,-1
 430 569 l 1,257,-1
 421 603 l 1,258,-1
 416 630 l 2,259,260
 415 633 415 633 411 634 c 1,261,-1
 411 638 l 1,262,-1
 399 652 l 1,263,-1
 379 664 l 1,264,-1
 311 684 l 1,265,-1
 260 687 l 1,266,-1
 245 687 l 2,267,268
 236 687 236 687 231 686 c 2,269,-1
 186 680 l 1,270,271
 175 680 175 680 173 679 c 1,272,-1
 173 678 l 1,273,-1
 166 679 l 1,274,-1
 137 672 l 1,275,-1
 134 670 l 1,276,277
 114 669 114 669 95 645 c 1,278,-1
 92 645 l 1,279,280
 92 643 92 643 91 642.5 c 128,-1,281
 90 642 90 642 89 640 c 1,282,-1
 82 637 l 1,283,284
 67 622 67 622 67 619 c 1,285,-1
 65 618 l 1,286,287
 55 604 55 604 54 603 c 1,288,-1
 54 601 l 1,289,290
 49 596 49 596 39 570 c 1,291,-1
 36 536 l 1,292,-1
 37 534 l 1,293,294
 37 529 37 529 39 516 c 128,-1,295
 41 503 41 503 44 503 c 0,296,297
 47 504 47 504 49 504 c 2,298,-1
 51 504 l 2,299,300
 95 504 95 504 138 513 c 1,301,-1
 152 513 l 1,302,-1
 152 515 l 1,303,-1
 155 515 l 1,304,-1
 155 518 l 1,305,-1
 157 518 l 1,306,-1
 157 520 l 1,307,308
 162 517 162 517 163 517 c 2,309,-1
 168 535 l 1,310,311
 186 565 186 565 211 565 c 1,312,313
 211 565 211 565 226 570 c 1,314,-1
 226 571 l 1,315,316
 229 572 229 572 233 572 c 128,-1,317
 237 572 237 572 249 569 c 1,318,-1
 269 568 l 1,319,-1
 269 566 l 1,320,321
 289 559 289 559 291 557 c 1,322,-1
 292 557 l 1,323,324
 292 556 292 556 293 555 c 1,325,-1
 295 555 l 1,326,327
 305 545 305 545 307 539 c 1,328,-1
 308 539 l 1,329,330
 308 535 308 535 316 513 c 1,331,-1
 317 513 l 1,332,-1
 316 506 l 1,333,-1
 319 474 l 2,334,335
 319 467 319 467 318 466 c 2,336,-1
 312 445 l 1,337,338
 306 431 306 431 295 429 c 1,339,-1
 295 427 l 1,340,341
 282 423 282 423 276 420 c 1,342,-1
 276 419 l 1,343,-1
 267 418 l 1,344,-1
 263 418 l 2,345,346
 259 418 259 418 234 414 c 1,347,-1
 232 413 l 1,348,-1
 232 414 l 1,349,350
 225 414 225 414 224 413 c 1,351,-1
 218 414 l 1,352,-1
 197 413 l 1,353,354
 196 414 196 414 182 414 c 1,355,-1
 181 413 l 1,356,-1
 179 392 l 1,357,-1
 186 312 l 1,358,359
 188 310 188 310 200 310 c 2,360,-1
 219 311 l 1,361,-1
 253 307 l 1,362,-1
 288 300 l 2,363,364
 291 300 291 300 294 297 c 128,-1,365
 297 294 297 294 297 293 c 2,366,-1
 300 292 l 1,367,368
 300 290 300 290 307 286 c 1,369,-1
 307 284 l 1,370,371
 310 282 310 282 310 278 c 2,372,-1
 318 198 l 1,373,-1
 317 190 l 1,374,-1
 306 172 l 1,375,-1
 303 168 l 1,376,-1
 303 166 l 1,377,378
 272 135 272 135 263 135 c 0,379,380
 262 135 262 135 262 136 c 2,381,-1
 262 134 l 1,382,383
 256 134 256 134 255 133 c 1,384,-1
 255 132 l 1,385,-1
 225 131 l 1,386,-1
 217 132 l 1,387,-1
 195 143 l 2,388,389
 195 144 195 144 194 145 c 1,390,-1
 191 145 l 1,391,392
 191 146 191 146 190 147 c 1,393,-1
 188 147 l 1,394,-1
 174 162 l 1,395,-1
 170 175 l 1,396,-1
 167 176 l 1,397,398
 164 188 164 188 163 195 c 128,-1,399
 162 202 162 202 160 204 c 1,400,-1
 152 206 l 1,401,402
 121 205 121 205 102 205 c 1,403,404
 71 201 71 201 66 202 c 128,-1,405
 61 203 61 203 53 201 c 1,406,-1
 53 198 l 1,407,-1
 51 198 l 1,408,-1
 49 189 l 1,409,-1
 49 170 l 1,410,-1
 47 167 l 1,411,-1
 49 167 l 1,412,-1
 47 161 l 1,413,-1
 49 161 l 1,414,-1
 49 148 l 1,415,416
 51 134 51 134 57 110 c 1,417,-1
 58 110 l 1,418,-1
 59 101 l 1,419,-1
 60 101 l 1,420,421
 61 100 61 100 61 96 c 1,422,-1
 71 78 l 1,423,424
 90 59 90 59 90 57 c 1,425,-1
 125 40 l 1,426,-1
 125 39 l 1,427,428
 150 30 150 30 153 30 c 1,429,-1
 153 28 l 1,430,-1
 167 26 l 2,431,432
 168 25 168 25 168 24 c 2,433,-1
 200 20 l 1,434,435
 212 20 212 20 214 19 c 1,436,-1
 229 19 l 1,437,-1
 231 18 l 1,438,439
 241 18 241 18 269 22 c 1,440,-1
 269 23 l 1,441,442
 276 24 276 24 281 24 c 1,443,-1
 320 32 l 1,444,-1
 320 33 l 1,445,446
 322 33 322 33 325 34 c 2,447,-1
 340 40 l 1,448,449
 356 40 356 40 369 53 c 1,450,-1
 371 53 l 1,451,452
 376 58 376 58 377 58 c 1,453,-1
 377 61 l 1,454,455
 378 61 378 61 396 83 c 1,456,-1
 396 85 l 1,457,-1
 398 85 l 1,458,459
 400 90 400 90 413 144 c 1,460,-1
 414 144 l 1,461,-1
 415 155 l 1,462,-1
 417 166 l 1,463,-1
 418 176 l 2,464,465
 418 181 418 181 417 182 c 1,466,-1
 428 261 l 1,467,-1
 430 261 l 1,468,-1
 430 267 l 1,469,-1
 432 309 l 1,470,-1
 431 311 l 1,471,472
 431 317 431 317 432 326 c 1,473,-1
 431 326 l 1,474,-1
 432 333 l 1,475,-1
 432 344 l 1,476,-1
 433 344 l 1,477,-1
 432 380 l 1,478,-1
 431 384 l 1,479,-1
 432 384 l 1,480,481
 431 421 431 421 431 433.5 c 128,-1,482
 431 446 431 446 433 460 c 1,483,-1
 434 504 l 1,484,-1
 435 504 l 1,485,-1
 430 563 l 1,486,487
 428 565 428 565 428 566 c 2,256,-1
EndSplineSet
EndChar

StartChar: four
Encoding: 52 52 23
Width: 469
GlyphClass: 2
Flags: W
LayerCount: 2
Fore
SplineSet
388 694 m 1,0,-1
 391 652 l 1,1,-1
 392 575 l 1,2,-1
 392 567 l 1,3,-1
 394 567 l 1,4,-1
 395 562 l 1,5,-1
 397 522 l 1,6,-1
 396 521 l 1,7,-1
 397 508 l 2,8,9
 397 503 397 503 395 499 c 1,10,-1
 396 491 l 1,11,-1
 396 447 l 1,12,-1
 397 432 l 1,13,-1
 398 408 l 1,14,-1
 397 396 l 1,15,16
 398 391 398 391 398 374 c 2,17,-1
 398 352 l 1,18,19
 437 352 437 352 452 346 c 1,20,21
 451 345 451 345 451 340 c 2,22,-1
 452 329 l 1,23,24
 451 304 451 304 451 289 c 2,25,-1
 452 262 l 2,26,27
 452 253 452 253 451 252 c 1,28,-1
 451 209 l 1,29,-1
 453 209 l 1,30,-1
 453 207 l 1,31,32
 452 208 452 208 450 208 c 1,33,-1
 453 195 l 1,34,-1
 439 185 l 1,35,-1
 421 186 l 1,36,37
 418 185 418 185 409 185 c 128,-1,38
 400 185 400 185 396.5 182 c 128,-1,39
 393 179 393 179 392 169 c 1,40,-1
 392 152 l 1,41,-1
 388 109 l 1,42,43
 382 82 382 82 382 34 c 1,44,-1
 381 15 l 2,45,46
 380 14 380 14 380 10 c 1,47,-1
 378 10 l 1,48,49
 377 8 377 8 377 6 c 0,50,51
 377 3 377 3 371 3 c 1,52,53
 371 5 371 5 370 6 c 1,54,-1
 367 4 l 1,55,-1
 367 6 l 1,56,-1
 311 6 l 1,57,58
 310 5 310 5 303 5 c 2,59,-1
 293 5 l 1,60,61
 259 4 259 4 258 3 c 1,62,-1
 240 3 l 1,63,-1
 232 2 l 1,64,65
 232 6 232 6 231 7 c 2,66,-1
 229 18 l 1,67,-1
 229 68 l 1,68,-1
 231 71 l 1,69,-1
 230 71 l 1,70,71
 229 72 229 72 229 75 c 1,72,-1
 231 77 l 1,73,-1
 231 102 l 2,74,75
 231 103 231 103 232 104 c 1,76,-1
 231 105 l 1,77,-1
 232 105 l 1,78,-1
 233 137 l 2,79,80
 233 141 233 141 232 149 c 1,81,-1
 233 149 l 1,82,-1
 233 169 l 2,83,84
 233 199 233 199 221 199 c 2,85,-1
 215 199 l 1,86,-1
 201 201 l 1,87,-1
 201 200 l 1,88,89
 168 199 168 199 157 199.5 c 128,-1,90
 146 200 146 200 141 200 c 128,-1,91
 136 200 136 200 135 199 c 2,92,-1
 46 198 l 1,93,-1
 35 197 l 1,94,95
 22 197 22 197 22 221 c 0,96,97
 22 226 22 226 24 228 c 1,98,99
 24 230 24 230 23.5 230 c 128,-1,100
 23 230 23 230 23 232 c 2,101,-1
 24 235 l 1,102,-1
 23 247 l 2,103,104
 23 248 23 248 22 249 c 1,105,-1
 22 262 l 1,106,-1
 14 327 l 1,107,-1
 14 343 l 1,108,-1
 12 343 l 1,109,-1
 11 346 l 1,110,-1
 25 369 l 1,111,-1
 27 380 l 2,112,113
 29 394 29 394 32 394 c 1,114,-1
 32 397 l 1,115,116
 35 397 35 397 43 410.5 c 128,-1,117
 51 424 51 424 51 427 c 1,118,-1
 50 427 l 1,119,-1
 51 427 l 1,120,-1
 50 428 l 1,121,-1
 73 460 l 1,122,-1
 87 484 l 1,123,-1
 90 486 l 1,124,-1
 90 488 l 1,125,126
 89 488 89 488 100 504 c 128,-1,127
 111 520 111 520 122 536 c 128,-1,128
 133 552 133 552 132 552 c 1,129,-1
 132 555 l 1,130,131
 133 555 133 555 134 556 c 1,132,-1
 134 558 l 1,133,134
 141 563 141 563 150 584 c 1,135,136
 165 607 165 607 168 610 c 1,137,-1
 170 615 l 1,138,139
 180 628 180 628 185.5 634.5 c 128,-1,140
 191 641 191 641 191 642 c 2,141,-1
 191 645 l 1,142,143
 193 645 193 645 197.5 652 c 128,-1,144
 202 659 202 659 203 660 c 1,145,-1
 203 662 l 1,146,-1
 225 691 l 1,147,-1
 225 694 l 1,148,-1
 229 697 l 1,149,-1
 228 701 l 1,150,-1
 237 709 l 1,151,-1
 239 710 l 1,152,-1
 246 706 l 2,153,154
 248 706 248 706 249 707 c 1,155,-1
 249 708 l 1,156,157
 250 707 250 707 276.5 707 c 128,-1,158
 303 707 303 707 304 708 c 1,159,-1
 304 707 l 1,160,161
 306 706 306 706 307 706 c 128,-1,162
 308 706 308 706 309 706 c 1,163,-1
 309 708 l 1,164,-1
 319 707 l 1,165,-1
 346 708 l 1,166,-1
 362 709 l 2,167,168
 363 710 363 710 366 710 c 2,169,-1
 376 708 l 2,170,171
 378 708 378 708 378 709 c 2,172,-1
 380 711 l 1,173,-1
 389 708 l 1,174,-1
 388 694 l 1,0,-1
430 201 m 1,175,-1
 437 200 l 1,176,-1
 438 211 l 1,177,178
 440 221 440 221 440 227 c 2,179,-1
 440 281 l 2,180,181
 440 285 440 285 442 295 c 1,182,-1
 442 300 l 1,183,-1
 440 300 l 1,184,-1
 440 335 l 1,185,-1
 430 333 l 1,186,-1
 419 334 l 1,187,188
 401 334 401 334 387 332 c 1,189,-1
 387 330 l 1,190,191
 375 330 375 330 375 343 c 2,192,-1
 376 359 l 1,193,-1
 374 463 l 1,194,-1
 373 488 l 1,195,-1
 371 488 l 1,196,-1
 371 538 l 1,197,-1
 369 545 l 1,198,-1
 369 587 l 1,199,-1
 367 603 l 1,200,-1
 368 618 l 2,201,202
 368 624 368 624 367 625 c 2,203,-1
 366 689 l 1,204,-1
 353 691 l 1,205,-1
 334 690 l 1,206,-1
 267 688 l 1,207,-1
 267 689 l 1,208,209
 263 688 263 688 261 688 c 2,210,-1
 246 688 l 1,211,-1
 243 679 l 1,212,-1
 240 677 l 1,213,-1
 240 675 l 1,214,215
 239 675 239 675 223.5 654 c 128,-1,216
 208 633 208 633 197 615 c 2,217,-1
 187 600 l 1,218,-1
 187 598 l 1,219,-1
 185 598 l 1,220,221
 185 596 185 596 182 593 c 1,222,-1
 182 591 l 1,223,224
 159 566 159 566 155 548 c 1,225,-1
 153 546 l 2,226,227
 153 545 153 545 149 537 c 1,228,-1
 147 537 l 1,229,230
 147 536 147 536 143 531 c 2,231,-1
 133 514 l 1,232,233
 130 511 130 511 122 497 c 0,234,235
 108 473 108 473 107 470 c 1,236,-1
 107 467 l 1,237,238
 104 467 104 467 102 459 c 1,239,240
 87 438 87 438 79.5 426 c 128,-1,241
 72 414 72 414 68 408.5 c 128,-1,242
 64 403 64 403 62 399.5 c 128,-1,243
 60 396 60 396 58 394 c 0,244,245
 56 390 56 390 54 390 c 1,246,247
 54 361 54 361 42 355 c 1,248,-1
 39 346 l 1,249,250
 35 344 35 344 32 341 c 1,251,-1
 32 329 l 1,252,253
 31 328 31 328 31 324 c 2,254,-1
 31 308 l 1,255,-1
 30 306 l 1,256,-1
 31 306 l 1,257,258
 37 220 37 220 37 213 c 1,259,-1
 56 214 l 1,260,-1
 83 213 l 1,261,-1
 91 213 l 1,262,-1
 117 214 l 2,263,264
 131 214 131 214 140 212 c 1,265,-1
 237 211 l 1,266,-1
 244 201 l 1,267,268
 249 191 249 191 252 155 c 1,269,-1
 250 125 l 1,270,-1
 250 81 l 1,271,-1
 248 81 l 1,272,-1
 246 78 l 1,273,-1
 242 36 l 2,274,275
 242 35 242 35 242.5 33.5 c 128,-1,276
 243 32 243 32 242 32 c 1,277,-1
 242 30 l 1,278,279
 247 18 247 18 248 18 c 2,280,-1
 282 20 l 1,281,-1
 287 20 l 1,282,-1
 307 19 l 2,283,284
 307 18 307 18 309 18 c 1,285,-1
 309 20 l 1,286,-1
 346 20 l 2,287,288
 360 20 360 20 363 21 c 1,289,-1
 364 22 l 1,290,-1
 366 37 l 1,291,-1
 367 37 l 1,292,293
 366 38 366 38 366 42 c 2,294,-1
 367 92 l 1,295,-1
 370 92 l 1,296,-1
 369 98 l 1,297,-1
 371 117 l 1,298,-1
 371 138 l 1,299,-1
 373 139 l 1,300,-1
 371 139 l 1,301,-1
 371 153 l 1,302,-1
 369 172 l 1,303,-1
 370 181 l 1,304,-1
 370 194 l 1,305,306
 378 202 378 202 378 208 c 1,307,-1
 383 207 l 2,308,309
 384 206 384 206 384 204 c 2,310,-1
 384 202 l 1,311,-1
 430 201 l 1,175,-1
296 517 m 2,312,-1
 289 447 l 1,313,-1
 288 365 l 1,314,-1
 290 365 l 1,315,-1
 290 344 l 1,316,-1
 288 344 l 1,317,318
 286 346 286 346 285 346 c 2,319,-1
 284 343 l 2,320,321
 285 343 285 343 285 341 c 2,322,-1
 284 339 l 1,323,324
 277 332 277 332 257.5 332.5 c 128,-1,325
 238 333 238 333 231 333 c 2,326,-1
 187 331 l 1,327,-1
 187 330 l 1,328,-1
 148 329 l 1,329,-1
 148 328 l 1,330,-1
 145 330 l 1,331,332
 143 330 143 330 140 329 c 1,333,-1
 139 335 l 1,334,-1
 136 335 l 1,335,-1
 136 332 l 1,336,337
 133 334 133 334 133 337 c 1,338,-1
 139 343 l 1,339,-1
 148 368 l 1,340,-1
 150 368 l 1,341,342
 152 370 152 370 161 396 c 1,343,-1
 161 398 l 1,344,-1
 164 400 l 1,345,-1
 164 403 l 1,346,347
 166 403 166 403 168 405 c 2,348,-1
 192 442 l 1,349,-1
 197 451 l 1,350,-1
 196 453 l 1,351,-1
 198 453 l 1,352,-1
 209 468 l 1,353,-1
 211 468 l 1,354,-1
 225 490 l 1,355,-1
 225 493 l 1,356,357
 226 493 226 493 228 495 c 1,358,-1
 228 498 l 1,359,-1
 233 502 l 1,360,-1
 233 504 l 1,361,362
 247 517 247 517 250.5 524.5 c 128,-1,363
 254 532 254 532 255 532 c 1,364,-1
 255 535 l 1,365,366
 258 538 258 538 260 538 c 1,367,-1
 279 556 l 1,368,-1
 281 556 l 1,369,370
 282 557 282 557 282.5 559 c 128,-1,371
 283 561 283 561 288 562 c 1,372,-1
 286 550 l 1,373,-1
 287 529 l 1,374,-1
 293 530 l 1,375,376
 296 522 296 522 296 517 c 2,312,-1
208 421 m 1,377,-1
 203 418 l 1,378,-1
 203 415 l 1,379,380
 201 415 201 415 201 414 c 2,381,-1
 201 412 l 1,382,383
 197 411 197 411 191 393 c 2,384,-1
 183 370 l 1,385,386
 174 361 174 361 174 359 c 0,387,388
 172 354 172 354 170 354 c 1,389,-1
 165 347 l 2,390,391
 164 347 164 347 164 346 c 0,392,393
 163 344 163 344 163 343 c 1,394,-1
 216 343 l 1,395,-1
 224 345 l 1,396,397
 232 345 232 345 236 344 c 1,398,399
 244 344 244 344 264 346 c 1,400,-1
 266 360 l 1,401,-1
 267 360 l 1,402,403
 267 362 267 362 266 363 c 1,404,-1
 267 371 l 1,405,-1
 267 391 l 2,406,407
 267 393 267 393 266 394 c 1,408,-1
 267 394 l 1,409,410
 267 416 267 416 260 446 c 1,411,-1
 261 500 l 1,412,-1
 260 500 l 1,413,414
 254 494 254 494 253 488 c 1,415,-1
 251 488 l 1,416,417
 250 485 250 485 248 483 c 1,418,-1
 247 483 l 1,419,420
 247 479 247 479 244 479 c 1,421,-1
 244 476 l 1,422,-1
 233 465 l 1,423,-1
 231 459 l 2,424,425
 230 458 230 458 228 458 c 1,426,-1
 226 452 l 1,427,-1
 224 452 l 1,428,429
 221 449 221 449 212 435 c 1,430,-1
 212 433 l 1,431,-1
 207 429 l 1,432,-1
 207 427 l 1,433,-1
 203 424 l 1,434,-1
 208 421 l 1,377,-1
395 558 m 1,435,-1
 396 561 l 1,436,-1
 394 561 l 1,437,-1
 395 558 l 1,435,-1
EndSplineSet
EndChar

StartChar: five
Encoding: 53 53 24
Width: 503
GlyphClass: 2
Flags: W
LayerCount: 2
Fore
SplineSet
221 500 m 2,0,1
 264 500 264 500 300 496 c 1,2,-1
 300 494 l 1,3,4
 317 494 317 494 329 488 c 1,5,-1
 355 483 l 1,6,-1
 358 481 l 1,7,-1
 365 478 l 1,8,-1
 365 477 l 1,9,-1
 420 439 l 1,10,-1
 423 439 l 1,11,-1
 434 425 l 1,12,-1
 436 425 l 1,13,14
 436 423 436 423 446 399.5 c 128,-1,15
 456 376 456 376 462 341 c 2,16,-1
 464 329 l 1,17,-1
 464 316 l 1,18,-1
 466 316 l 1,19,-1
 464 314 l 1,20,-1
 466 313 l 1,21,-1
 464 313 l 1,22,-1
 463 281 l 2,23,24
 462 234 462 234 457 157 c 1,25,-1
 459 157 l 1,26,27
 458 151 458 151 458 145 c 0,28,29
 456 123 456 123 449 91 c 1,30,-1
 447 89 l 1,31,-1
 440 76 l 1,32,-1
 439 74 l 1,33,-1
 416 45 l 1,34,-1
 414 45 l 1,35,-1
 409 39 l 1,36,-1
 407 39 l 1,37,38
 399 31 399 31 363 16 c 1,39,-1
 316 6 l 1,40,-1
 308 6 l 1,41,-1
 308 4 l 1,42,-1
 257 1 l 1,43,-1
 233 2 l 1,44,45
 220 1 220 1 181 1 c 1,46,-1
 149 7 l 1,47,48
 148 6 148 6 143.5 6 c 128,-1,49
 139 6 139 6 138 7 c 1,50,-1
 138 8 l 1,51,-1
 126 11 l 1,52,53
 112 17 112 17 99 22 c 1,54,-1
 97 22 l 1,55,-1
 74 45 l 1,56,-1
 67 55 l 1,57,-1
 46 111 l 1,58,-1
 44 137 l 1,59,-1
 44 172 l 1,60,-1
 42 172 l 1,61,62
 43 213 43 213 46 216 c 1,63,-1
 52 217 l 1,64,-1
 52 218 l 1,65,-1
 89 217 l 1,66,-1
 99 217 l 1,67,-1
 130 219 l 1,68,-1
 171 220 l 1,69,70
 175 219 175 219 175 215 c 1,71,-1
 181 215 l 1,72,-1
 185 207 l 1,73,-1
 188 204 l 1,74,-1
 190 192 l 2,75,76
 191 187 191 187 194 177 c 1,77,-1
 210 163 l 1,78,-1
 233 156 l 1,79,-1
 240 155 l 1,80,-1
 259 157 l 1,81,82
 290 180 290 180 294 184 c 1,83,-1
 294 186 l 1,84,-1
 297 187 l 1,85,86
 311 220 311 220 311 229 c 2,87,-1
 311 239 l 1,88,-1
 312 253 l 1,89,-1
 311 290 l 1,90,-1
 310 297 l 1,91,-1
 299 320 l 1,92,93
 287 331 287 331 285 331 c 2,94,-1
 283 331 l 1,95,-1
 283 333 l 1,96,97
 280 333 280 333 269 336 c 1,98,-1
 269 337 l 1,99,100
 232 343 232 343 230 343 c 1,101,-1
 230 344 l 1,102,103
 201 351 201 351 192 351 c 128,-1,104
 183 351 183 351 175 350 c 2,105,-1
 158 349 l 1,106,-1
 123 351 l 1,107,-1
 118 351 l 1,108,-1
 95 350 l 1,109,-1
 54 350 l 1,110,-1
 54 349 l 1,111,112
 53 348 53 348 42 348 c 1,113,114
 42 353 42 353 37 354 c 1,115,-1
 38 356 l 1,116,117
 38 359 38 359 35 360 c 0,118,119
 32 360 32 360 32 365 c 1,120,121
 33 365 33 365 34 366 c 1,122,-1
 33 389 l 1,123,-1
 32 397 l 1,124,-1
 37 526 l 1,125,-1
 35 556 l 2,126,127
 34 556 34 556 34 558 c 1,128,-1
 36 558 l 1,129,-1
 36 564 l 1,130,-1
 37 588 l 1,131,132
 37 614 37 614 36 641 c 2,133,-1
 35 668 l 2,134,135
 35 681 35 681 38 690 c 1,136,-1
 44 693 l 1,137,-1
 53 692 l 1,138,-1
 53 693 l 1,139,140
 136 699 136 699 155 699 c 2,141,-1
 178 699 l 1,142,-1
 252 700 l 1,143,-1
 294 703 l 2,144,145
 305 703 305 703 307 704 c 1,146,-1
 320 704 l 1,147,-1
 335 700 l 1,148,-1
 461 697 l 1,149,-1
 462 692 l 1,150,-1
 463 635 l 1,151,-1
 460 634 l 1,152,-1
 461 590 l 2,153,154
 462 590 462 590 463 589 c 1,155,-1
 460 558 l 2,156,157
 461 558 461 558 461 556 c 1,158,-1
 460 555 l 1,159,-1
 457 551 l 1,160,-1
 400 543 l 1,161,-1
 357 548 l 1,162,-1
 357 546 l 1,163,-1
 347 545 l 1,164,165
 328 545 328 545 312 543 c 1,166,-1
 249 542 l 1,167,168
 235 544 235 544 225 544 c 2,169,-1
 186 543 l 1,170,171
 186 534 186 534 187 532 c 2,172,-1
 189 519 l 2,173,174
 191 503 191 503 193 503 c 1,175,-1
 193 501 l 1,176,-1
 202 501 l 1,177,178
 203 500 203 500 205 500 c 2,179,-1
 221 500 l 2,0,1
257 481 m 1,180,-1
 246 480 l 1,181,182
 221 480 221 480 212.5 482.5 c 128,-1,183
 204 485 204 485 203 485 c 2,184,-1
 200 486 l 1,185,-1
 200 488 l 1,186,-1
 193 488 l 2,187,188
 183 488 183 488 181 486 c 1,189,190
 174 488 174 488 173 490.5 c 128,-1,191
 172 493 172 493 172 507 c 2,192,-1
 171 548 l 1,193,-1
 168 548 l 1,194,195
 171 557 171 557 179 559 c 1,196,-1
 182 557 l 1,197,-1
 204 559 l 1,198,-1
 244 562 l 2,199,200
 248 562 248 562 263 567 c 1,201,202
 263 565 263 565 262 564 c 1,203,-1
 270 564 l 1,204,205
 271 565 271 565 274 565 c 2,206,-1
 325 565 l 1,207,-1
 325 570 l 1,208,-1
 344 570 l 1,209,-1
 344 568 l 1,210,-1
 349 570 l 1,211,-1
 351 568 l 1,212,213
 357 569 357 569 447 572 c 1,214,215
 449 586 449 586 449 619 c 128,-1,216
 449 652 449 652 444 672 c 1,217,-1
 442 672 l 1,218,-1
 440 684 l 1,219,-1
 432 682 l 2,220,221
 430 682 430 682 422 684 c 1,222,-1
 348 685 l 1,223,-1
 346 684 l 1,224,-1
 330 685 l 2,225,226
 322 685 322 685 321 682 c 1,227,-1
 319 684 l 1,228,229
 317 684 317 684 317 683 c 1,230,-1
 316 683 l 1,231,-1
 283 684 l 1,232,-1
 266 683 l 1,233,-1
 227 683 l 1,234,-1
 217 685 l 1,235,-1
 171 685 l 1,236,-1
 107 680 l 1,237,-1
 84 675 l 1,238,-1
 56 679 l 1,239,-1
 54 675 l 1,240,-1
 53 644 l 1,241,-1
 51 644 l 1,242,243
 50 641 50 641 50 634 c 2,244,-1
 50 613 l 2,245,246
 50 589 50 589 49 566 c 1,247,-1
 51 566 l 1,248,-1
 51 507 l 1,249,-1
 54 445 l 2,250,251
 54 440 54 440 55 439 c 2,252,-1
 56 373 l 1,253,-1
 66 371 l 1,254,-1
 88 368 l 1,255,-1
 114 368 l 1,256,-1
 126 369 l 1,257,-1
 152 368 l 1,258,-1
 170 366 l 1,259,-1
 216 362 l 1,260,261
 242 353 242 353 267 353 c 1,262,-1
 286 350 l 1,263,-1
 286 349 l 1,264,265
 305 338 305 338 305 337 c 2,266,-1
 308 335 l 1,267,-1
 308 333 l 1,268,269
 314 323 314 323 320 308 c 2,270,-1
 325 295 l 1,271,-1
 326 285 l 2,272,273
 326 277 326 277 330 245 c 1,274,-1
 331 225 l 1,275,-1
 329 225 l 1,276,277
 320 195 320 195 320 190 c 1,278,-1
 313 175 l 1,279,280
 311 175 311 175 311 174 c 2,281,-1
 311 172 l 1,282,-1
 308 171 l 1,283,-1
 291 150 l 1,284,-1
 289 150 l 1,285,286
 288 149 288 149 288 148 c 1,287,-1
 285 148 l 1,288,289
 268 138 268 138 267 137 c 0,290,291
 243 131 243 131 229 131 c 2,292,-1
 225 131 l 1,293,-1
 225 133 l 1,294,295
 219 133 219 133 195 148 c 1,296,-1
 189 151 l 1,297,-1
 177 185 l 1,298,-1
 175 185 l 1,299,-1
 173 202 l 1,300,-1
 173 204 l 1,301,-1
 136 204 l 1,302,-1
 132 203 l 1,303,-1
 129 203 l 1,304,-1
 118 205 l 1,305,-1
 62 200 l 2,306,307
 61 199 61 199 55 199 c 1,308,-1
 55 197 l 1,309,310
 53 195 53 195 53 171 c 128,-1,311
 53 147 53 147 58 136 c 1,312,-1
 59 123 l 1,313,-1
 75 77 l 1,314,315
 79 73 79 73 79 70 c 2,316,-1
 79 68 l 1,317,-1
 81 68 l 1,318,319
 83 59 83 59 93 51 c 128,-1,320
 103 43 103 43 103 42 c 1,321,-1
 105 42 l 1,322,-1
 134 25 l 1,323,-1
 136 25 l 1,324,325
 137 24 137 24 137 23 c 2,326,-1
 182 16 l 2,327,328
 183 15 183 15 195 15 c 128,-1,329
 207 15 207 15 278 19 c 1,330,331
 286 22 286 22 297 22 c 2,332,-1
 319 22 l 1,333,-1
 367 37 l 1,334,-1
 370 39 l 1,335,336
 375 39 375 39 375 41 c 2,337,-1
 375 42 l 2,338,339
 375 44 375 44 399 56 c 1,340,-1
 414 75 l 1,341,-1
 414 77 l 1,342,343
 422 85 422 85 437 119 c 1,344,-1
 439 122 l 1,345,346
 439 154 439 154 446 175 c 1,347,-1
 449 227 l 1,348,-1
 448 239 l 2,349,350
 448 243 448 243 451 276 c 1,351,-1
 448 312 l 1,352,-1
 446 322 l 2,353,354
 444 330 444 330 442 336 c 2,355,-1
 437 353 l 2,356,357
 432 368 432 368 401 403.5 c 128,-1,358
 370 439 370 439 370 440 c 0,359,360
 355 449 355 449 355 451 c 1,361,-1
 329 464 l 1,362,-1
 326 468 l 1,363,364
 276 475 276 475 257 481 c 1,180,-1
EndSplineSet
EndChar

StartChar: six
Encoding: 54 54 25
Width: 503
GlyphClass: 2
Flags: W
LayerCount: 2
Fore
SplineSet
205 344 m 1,0,-1
 227 356 l 1,1,-1
 227 357 l 1,2,3
 232 357 232 357 251.5 365 c 128,-1,4
 271 373 271 373 271 375 c 2,5,-1
 271 376 l 1,6,7
 273 377 273 377 289 377 c 2,8,-1
 308 377 l 1,9,-1
 356 368 l 1,10,-1
 358 365 l 1,11,-1
 403 349 l 2,12,13
 403 348 403 348 408.5 345 c 128,-1,14
 414 342 414 342 414 340 c 1,15,-1
 417 340 l 1,16,17
 422 334 422 334 425 334 c 1,18,-1
 425 331 l 1,19,-1
 427 331 l 1,20,21
 430 328 430 328 432 325 c 0,22,23
 435 320 435 320 438 320 c 1,24,-1
 445 309 l 1,25,26
 451 303 451 303 451 294 c 1,27,-1
 452 292 l 1,28,-1
 453 288 l 1,29,-1
 466 277 l 1,30,-1
 467 269 l 1,31,-1
 469 269 l 1,32,-1
 478 201 l 2,33,34
 479 200 479 200 479 192 c 2,35,-1
 478 176 l 1,36,-1
 478 160 l 1,37,-1
 476 160 l 1,38,39
 476 153 476 153 475 152 c 2,40,-1
 464 115 l 1,41,-1
 463 108 l 1,42,-1
 461 100 l 1,43,-1
 452 81 l 2,44,45
 451 80 451 80 449 80 c 1,46,-1
 449 77 l 1,47,48
 448 77 448 77 447 76 c 1,49,-1
 447 74 l 1,50,51
 444 74 444 74 439.5 64 c 128,-1,52
 435 54 435 54 430 53 c 1,53,-1
 427 55 l 1,54,55
 419 47 419 47 419 46 c 1,56,-1
 417 46 l 1,57,58
 387 30 387 30 383 26 c 1,59,60
 382 27 382 27 381 27 c 1,61,-1
 381 25 l 1,62,63
 375 25 375 25 348 15 c 1,64,-1
 241 1 l 1,65,-1
 241 2 l 1,66,-1
 235 0 l 1,67,-1
 234 2 l 1,68,-1
 184 5 l 1,69,-1
 184 6 l 1,70,71
 183 7 183 7 178 7 c 1,72,-1
 178 9 l 1,73,74
 174 9 174 9 173 10 c 1,75,-1
 173 11 l 1,76,-1
 157 16 l 1,77,-1
 154 16 l 1,78,-1
 154 18 l 1,79,-1
 144 22 l 1,80,81
 141 22 141 22 121 36 c 1,82,-1
 119 36 l 1,83,-1
 96 60 l 1,84,-1
 94 60 l 1,85,86
 70 84 70 84 65 86 c 1,87,-1
 65 89 l 1,88,89
 61 89 61 89 61 97 c 1,90,-1
 49 126 l 1,91,-1
 41 139 l 1,92,93
 41 137 41 137 40 137 c 2,94,-1
 36 156 l 1,95,-1
 37 164 l 1,96,-1
 35 176 l 1,97,-1
 35 183 l 1,98,-1
 37 208 l 2,99,100
 37 217 37 217 36 224 c 2,101,-1
 34 245 l 1,102,-1
 32 245 l 1,103,-1
 31 282 l 1,104,-1
 30 301 l 1,105,-1
 32 309 l 1,106,-1
 32 311 l 2,107,108
 32 315 32 315 31 316 c 1,109,-1
 34 394 l 1,110,-1
 32 394 l 1,111,-1
 34 397 l 1,112,-1
 34 459 l 1,113,-1
 35 460 l 1,114,-1
 34 460 l 1,115,116
 34 471 34 471 36 473 c 1,117,-1
 36 503 l 1,118,119
 37 516 37 516 37 525 c 1,120,-1
 36 531 l 1,121,-1
 37 550 l 1,122,-1
 44 573 l 1,123,-1
 51 577 l 1,124,-1
 54 586 l 1,125,-1
 56 586 l 1,126,-1
 62 599 l 2,127,128
 71 618 71 618 72 618 c 1,129,-1
 72 621 l 1,130,131
 75 624 75 624 77 624 c 1,132,-1
 95 641 l 1,133,134
 104 646 104 646 104 650 c 1,135,-1
 106 650 l 1,136,137
 107 651 107 651 107 652 c 1,138,-1
 110 652 l 1,139,-1
 121 660 l 1,140,141
 129 668 129 668 151 677.5 c 128,-1,142
 173 687 173 687 187 687 c 1,143,-1
 208 696 l 1,144,-1
 215 696 l 1,145,-1
 215 698 l 1,146,-1
 240 701 l 1,147,-1
 318 702 l 1,148,149
 326 699 326 699 342 694.5 c 128,-1,150
 358 690 358 690 368 687 c 0,151,152
 394 679 394 679 410 666 c 1,153,-1
 428 641 l 1,154,155
 432 633 432 633 435.5 626 c 128,-1,156
 439 619 439 619 442 615 c 1,157,-1
 452 586 l 1,158,-1
 455 568 l 1,159,-1
 457 568 l 1,160,-1
 455 544 l 1,161,-1
 457 544 l 1,162,-1
 458 535 l 1,163,164
 458 514 458 514 459 512 c 1,165,166
 458 511 458 511 458 504 c 128,-1,167
 458 497 458 497 458.5 492.5 c 128,-1,168
 459 488 459 488 459.5 486.5 c 128,-1,169
 460 485 460 485 460.5 484 c 128,-1,170
 461 483 461 483 461 482 c 0,171,172
 460 480 460 480 449 475 c 1,173,174
 449 477 449 477 433 478 c 1,175,-1
 389 476 l 1,176,-1
 373 476 l 1,177,178
 363 474 363 474 360 474 c 2,179,-1
 336 474 l 2,180,181
 328 474 328 474 323 473 c 1,182,183
 319 477 319 477 319 500 c 1,184,-1
 318 520 l 1,185,-1
 316 520 l 1,186,187
 316 521 316 521 311 536 c 0,188,189
 310 536 310 536 309 537 c 1,190,-1
 309 539 l 1,191,-1
 302 546 l 1,192,-1
 299 546 l 1,193,194
 299 548 299 548 298 548 c 2,195,-1
 296 548 l 1,196,-1
 295 551 l 1,197,-1
 265 561 l 2,198,199
 262 561 262 561 261 562 c 1,200,-1
 257 560 l 1,201,-1
 250 561 l 1,202,203
 244 558 244 558 242 556 c 1,204,-1
 242 555 l 1,205,206
 240 555 240 555 227.5 540 c 128,-1,207
 215 525 215 525 208 523 c 1,208,-1
 208 521 l 1,209,-1
 206 513 l 1,210,-1
 204 508 l 1,211,-1
 203 506 l 1,212,-1
 202 493 l 1,213,-1
 200 490 l 1,214,-1
 198 473 l 1,215,-1
 197 471 l 1,216,-1
 198 471 l 1,217,-1
 193 423 l 1,218,-1
 195 358 l 1,219,-1
 195 348 l 2,220,221
 195 340 195 340 197 338 c 1,222,-1
 205 342 l 1,223,-1
 205 344 l 1,0,-1
402 58 m 1,224,225
 408 58 408 58 411 63 c 1,226,-1
 423 68 l 2,227,228
 424 69 424 69 425.5 71 c 128,-1,229
 427 73 427 73 429 74 c 1,230,-1
 429 76 l 1,231,232
 434 86 434 86 436 88 c 2,233,-1
 437 90 l 1,234,-1
 439 97 l 1,235,-1
 440 97 l 1,236,237
 446 103 446 103 446 112 c 1,238,-1
 454 143 l 1,239,-1
 456 154 l 1,240,-1
 456 205 l 2,241,242
 456 214 456 214 452 266 c 1,243,-1
 450 266 l 1,244,-1
 449 269 l 1,245,246
 449 276 449 276 448 277 c 2,247,-1
 435 286 l 1,248,-1
 434 289 l 2,249,250
 433 290 433 290 433 292.5 c 128,-1,251
 433 295 433 295 432 296 c 2,252,-1
 431 302 l 1,253,-1
 421 321 l 2,254,255
 420 322 420 322 419 322 c 1,256,-1
 419 325 l 1,257,-1
 409 335 l 1,258,-1
 406 335 l 1,259,-1
 395 343 l 2,260,261
 395 344 395 344 391 344 c 128,-1,262
 387 344 387 344 385 345 c 1,263,-1
 385 346 l 1,264,265
 379 347 379 347 368 348 c 0,266,267
 334 351 334 351 331 357 c 128,-1,268
 328 363 328 363 324 362.5 c 128,-1,269
 320 362 320 362 316 362 c 1,270,271
 314 363 314 363 302.5 360.5 c 128,-1,272
 291 358 291 358 278 358 c 0,273,274
 263 358 263 358 257 356 c 1,275,-1
 264 355 l 1,276,-1
 261 354 l 1,277,278
 261 352 261 352 240 345 c 1,279,-1
 240 344 l 1,280,281
 238 344 238 344 236.5 340 c 128,-1,282
 235 336 235 336 233 336 c 1,283,-1
 231 334 l 1,284,-1
 208 321 l 1,285,-1
 208 320 l 1,286,287
 207 319 207 319 204.5 318.5 c 128,-1,288
 202 318 202 318 202 316 c 1,289,-1
 188 309 l 1,290,-1
 183 299 l 1,291,-1
 179 299 l 1,292,293
 179 297 179 297 177 295 c 1,294,-1
 175 295 l 1,295,296
 174 296 174 296 174 297 c 2,297,-1
 174 298 l 1,298,299
 170 302 170 302 170 310 c 1,300,-1
 172 310 l 1,301,-1
 172 318 l 1,302,-1
 171 335 l 1,303,304
 171 356 171 356 174 362 c 1,305,-1
 175 436 l 1,306,307
 178 457 178 457 180 476 c 0,308,309
 182 508 182 508 184 510 c 1,310,-1
 185 510 l 1,311,-1
 186 520 l 1,312,-1
 202 539 l 1,313,-1
 204 539 l 1,314,315
 205 547 205 547 206 549 c 128,-1,316
 207 551 207 551 211 551 c 1,317,-1
 204 553 l 1,318,-1
 211 556 l 1,319,-1
 211 557 l 1,320,-1
 218 558 l 1,321,-1
 244 572 l 2,322,323
 258 579 258 579 266.5 579 c 128,-1,324
 275 579 275 579 301 565 c 1,325,-1
 303 565 l 1,326,327
 303 564 303 564 304 563 c 1,328,-1
 306 563 l 1,329,330
 317 551 317 551 320 551 c 1,331,-1
 320 548 l 1,332,333
 327 548 327 548 331.5 528.5 c 128,-1,334
 336 509 336 509 336 490 c 1,335,-1
 345 487 l 1,336,-1
 362 487 l 1,337,-1
 374 486 l 2,338,339
 380 486 380 486 381 487 c 2,340,-1
 424 489 l 1,341,342
 434 492 434 492 447 492 c 1,343,-1
 446 556 l 1,344,-1
 431 604 l 1,345,-1
 431 607 l 1,346,-1
 423 622 l 1,347,-1
 415 632 l 1,348,-1
 412 632 l 1,349,-1
 412 634 l 1,350,351
 404 636 404 636 389 656 c 1,352,-1
 386 656 l 1,353,-1
 375 662 l 1,354,-1
 374 662 l 1,355,-1
 372 665 l 1,356,-1
 350 672 l 1,357,-1
 314 681 l 1,358,-1
 314 679 l 1,359,360
 312 679 312 679 312 681 c 1,361,-1
 261 681 l 1,362,363
 250 679 250 679 239 677 c 128,-1,364
 228 675 228 675 223.5 674 c 128,-1,365
 219 673 219 673 218 673 c 1,366,-1
 218 672 l 1,367,-1
 176 660 l 1,368,-1
 171 660 l 1,369,370
 164 657 164 657 159 657 c 1,371,-1
 121 642 l 1,372,-1
 115 638 l 1,373,-1
 103 625 l 1,374,-1
 103 623 l 1,375,376
 101 621 101 621 100 620.5 c 128,-1,377
 99 620 99 620 96 616 c 2,378,-1
 87 608 l 1,379,-1
 63 553 l 1,380,-1
 60 522 l 1,381,-1
 61 508 l 2,382,383
 61 494 61 494 58 483 c 1,384,-1
 56 449 l 1,385,-1
 56 388 l 1,386,-1
 54 386 l 1,387,-1
 55 384 l 1,388,-1
 54 384 l 1,389,-1
 53 359 l 1,390,-1
 51 326 l 2,391,392
 51 315 51 315 52 313 c 2,393,-1
 53 278 l 1,394,395
 52 277 52 277 52 275 c 2,396,-1
 57 204 l 2,397,398
 57 192 57 192 60 184 c 1,399,-1
 63 151 l 1,400,-1
 83 96 l 1,401,402
 90 89 90 89 102 83 c 1,403,-1
 102 81 l 1,404,405
 110 70 110 70 125.5 56 c 128,-1,406
 141 42 141 42 145 42 c 2,407,-1
 149 42 l 2,408,409
 151 42 151 42 152 41 c 1,410,-1
 152 40 l 1,411,-1
 156 39 l 1,412,-1
 181 27 l 2,413,414
 182 26 182 26 246 20 c 1,415,-1
 268 22 l 1,416,-1
 284 23 l 1,417,-1
 329 32 l 1,418,-1
 329 33 l 1,419,420
 330 33 330 33 334 34.5 c 128,-1,421
 338 36 338 36 357 41 c 1,422,-1
 367 46 l 1,423,424
 378 46 378 46 402 58 c 1,224,225
241 162 m 1,425,426
 238 170 238 170 238 170 c 1,427,-1
 236 170 l 1,428,-1
 233 193 l 1,429,-1
 236 213 l 1,430,-1
 239 214 l 1,431,432
 239 221 239 221 252 234 c 1,433,-1
 252 235 l 1,434,435
 254 235 254 235 266.5 240.5 c 128,-1,436
 279 246 279 246 286 248 c 1,437,-1
 285 250 l 1,438,-1
 322 256 l 1,439,-1
 322 255 l 1,440,-1
 348 255 l 1,441,-1
 349 253 l 1,442,443
 352 253 352 253 360 245 c 1,444,-1
 360 243 l 1,445,-1
 363 241 l 1,446,447
 363 241 363 241 366 237 c 1,448,-1
 366 235 l 1,449,450
 369 233 369 233 372.5 222.5 c 128,-1,451
 376 212 376 212 376 207 c 1,452,-1
 372 205 l 1,453,-1
 376 206 l 1,454,-1
 371 190 l 1,455,-1
 358 164 l 1,456,457
 347 153 347 153 344 151 c 2,458,-1
 309 135 l 2,459,460
 308 134 308 134 301 134 c 2,461,-1
 284 136 l 1,462,-1
 279 135 l 1,463,-1
 268 138 l 1,464,-1
 265 137 l 1,465,466
 265 139 265 139 257 144 c 1,467,-1
 256 146 l 1,468,-1
 253 146 l 1,469,-1
 243 162 l 1,470,-1
 241 162 l 1,425,426
339 162 m 1,471,-1
 340 168 l 1,472,-1
 343 168 l 1,473,474
 350 175 350 175 350 178 c 2,475,-1
 350 179 l 1,476,477
 355 179 355 179 355 188 c 2,478,-1
 355 209 l 2,479,480
 355 222 355 222 344 229.5 c 128,-1,481
 333 237 333 237 318 237 c 256,482,483
 303 237 303 237 294 232 c 128,-1,484
 285 227 285 227 277 226 c 1,485,-1
 277 224 l 1,486,-1
 272 222 l 1,487,-1
 273 221 l 1,488,-1
 271 221 l 1,489,-1
 259 209 l 1,490,-1
 259 207 l 1,491,492
 249 193 249 193 247 191 c 1,493,-1
 247 180 l 1,494,-1
 249 173 l 1,495,-1
 251 173 l 1,496,-1
 251 170 l 1,497,-1
 257 163 l 1,498,-1
 257 158 l 1,499,-1
 259 158 l 1,500,-1
 259 156 l 1,501,-1
 277 150 l 2,502,503
 277 149 277 149 278 148 c 1,504,505
 279 149 279 149 280 149 c 2,506,-1
 284 147 l 1,507,-1
 285 148 l 1,508,-1
 285 146 l 1,509,510
 305 146 305 146 317 153 c 1,511,-1
 332 159 l 1,512,-1
 332 161 l 1,513,-1
 339 162 l 1,471,-1
EndSplineSet
EndChar

StartChar: seven
Encoding: 55 55 26
Width: 476
GlyphClass: 2
Flags: W
LayerCount: 2
Fore
SplineSet
336 319 m 1,0,-1
 334 311 l 1,1,-1
 332 311 l 1,2,-1
 310 272 l 1,3,-1
 309 267 l 1,4,-1
 306 266 l 1,5,-1
 297 250 l 1,6,-1
 297 246 l 1,7,8
 291 240 291 240 290 237 c 1,9,-1
 290 234 l 1,10,-1
 276 212 l 1,11,-1
 276 209 l 1,12,-1
 275 210 l 1,13,-1
 275 207 l 1,14,-1
 272 205 l 1,15,-1
 255 173 l 1,16,-1
 255 170 l 1,17,-1
 253 170 l 1,18,-1
 238 144 l 1,19,20
 236 138 236 138 233 135 c 1,21,-1
 233 132 l 1,22,23
 232 132 232 132 223 119 c 1,24,-1
 223 115 l 1,25,26
 222 115 222 115 206 89 c 1,27,-1
 177 30 l 1,28,29
 163 4 163 4 163 2 c 1,30,-1
 162 2 l 1,31,32
 161 3 161 3 161 6 c 1,33,34
 155 8 155 8 154 8 c 2,35,-1
 145 6 l 1,36,-1
 143 8 l 1,37,-1
 143 6 l 1,38,39
 142 7 142 7 134 7 c 2,40,-1
 111 5 l 1,41,-1
 89 6 l 1,42,-1
 52 5 l 1,43,-1
 28 2 l 1,44,-1
 26 1 l 1,45,-1
 27 2 l 1,46,47
 21 2 21 2 21 5 c 1,48,-1
 16 6 l 1,49,-1
 16 12 l 1,50,51
 23 25 23 25 33 54 c 1,52,-1
 34 54 l 1,53,-1
 36 58 l 1,54,-1
 37 58 l 1,55,56
 37 64 37 64 41 64 c 1,57,-1
 42 70 l 2,58,59
 43 70 43 70 44 71 c 2,60,-1
 56 94 l 1,61,-1
 56 97 l 1,62,-1
 57 96 l 1,63,64
 71 117 71 117 71 129 c 1,65,-1
 72 129 l 1,66,67
 84 156 84 156 86 156 c 1,68,-1
 99 184 l 2,69,70
 100 185 100 185 102 190 c 0,71,72
 109 201 109 201 111 201 c 1,73,-1
 111 205 l 1,74,-1
 114 207 l 1,75,76
 114 210 114 210 132 244 c 1,77,78
 132 248 132 248 133 249 c 1,79,-1
 134 249 l 1,80,81
 138 259 138 259 142 271 c 1,82,-1
 144 273 l 1,83,-1
 146 280 l 1,84,-1
 152 296 l 1,85,86
 155 299 155 299 155 300 c 2,87,-1
 155 301 l 1,88,-1
 172 331 l 1,89,-1
 173 331 l 1,90,-1
 184 355 l 1,91,-1
 185 355 l 1,92,-1
 193 376 l 1,93,94
 196 380 196 380 204 402 c 1,95,-1
 205 402 l 1,96,-1
 207 409 l 1,97,-1
 212 421 l 1,98,-1
 214 424 l 1,99,-1
 216 429 l 1,100,-1
 218 432 l 1,101,-1
 228 457 l 1,102,-1
 232 465 l 1,103,-1
 233 465 l 1,104,105
 234 466 234 466 234 468 c 1,106,-1
 235 468 l 1,107,108
 247 491 247 491 247 496 c 1,109,-1
 250 501 l 1,110,-1
 251 500 l 1,111,-1
 270 540 l 1,112,-1
 270 543 l 1,113,114
 271 544 271 544 273 544 c 1,115,-1
 274 549 l 1,116,-1
 278 559 l 1,117,118
 274 559 274 559 273 560 c 1,119,-1
 273 561 l 1,120,-1
 260 560 l 1,121,-1
 204 562 l 2,122,123
 195 562 195 562 194 561 c 1,124,125
 181 563 181 563 129 565 c 2,126,-1
 102 566 l 2,127,128
 81 566 81 566 54 567 c 1,129,-1
 28 566 l 1,130,-1
 22 566 l 1,131,-1
 21 578 l 1,132,-1
 21 579 l 1,133,-1
 23 590 l 1,134,-1
 24 590 l 1,135,-1
 25 600 l 1,136,-1
 26 603 l 2,137,138
 27 604 27 604 27 611 c 2,139,-1
 26 625 l 2,140,141
 26 626 26 626 27 627 c 1,142,-1
 25 641 l 1,143,-1
 26 682 l 1,144,-1
 28 691 l 1,145,-1
 27 691 l 1,146,147
 26 692 26 692 26 695 c 1,148,149
 27 696 27 696 29 696 c 1,150,-1
 29 699 l 1,151,-1
 27 699 l 1,152,153
 28 703 28 703 30 703 c 0,154,155
 46 703 46 703 62 705 c 1,156,-1
 86 705 l 2,157,158
 97 705 97 705 99 704 c 1,159,-1
 152 706 l 2,160,161
 153 707 153 707 158 707 c 2,162,-1
 172 706 l 1,163,-1
 246 706 l 1,164,165
 247 707 247 707 254 707 c 2,166,-1
 324 706 l 2,167,168
 332 706 332 706 333 705 c 1,169,-1
 333 707 l 1,170,-1
 337 705 l 1,171,-1
 357 706 l 2,172,173
 363 706 363 706 364 705 c 1,174,175
 366 706 366 706 368 706 c 2,176,-1
 375 705 l 1,177,-1
 389 706 l 1,178,-1
 397 705 l 1,179,-1
 397 707 l 1,180,181
 398 706 398 706 414.5 706 c 128,-1,182
 431 706 431 706 436 708 c 1,183,-1
 436 706 l 1,184,-1
 441 707 l 1,185,186
 449 707 449 707 458 701 c 1,187,188
 458 684 458 684 457 663 c 1,189,-1
 455 661 l 1,190,-1
 457 660 l 1,191,-1
 456 654 l 1,192,-1
 458 630 l 1,193,-1
 459 629 l 1,194,-1
 457 628 l 1,195,-1
 459 627 l 1,196,-1
 458 623 l 1,197,-1
 459 623 l 1,198,-1
 457 592 l 2,199,200
 456 577 456 577 456 572 c 128,-1,201
 456 567 456 567 458 565 c 1,202,-1
 459 558 l 1,203,-1
 446 525 l 1,204,-1
 443 518 l 1,205,-1
 442 518 l 1,206,-1
 402 442 l 2,207,208
 401 441 401 441 401 439.5 c 128,-1,209
 401 438 401 438 400 438 c 2,210,-1
 391 423 l 1,211,-1
 389 420 l 1,212,213
 388 416 388 416 384 411 c 1,214,-1
 379 402 l 1,215,-1
 378 397 l 1,216,-1
 368 379 l 1,217,-1
 368 375 l 1,218,219
 364 375 364 375 363 369 c 128,-1,220
 362 363 362 363 359 363 c 1,221,-1
 359 360 l 1,222,223
 337 320 337 320 337 319 c 1,224,-1
 336 319 l 1,0,-1
134 28 m 1,225,-1
 149 24 l 1,226,-1
 152 25 l 1,227,-1
 152 27 l 1,228,229
 153 28 153 28 154 28 c 1,230,-1
 154 31 l 1,231,-1
 156 31 l 1,232,-1
 156 34 l 1,233,234
 161 44 161 44 164 48.5 c 128,-1,235
 167 53 167 53 168 54 c 2,236,-1
 173 65 l 1,237,-1
 175 70 l 1,238,-1
 190 96 l 1,239,-1
 191 101 l 1,240,-1
 198 112 l 1,241,-1
 200 112 l 1,242,243
 209 134 209 134 212 134 c 1,244,-1
 231 170 l 1,245,-1
 232 170 l 1,246,-1
 239 184 l 1,247,-1
 249 201 l 1,248,-1
 252 210 l 1,249,-1
 254 210 l 1,250,-1
 264 230 l 2,251,252
 266 235 266 235 268 240 c 128,-1,253
 270 245 270 245 271 248 c 0,254,255
 273 257 273 257 278 260 c 1,256,257
 278 275 278 275 291 288 c 1,258,-1
 312 328 l 1,259,-1
 321 348 l 1,260,-1
 331 363 l 1,261,-1
 342 388 l 1,262,-1
 346 396 l 2,263,264
 347 396 347 396 348 397 c 2,265,-1
 381 459 l 1,266,-1
 385 466 l 2,267,268
 385 468 385 468 405 503 c 1,269,-1
 405 507 l 1,270,271
 408 507 408 507 418 526 c 1,272,-1
 418 529 l 1,273,-1
 419 528 l 1,274,-1
 420 533 l 1,275,-1
 422 533 l 1,276,277
 422 534 422 534 424 537 c 0,278,279
 430 549 430 549 434 561 c 1,280,-1
 437 564 l 1,281,-1
 437 575 l 1,282,-1
 438 595 l 1,283,-1
 437 642 l 2,284,285
 437 648 437 648 435 665 c 128,-1,286
 433 682 433 682 433 687 c 1,287,-1
 434 686 l 1,288,-1
 434 688 l 1,289,-1
 438 688 l 1,290,-1
 438 695 l 1,291,-1
 357 697 l 2,292,293
 356 697 356 697 355 698 c 1,294,295
 354 697 354 697 344 697 c 2,296,-1
 333 697 l 1,297,-1
 306 696 l 1,298,-1
 232 690 l 1,299,-1
 223 691 l 1,300,-1
 193 689 l 2,301,302
 184 689 184 689 183 690 c 1,303,304
 175 688 175 688 168 688 c 2,305,-1
 141 689 l 1,306,-1
 141 688 l 1,307,-1
 119 688 l 2,308,309
 111 688 111 688 89 690 c 1,310,-1
 46 688 l 2,311,312
 44 688 44 688 44 690 c 1,313,314
 38 690 38 690 38 675 c 2,315,-1
 39 660 l 1,316,-1
 37 660 l 1,317,318
 38 659 38 659 38 656 c 1,319,320
 34 649 34 649 34 623 c 1,321,-1
 35 606 l 2,322,323
 35 604 35 604 34 599 c 1,324,-1
 36 593 l 1,325,326
 36 582 36 582 46 582 c 2,327,-1
 58 583 l 1,328,329
 61 580 61 580 69 580 c 2,330,-1
 119 582 l 1,331,332
 169 582 169 582 292 572 c 1,333,-1
 314 570 l 1,334,-1
 313 564 l 1,335,-1
 312 564 l 1,336,337
 313 563 313 563 313 553 c 1,338,-1
 311 553 l 1,339,-1
 309 549 l 1,340,-1
 306 541 l 1,341,342
 304 540 304 540 304 539 c 2,343,-1
 302 532 l 1,344,-1
 300 532 l 1,345,-1
 290 511 l 1,346,-1
 288 504 l 1,347,-1
 285 500 l 1,348,-1
 284 496 l 1,349,-1
 273 473 l 1,350,-1
 271 473 l 1,351,-1
 264 455 l 1,352,353
 260 455 260 455 260 450 c 1,354,-1
 258 447 l 2,355,356
 257 447 257 447 257 445 c 1,357,-1
 247 428 l 1,358,-1
 244 419 l 1,359,-1
 242 419 l 1,360,361
 240 411 240 411 240 410 c 2,362,-1
 237 407 l 1,363,-1
 232 394 l 2,364,365
 231 394 231 394 230 393 c 1,366,-1
 230 390 l 1,367,-1
 228 390 l 1,368,-1
 217 367 l 1,369,-1
 213 361 l 1,370,-1
 203 340 l 2,371,372
 202 339 202 339 202 336.5 c 128,-1,373
 202 334 202 334 201 333 c 1,374,-1
 199 333 l 1,375,-1
 198 330 l 1,376,-1
 188 309 l 1,377,-1
 182 295 l 1,378,379
 171 275 171 275 171 273 c 2,380,-1
 169 269 l 1,381,-1
 168 269 l 1,382,-1
 150 232 l 1,383,-1
 149 229 l 1,384,-1
 146 227 l 1,385,-1
 139 211 l 1,386,-1
 137 211 l 1,387,-1
 137 207 l 1,388,389
 134 207 134 207 126 186 c 1,390,-1
 118 169 l 1,391,-1
 116 164 l 1,392,-1
 115 164 l 1,393,394
 113 160 113 160 107 151 c 1,395,396
 83 98 83 98 83 96 c 1,397,-1
 82 96 l 1,398,399
 82 93 82 93 75 83 c 1,400,-1
 64 60 l 1,401,-1
 64 57 l 1,402,403
 62 57 62 57 61.5 56.5 c 128,-1,404
 61 56 61 56 59 49 c 1,405,-1
 58 49 l 1,406,-1
 55 42 l 1,407,-1
 54 43 l 1,408,-1
 50 33 l 1,409,-1
 49 29 l 1,410,-1
 47 29 l 1,411,-1
 47 19 l 1,412,413
 48 18 48 18 54 18 c 2,414,-1
 73 19 l 1,415,-1
 133 28 l 1,416,-1
 134 29 l 1,417,-1
 134 28 l 1,225,-1
442 584 m 1,418,-1
 443 584 l 1,419,-1
 444 590 l 1,420,-1
 442 590 l 1,421,-1
 442 584 l 1,418,-1
EndSplineSet
EndChar

StartChar: eight
Encoding: 56 56 27
Width: 490
GlyphClass: 2
Flags: W
LayerCount: 2
Fore
SplineSet
410 645 m 1,0,-1
 411 641 l 1,1,-1
 421 632 l 1,2,-1
 421 630 l 1,3,4
 431 625 431 625 437 610 c 128,-1,5
 443 595 443 595 445 592 c 1,6,-1
 447 592 l 1,7,-1
 447 583 l 2,8,9
 447 577 447 577 448 576 c 2,10,-1
 458 552 l 1,11,-1
 459 539 l 1,12,-1
 459 498 l 1,13,-1
 456 465 l 1,14,-1
 454 465 l 1,15,-1
 454 459 l 1,16,-1
 452 459 l 1,17,18
 443 428 443 428 442 427 c 2,19,-1
 440 421 l 1,20,-1
 438 420 l 1,21,-1
 432 410 l 1,22,-1
 430 407 l 1,23,-1
 429 405 l 2,24,25
 429 403 429 403 413 383 c 1,26,-1
 413 382 l 1,27,28
 411 382 411 382 411 381 c 2,29,-1
 408 376 l 1,30,-1
 404 376 l 1,31,-1
 381 350 l 1,32,-1
 389 345 l 1,33,-1
 389 343 l 1,34,35
 418 320 418 320 438 285 c 1,36,-1
 443 266 l 1,37,38
 449 254 449 254 450 242 c 1,39,-1
 452 236 l 1,40,-1
 454 164 l 1,41,-1
 454 155 l 1,42,-1
 452 155 l 1,43,-1
 448 136 l 1,44,-1
 442 118 l 1,45,46
 440 103 440 103 436 92 c 2,47,-1
 427 68 l 2,48,49
 426 67 426 67 426 64 c 1,50,-1
 411 50 l 1,51,-1
 411 48 l 1,52,53
 408 39 408 39 391 29 c 128,-1,54
 374 19 374 19 370.5 19 c 128,-1,55
 367 19 367 19 367 20 c 2,56,-1
 365 18 l 1,57,58
 359 15 359 15 356.5 13.5 c 128,-1,59
 354 12 354 12 342 9 c 2,60,-1
 326 5 l 1,61,-1
 326 4 l 1,62,63
 298 4 298 4 297 3 c 2,64,-1
 273 1 l 1,65,-1
 233 -6 l 1,66,-1
 219 -7 l 1,67,-1
 219 -6 l 1,68,69
 205 -4 205 -4 196 -4 c 1,70,-1
 126 9 l 1,71,-1
 95 22 l 1,72,73
 84 37 84 37 60 51 c 1,74,-1
 60 53 l 1,75,76
 59 54 59 54 58 54 c 1,77,-1
 58 57 l 1,78,79
 57 57 57 57 56 58 c 1,80,-1
 56 60 l 1,81,-1
 35 84 l 1,82,-1
 22 121 l 1,83,-1
 21 131 l 1,84,-1
 18 131 l 1,85,86
 14 155 14 155 14 179 c 2,87,-1
 15 207 l 1,88,-1
 17 235 l 1,89,-1
 28 286 l 1,90,-1
 31 286 l 1,91,-1
 43 309 l 1,92,-1
 43 313 l 1,93,-1
 45 315 l 1,94,95
 47 322 47 322 58.5 336 c 128,-1,96
 70 350 70 350 71 353 c 2,97,-1
 77 361 l 1,98,99
 74 360 74 360 72 360 c 1,100,-1
 72 365 l 2,101,102
 72 367 72 367 73 368 c 1,103,104
 66 372 66 372 54 389 c 1,105,-1
 54 391 l 1,106,107
 53 391 53 391 52 392 c 1,108,-1
 52 394 l 1,109,110
 44 409 44 409 44 411 c 1,111,-1
 43 411 l 1,112,-1
 33 441 l 1,113,-1
 32 441 l 1,114,115
 20 495 20 495 20 510.5 c 128,-1,116
 20 526 20 526 25 546 c 1,117,-1
 28 568 l 1,118,-1
 28 585 l 1,119,-1
 31 585 l 1,120,-1
 37 611 l 1,121,122
 70 664 70 664 72 664 c 0,123,124
 78 666 78 666 92 685 c 1,125,-1
 94 685 l 1,126,127
 106 694 106 694 106 695 c 2,128,-1
 132 704 l 1,129,-1
 159 712 l 1,130,-1
 188 719 l 1,131,-1
 211 719 l 1,132,133
 211 718 211 718 212 718 c 2,134,-1
 214 718 l 1,135,-1
 245 720 l 1,136,-1
 275 718 l 1,137,-1
 275 715 l 1,138,139
 276 716 276 716 276 717 c 2,140,-1
 276 718 l 1,141,-1
 335 704 l 1,142,-1
 335 703 l 1,143,-1
 336 703 l 1,144,-1
 336 704 l 1,145,146
 337 704 337 704 361 687 c 2,147,-1
 386 670 l 1,148,-1
 389 670 l 1,149,150
 390 666 390 666 410 645 c 1,0,-1
416 416 m 1,151,-1
 421 429 l 1,152,-1
 424 431 l 1,153,-1
 438 485 l 1,154,155
 436 487 436 487 436 488 c 1,156,-1
 438 488 l 1,157,-1
 438 513 l 1,158,-1
 436 513 l 1,159,160
 435 514 435 514 435 521 c 1,161,-1
 431 536 l 1,162,163
 429 550 429 550 427 557 c 0,164,165
 423 569 423 569 423 570 c 1,166,-1
 421 570 l 1,167,-1
 416 585 l 1,168,169
 389 620 389 620 389 622 c 1,170,-1
 386 622 l 1,171,-1
 377 628 l 1,172,173
 368 632 368 632 368 636 c 1,174,-1
 366 636 l 1,175,176
 362 643 362 643 333 668 c 1,177,-1
 332 668 l 2,178,179
 331 668 331 668 331 670 c 1,180,-1
 327 671 l 2,181,182
 326 671 326 671 323 674 c 2,183,-1
 312 682 l 1,184,-1
 263 697 l 1,185,-1
 249 700 l 1,186,187
 200 700 200 700 190 695 c 1,188,-1
 174 691 l 1,189,-1
 172 689 l 1,190,-1
 164 687 l 1,191,-1
 164 686 l 1,192,193
 162 686 162 686 158 683 c 1,194,-1
 158 682 l 1,195,196
 153 682 153 682 150 679 c 1,197,-1
 150 678 l 1,198,199
 144 672 144 672 138 671 c 1,200,-1
 138 669 l 1,201,-1
 133 668 l 1,202,203
 130 665 130 665 126 663 c 1,204,205
 121 658 121 658 118.5 656 c 128,-1,206
 116 654 116 654 114 651 c 1,207,-1
 111 651 l 1,208,209
 106 644 106 644 95 636 c 1,210,-1
 95 634 l 1,211,-1
 91 631 l 1,212,-1
 91 629 l 1,213,-1
 85 624 l 1,214,-1
 84 622 l 2,215,216
 84 621 84 621 80 617 c 1,217,-1
 78 612 l 2,218,219
 77 612 77 612 75 614 c 1,220,-1
 76 614 l 1,221,222
 78 618 78 618 80 620 c 1,223,-1
 81 623 l 1,224,-1
 84 625 l 1,225,-1
 84 629 l 1,226,227
 87 632 87 632 89 632 c 1,228,-1
 93 640 l 1,229,230
 97 640 97 640 99 644 c 1,231,232
 105 651 105 651 110 656 c 1,233,-1
 112 656 l 1,234,-1
 112 658 l 1,235,236
 115 658 115 658 115 660 c 2,237,-1
 115 662 l 1,238,-1
 121 665 l 2,239,240
 122 666 122 666 124 668 c 0,241,242
 131 673 131 673 133 677 c 1,243,-1
 138 680 l 2,244,245
 142 683 142 683 145 684.5 c 128,-1,246
 148 686 148 686 149 687 c 1,247,-1
 149 686 l 1,248,-1
 152 690 l 1,249,250
 157 690 157 690 164 693 c 1,251,-1
 164 694 l 1,252,253
 165 695 165 695 171 695 c 1,254,-1
 172 697 l 1,255,-1
 186 701 l 1,256,-1
 159 697 l 1,257,-1
 154 695 l 1,258,-1
 135 690 l 1,259,-1
 115 675 l 1,260,-1
 112 675 l 1,261,-1
 102 663 l 1,262,-1
 100 663 l 1,263,264
 90 657 90 657 84 648 c 1,265,-1
 84 646 l 1,266,267
 82 646 82 646 81 645 c 2,268,-1
 75 634 l 1,269,-1
 75 632 l 1,270,-1
 68 622 l 1,271,-1
 65 620 l 1,272,-1
 54 600 l 1,273,-1
 35 532 l 1,274,-1
 33 517 l 2,275,276
 32 516 32 516 32 510.5 c 128,-1,277
 32 505 32 505 35 496 c 1,278,-1
 35 471 l 1,279,280
 36 464 36 464 47.5 435 c 128,-1,281
 59 406 59 406 60 405 c 1,282,-1
 61 405 l 1,283,-1
 72 390 l 2,284,285
 71 390 71 390 71 391 c 2,286,-1
 71 389 l 1,287,-1
 75 386 l 1,288,-1
 75 383 l 1,289,290
 76 383 76 383 88 371 c 1,291,-1
 90 371 l 1,292,293
 92 369 92 369 92 369 c 1,294,295
 94 369 94 369 100 363 c 1,296,-1
 108 362 l 1,297,-1
 108 354 l 1,298,-1
 106 352 l 1,299,300
 92 347 92 347 90 342 c 1,301,-1
 85 340 l 1,302,-1
 79 338 l 1,303,-1
 76 334 l 1,304,-1
 74 334 l 1,305,-1
 70 329 l 1,306,-1
 59 320 l 1,307,-1
 59 317 l 1,308,-1
 46 299 l 1,309,-1
 45 294 l 1,310,311
 45 287 45 287 41 287 c 1,312,-1
 41 288 l 1,313,314
 40 287 40 287 40 282 c 1,315,-1
 37 280 l 1,316,-1
 33 261 l 1,317,-1
 31 230 l 1,318,-1
 28 230 l 1,319,-1
 26 219 l 1,320,-1
 26 177 l 1,321,-1
 28 167 l 2,322,323
 31 155 31 155 34 139 c 128,-1,324
 37 123 37 123 40 117 c 1,325,-1
 41 107 l 1,326,-1
 43 107 l 1,327,328
 43 100 43 100 50 90 c 128,-1,329
 57 80 57 80 57 76 c 2,330,-1
 58 72 l 2,331,332
 59 72 59 72 60 71 c 1,333,-1
 60 69 l 1,334,-1
 68 64 l 1,335,-1
 68 62 l 1,336,337
 72 62 72 62 89 45 c 1,338,-1
 91 45 l 1,339,-1
 91 43 l 1,340,-1
 94 43 l 1,341,342
 97 40 97 40 102 40 c 1,343,-1
 103 36 l 1,344,-1
 151 18 l 1,345,-1
 172 15 l 2,346,347
 178 15 178 15 181 12 c 1,348,-1
 183 12 l 1,349,-1
 226 8 l 1,350,-1
 226 9 l 1,351,-1
 263 9 l 1,352,-1
 263 11 l 1,353,354
 331 28 331 28 343 32 c 1,355,-1
 343 34 l 1,356,-1
 351 35 l 1,357,-1
 351 37 l 1,358,-1
 376 48 l 1,359,-1
 379 51 l 1,360,-1
 382 51 l 1,361,-1
 407 75 l 1,362,-1
 408 78 l 2,363,364
 409 78 409 78 410 79 c 2,365,-1
 421 97 l 1,366,-1
 430 121 l 1,367,-1
 432 127 l 1,368,-1
 434 127 l 1,369,370
 437 146 437 146 439.5 152 c 128,-1,371
 442 158 442 158 442 172 c 2,372,-1
 443 190 l 1,373,-1
 440 229 l 1,374,375
 433 263 433 263 428 271 c 1,376,-1
 428 273 l 1,377,378
 422 287 422 287 420 287 c 1,379,-1
 420 290 l 1,380,381
 417 290 417 290 417 294 c 1,382,-1
 416 294 l 1,383,384
 394 316 394 316 394 319 c 1,385,-1
 393 319 l 1,386,387
 393 320 393 320 392 321 c 2,388,-1
 354 344 l 1,389,-1
 350 351 l 2,390,391
 350 353 350 353 352 355 c 0,392,393
 360 361 360 361 364 365 c 1,394,-1
 366 365 l 1,395,-1
 366 367 l 1,396,-1
 372 370 l 1,397,-1
 378 370 l 1,398,399
 400 384 400 384 407 398 c 1,400,-1
 409 398 l 1,401,-1
 417 411 l 1,402,403
 416 412 416 412 416 416 c 1,151,-1
279 274 m 1,404,-1
 286 268 l 1,405,-1
 286 267 l 1,406,407
 291 265 291 265 292 262 c 128,-1,408
 293 259 293 259 294 258 c 2,409,-1
 304 235 l 1,410,-1
 304 231 l 1,411,-1
 306 231 l 1,412,-1
 306 214 l 1,413,-1
 304 214 l 1,414,-1
 304 205 l 1,415,416
 301 198 301 198 286.5 185.5 c 128,-1,417
 272 173 272 173 264 173 c 1,418,-1
 264 171 l 1,419,420
 249 166 249 166 229 166 c 128,-1,421
 209 166 209 166 199 173 c 1,422,-1
 189 176 l 1,423,-1
 177 187 l 1,424,-1
 177 191 l 1,425,426
 175 191 175 191 173 196 c 1,427,-1
 171 208 l 1,428,-1
 170 208 l 1,429,430
 168 210 168 210 168 213 c 1,431,-1
 172 213 l 1,432,-1
 172 215 l 1,433,-1
 177 211 l 1,434,-1
 177 215 l 1,435,436
 176 216 176 216 176 219 c 2,437,-1
 176 224 l 2,438,439
 176 226 176 226 174 232 c 1,440,-1
 179 256 l 1,441,442
 190 267 190 267 195 277 c 1,443,-1
 199 277 l 1,444,-1
 215 284 l 1,445,-1
 236 289 l 1,446,-1
 255 287 l 1,447,-1
 279 274 l 1,404,-1
171 497 m 1,448,-1
 175 511 l 1,449,-1
 176 511 l 2,450,451
 178 511 178 511 188 532 c 1,452,-1
 194 538 l 1,453,-1
 211 548 l 1,454,-1
 224 553 l 1,455,456
 227 552 227 552 229 552 c 1,457,-1
 229 553 l 1,458,-1
 266 546 l 1,459,460
 266 543 266 543 267 542 c 1,461,-1
 268 542 l 1,462,463
 270 540 270 540 273.5 537 c 128,-1,464
 277 534 277 534 278 533 c 2,465,-1
 292 504 l 1,466,-1
 293 496 l 1,467,-1
 295 489 l 2,468,469
 295 488 295 488 292 477 c 1,470,-1
 291 477 l 1,471,472
 288 468 288 468 288 466 c 2,473,-1
 288 464 l 1,474,475
 281 457 281 457 280 454 c 1,476,-1
 279 454 l 1,477,478
 278 450 278 450 267 445 c 1,479,480
 267 442 267 442 232 431 c 1,481,-1
 211 430 l 1,482,-1
 211 431 l 1,483,484
 210 432 210 432 204 432 c 1,485,-1
 204 435 l 1,486,-1
 177 450 l 1,487,-1
 170 464 l 1,488,-1
 166 485 l 1,489,-1
 164 491 l 1,490,-1
 168 489 l 1,491,-1
 168 494 l 1,492,493
 169 494 169 494 171 492 c 1,494,-1
 171 497 l 1,448,-1
284 205 m 1,495,-1
 286 211 l 1,496,-1
 286 215 l 2,497,498
 286 229 286 229 285 242 c 1,499,-1
 284 242 l 1,500,501
 283 244 283 244 280 247 c 1,502,-1
 279 251 l 1,503,-1
 270 258 l 2,504,505
 270 259 270 259 269 260 c 2,506,-1
 255 267 l 1,507,508
 242 271 242 271 234 271 c 2,509,-1
 227 271 l 1,510,-1
 209 264 l 1,511,-1
 197 254 l 1,512,-1
 197 251 l 1,513,514
 191 251 191 251 191 244 c 1,515,-1
 190 244 l 1,516,517
 190 243 190 243 189 242 c 1,518,-1
 189 241 l 1,519,520
 188 240 188 240 188 231 c 128,-1,521
 188 222 188 222 189 205 c 1,522,-1
 195 195 l 1,523,-1
 199 195 l 1,524,-1
 216 184 l 1,525,-1
 221 183 l 1,526,-1
 226 183 l 2,527,528
 244 183 244 183 262 185 c 1,529,-1
 262 186 l 1,530,531
 266 187 266 187 274 195 c 128,-1,532
 282 203 282 203 282 205 c 1,533,-1
 284 205 l 1,495,-1
188 508 m 1,534,-1
 190 483 l 1,535,-1
 191 479 l 1,536,537
 200 455 200 455 205 453 c 1,538,-1
 205 452 l 1,539,-1
 212 450 l 1,540,-1
 214 450 l 1,541,-1
 215 447 l 1,542,-1
 244 447 l 1,543,544
 253 450 253 450 259 465 c 1,545,-1
 261 465 l 1,546,-1
 261 464 l 2,547,548
 261 463 261 463 260 462 c 0,549,550
 259 457 259 457 259 453 c 1,551,-1
 264 454 l 2,552,553
 264 455 264 455 265 456 c 1,554,-1
 266 456 l 2,555,556
 267 456 267 456 267 459 c 1,557,-1
 269 459 l 1,558,-1
 271 462 l 1,559,-1
 275 463 l 2,560,561
 276 463 276 463 276 464.5 c 128,-1,562
 276 466 276 466 278 468 c 1,563,-1
 276 498 l 1,564,-1
 271 510 l 1,565,-1
 269 510 l 1,566,567
 269 512 269 512 268 513 c 2,568,-1
 265 521 l 1,569,-1
 260 523 l 1,570,571
 260 526 260 526 257 528 c 1,572,-1
 256 528 l 1,573,-1
 225 534 l 1,574,575
 216 534 216 534 214 533 c 1,576,-1
 213 531 l 1,577,-1
 207 530 l 1,578,-1
 198 521 l 1,579,-1
 196 518 l 1,580,-1
 196 516 l 1,581,582
 195 515 195 515 193 515 c 1,583,-1
 193 513 l 1,584,585
 192 512 192 512 190 512 c 1,586,-1
 188 508 l 1,534,-1
81 353 m 1,587,-1
 79 353 l 1,588,589
 77 350 77 350 72 345 c 128,-1,590
 67 340 67 340 65 336 c 1,591,-1
 66 336 l 1,592,593
 80 347 80 347 83 354 c 1,594,-1
 81 353 l 1,587,-1
185 188 m 2,595,-1
 187 188 l 1,596,-1
 187 186 l 1,597,598
 188 186 188 186 190 184 c 1,599,-1
 189 187 l 1,600,-1
 188 187 l 1,601,-1
 186 191 l 1,602,603
 181 191 181 191 181 196 c 1,604,-1
 178 199 l 1,605,-1
 178 204 l 1,606,-1
 177 197 l 1,607,608
 184 188 184 188 185 188 c 2,595,-1
186 191 m 1,609,-1
 186 189 l 1,610,-1
 187 188 l 1,611,-1
 185 188 l 2,612,613
 184 188 184 188 177 197 c 1,614,-1
 178 204 l 1,615,-1
 178 199 l 1,616,-1
 181 196 l 1,617,618
 181 191 181 191 186 191 c 1,609,-1
187 186 m 1,619,620
 188 186 188 186 190 184 c 1,621,-1
 189 187 l 1,622,-1
 188 187 l 1,623,-1
 187 188 l 1,624,-1
 187 186 l 1,619,620
EndSplineSet
EndChar

StartChar: nine
Encoding: 57 57 28
Width: 513
GlyphClass: 2
Flags: W
LayerCount: 2
Fore
SplineSet
288 711 m 1,0,-1
 323 710 l 1,1,-1
 372 702 l 1,2,-1
 398 690 l 1,3,-1
 412 682 l 1,4,5
 411 681 411 681 445 649 c 1,6,7
 454 622 454 622 454 620 c 2,8,-1
 460 601 l 1,9,-1
 464 533 l 2,10,11
 464 532 464 532 465 531 c 1,12,-1
 465 509 l 1,13,-1
 467 509 l 1,14,15
 464 482 464 482 464 458 c 128,-1,16
 464 434 464 434 468 407 c 1,17,-1
 469 355 l 1,18,-1
 472 355 l 1,19,-1
 472 341 l 1,20,21
 473 340 473 340 473 332 c 2,22,-1
 471 309 l 1,23,-1
 472 284 l 1,24,-1
 468 220 l 1,25,26
 466 212 466 212 465 192 c 128,-1,27
 464 172 464 172 462 164 c 2,28,-1
 455 128 l 1,29,-1
 455 125 l 1,30,31
 450 113 450 113 448 97 c 1,32,-1
 450 98 l 1,33,-1
 427 64 l 1,34,-1
 424 64 l 1,35,-1
 405 40 l 1,36,-1
 403 40 l 1,37,38
 402 37 402 37 399 35 c 2,39,-1
 366 16 l 1,40,-1
 342 10 l 1,41,-1
 331 6 l 2,42,43
 330 5 330 5 299 0 c 1,44,-1
 292 0 l 1,45,-1
 292 1 l 1,46,47
 261 1 261 1 260 2 c 2,48,-1
 227 3 l 1,49,-1
 227 5 l 1,50,-1
 195 8 l 1,51,-1
 193 7 l 1,52,-1
 136 24 l 1,53,-1
 136 25 l 1,54,55
 130 25 130 25 117 32 c 1,56,57
 94 41 94 41 94 44 c 1,58,-1
 91 44 l 1,59,60
 91 49 91 49 84 52 c 0,61,62
 69 59 69 59 53.5 86.5 c 128,-1,63
 38 114 38 114 39 120 c 1,64,-1
 39 122 l 1,65,-1
 37 145 l 1,66,-1
 35 145 l 1,67,-1
 35 153 l 2,68,69
 35 160 35 160 34 161 c 1,70,-1
 33 161 l 1,71,-1
 29 228 l 1,72,-1
 34 230 l 1,73,74
 34 228 34 228 37 228 c 1,75,-1
 37 230 l 1,76,-1
 110 231 l 1,77,-1
 151 233 l 1,78,-1
 153 233 l 1,79,-1
 153 234 l 1,80,-1
 176 233 l 1,81,-1
 177 232 l 1,82,-1
 178 234 l 1,83,84
 185 231 185 231 186 231 c 2,85,-1
 185 225 l 1,86,87
 186 222 186 222 188 222 c 1,88,-1
 189 219 l 2,89,90
 193 207 193 207 227 187 c 1,91,-1
 230 185 l 1,92,-1
 241 184 l 1,93,-1
 241 183 l 1,94,95
 283 197 283 197 285 200 c 128,-1,96
 287 203 287 203 287 205 c 2,97,-1
 295 219 l 1,98,-1
 296 219 l 1,99,100
 307 265 307 265 307 293 c 0,101,102
 307 306 307 306 298 306 c 1,103,104
 296 304 296 304 293 304 c 2,105,-1
 291 304 l 2,106,107
 284 304 284 304 242 295 c 1,108,-1
 242 293 l 1,109,-1
 238 293 l 1,110,111
 234 294 234 294 223 294 c 2,112,-1
 208 294 l 2,113,114
 190 294 190 294 185 296 c 2,115,-1
 163 301 l 1,116,-1
 163 303 l 1,117,118
 132 311 132 311 127 314 c 0,119,120
 120 318 120 318 110 328 c 1,121,-1
 91 341 l 1,122,-1
 91 344 l 1,123,124
 74 351 74 351 71 359 c 0,125,126
 55 394 55 394 43 414 c 1,127,128
 36 444 36 444 34 446 c 1,129,-1
 33 446 l 1,130,-1
 30 482 l 1,131,-1
 31 529 l 1,132,-1
 35 556 l 1,133,-1
 37 556 l 1,134,135
 45 607 45 607 46 608 c 1,136,-1
 47 608 l 1,137,138
 68 644 68 644 82 655.5 c 128,-1,139
 96 667 96 667 102 670.5 c 128,-1,140
 108 674 108 674 112 675 c 128,-1,141
 116 676 116 676 117 677 c 0,142,143
 125 681 125 681 131 682.5 c 128,-1,144
 137 684 137 684 140 687 c 1,145,146
 148 687 148 687 148 690 c 1,147,-1
 151 691 l 1,148,149
 155 691 155 691 187 699 c 1,150,151
 242 706 242 706 248 706 c 2,152,-1
 288 711 l 1,0,-1
438 123 m 1,153,-1
 440 138 l 1,154,-1
 445 158 l 1,155,-1
 445 403 l 1,156,-1
 449 418 l 1,157,-1
 449 550 l 1,158,-1
 448 550 l 1,159,160
 448 566 448 566 447 567 c 1,161,-1
 446 567 l 1,162,163
 446 600 446 600 426.5 630 c 128,-1,164
 407 660 407 660 396 667 c 2,165,-1
 384 674 l 1,166,-1
 380 678 l 1,167,-1
 350 688 l 1,168,169
 290 691 290 691 286 691 c 2,170,-1
 277 689 l 1,171,-1
 200 685 l 1,172,-1
 200 683 l 1,173,-1
 154 678 l 1,174,-1
 147 677 l 1,175,176
 117 659 117 659 116 658 c 1,177,-1
 114 658 l 1,178,-1
 112 657 l 1,179,-1
 84 630 l 1,180,181
 72 610 72 610 70 603 c 128,-1,182
 68 596 68 596 67 596 c 2,183,-1
 66 597 l 1,184,-1
 64 594 l 1,185,-1
 55 523 l 1,186,187
 55 504 55 504 56 479 c 1,188,-1
 55 458 l 1,189,-1
 57 422 l 1,190,-1
 58 422 l 1,191,192
 59 418 59 418 60.5 413 c 128,-1,193
 62 408 62 408 63 404 c 2,194,-1
 68 391 l 1,195,-1
 79 373 l 1,196,-1
 106 349 l 2,197,198
 114 341 114 341 115 341 c 2,199,-1
 119 342 l 2,200,201
 119 341 119 341 120 340 c 2,202,-1
 163 322 l 1,203,-1
 213 315 l 1,204,-1
 229 315 l 1,205,206
 243 313 243 313 245 313 c 2,207,-1
 270 314 l 1,208,-1
 303 318 l 2,209,210
 304 318 304 318 310 322 c 128,-1,211
 316 326 316 326 321 326 c 1,212,213
 321 319 321 319 323 317 c 2,214,-1
 329 310 l 1,215,-1
 327 310 l 1,216,-1
 329 282 l 1,217,-1
 327 223 l 1,218,-1
 325 223 l 1,219,-1
 322 201 l 1,220,-1
 290 161 l 1,221,-1
 286 157 l 1,222,-1
 266 151 l 2,223,224
 261 150 261 150 252.5 150 c 128,-1,225
 244 150 244 150 238 152 c 2,226,-1
 194 168 l 2,227,228
 193 169 193 169 192 170 c 0,229,230
 188 172 188 172 186 177 c 1,231,232
 186 184 186 184 177 188 c 1,233,-1
 178 192 l 1,234,235
 172 207 172 207 171 222 c 1,236,237
 162 222 162 222 161 223 c 1,238,-1
 147 222 l 1,239,-1
 147 220 l 1,240,-1
 115 220 l 1,241,-1
 57 214 l 1,242,-1
 57 212 l 1,243,-1
 53 212 l 1,244,245
 48 210 48 210 48 201.5 c 128,-1,246
 48 193 48 193 49 192 c 2,247,-1
 63 141 l 2,248,249
 69 120 69 120 71 120 c 1,250,-1
 73 108 l 1,251,252
 76 105 76 105 97 67 c 1,253,-1
 111 59 l 1,254,255
 112 57 112 57 141 41 c 1,256,257
 144 38 144 38 150 38 c 1,258,-1
 150 36 l 1,259,-1
 212 21 l 1,260,-1
 212 19 l 1,261,-1
 220 18 l 1,262,-1
 294 21 l 2,263,264
 295 21 295 21 296 22 c 1,265,-1
 296 21 l 1,266,267
 300 21 300 21 301 22 c 1,268,-1
 301 21 l 1,269,-1
 330 25 l 1,270,-1
 347 28 l 1,271,-1
 347 30 l 1,272,-1
 351 30 l 1,273,-1
 371 39 l 1,274,-1
 378 41 l 1,275,-1
 405 56 l 1,276,277
 416 67 416 67 419 76 c 1,278,-1
 421 79 l 1,279,280
 421 84 421 84 423 86 c 1,281,-1
 432 106 l 1,282,-1
 432 111 l 1,283,-1
 434 111 l 1,284,285
 436 122 436 122 437 123 c 1,286,-1
 438 123 l 1,153,-1
212 526 m 1,287,-1
 226 546 l 1,288,-1
 231 548 l 2,289,290
 232 549 232 549 240 549 c 1,291,-1
 240 550 l 1,292,-1
 278 548 l 2,293,294
 284 547 284 547 300 540 c 1,295,-1
 300 539 l 1,296,-1
 323 509 l 1,297,-1
 324 502 l 1,298,299
 323 501 323 501 320 477.5 c 128,-1,300
 317 454 317 454 310 447 c 1,301,-1
 305 446 l 1,302,303
 304 441 304 441 300 439 c 2,304,-1
 292 434 l 1,305,-1
 287 432 l 1,306,-1
 263 432 l 1,307,-1
 261 429 l 1,308,-1
 234 440 l 1,309,-1
 232 440 l 1,310,311
 229 441 229 441 225 445 c 2,312,-1
 212 459 l 1,313,-1
 212 461 l 1,314,-1
 210 461 l 1,315,-1
 204 483 l 2,316,317
 203 483 203 483 203 485 c 1,318,-1
 205 487 l 1,319,-1
 203 487 l 1,320,-1
 202 493 l 1,321,-1
 203 502 l 1,322,-1
 210 525 l 2,323,324
 210 526 210 526 212 526 c 1,287,-1
268 540 m 1,325,-1
 228 530 l 1,326,-1
 219 515 l 1,327,328
 217 501 217 501 217 495 c 0,329,330
 217 474 217 474 244 447 c 1,331,-1
 260 442 l 1,332,-1
 260 440 l 1,333,-1
 279 440 l 1,334,-1
 279 442 l 1,335,336
 280 443 280 443 285 443 c 1,337,-1
 292 447 l 1,338,-1
 313 484 l 1,339,-1
 315 494 l 1,340,341
 315 509 315 509 301.5 524.5 c 128,-1,342
 288 540 288 540 268 540 c 1,325,-1
EndSplineSet
EndChar

StartChar: colon
Encoding: 58 58 29
Width: 205
GlyphClass: 2
Flags: W
LayerCount: 2
Fore
SplineSet
119 458 m 1,0,-1
 150 460 l 2,1,2
 160 460 160 460 165 455 c 1,3,-1
 166 447 l 1,4,-1
 167 444 l 1,5,-1
 166 443 l 1,6,7
 161 430 161 430 161 382 c 1,8,-1
 162 382 l 1,9,-1
 161 367 l 2,10,11
 161 362 161 362 159 340 c 1,12,-1
 159 336 l 1,13,14
 156 336 156 336 154 332 c 0,15,16
 153 332 153 332 152 333 c 2,17,-1
 151 335 l 1,18,19
 148 338 148 338 140 338 c 2,20,-1
 119 337 l 2,21,22
 98 336 98 336 79.5 336 c 128,-1,23
 61 336 61 336 55 338 c 1,24,25
 44 338 44 338 43 337 c 1,26,-1
 43 339 l 1,27,28
 39 342 39 342 39 343 c 2,29,-1
 37 375 l 2,30,31
 37 382 37 382 45 447 c 1,32,-1
 44 447 l 1,33,34
 41 450 41 450 41 451 c 2,35,-1
 42 452 l 2,36,37
 42 453 42 453 44 455 c 1,38,-1
 44 456 l 1,39,40
 59 462 59 462 72 462 c 1,41,-1
 119 458 l 1,0,-1
167 109 m 1,42,43
 165 107 165 107 165 96 c 1,44,-1
 164 96 l 1,45,-1
 161 47 l 1,46,-1
 162 47 l 1,47,48
 161 30 161 30 161 5 c 1,49,-1
 159 5 l 1,50,-1
 159 1 l 1,51,52
 156 1 156 1 154 -3 c 0,53,54
 153 -3 153 -3 152 -2 c 2,55,-1
 151 0 l 1,56,57
 148 3 148 3 140 3 c 2,58,-1
 120 1 l 2,59,60
 111 0 111 0 95 0 c 128,-1,61
 79 0 79 0 55 2 c 1,62,-1
 55 3 l 1,63,64
 44 3 44 3 43 2 c 1,65,-1
 43 4 l 1,66,67
 39 7 39 7 39 8 c 2,68,-1
 38 23 l 1,69,-1
 39 23 l 1,70,71
 38 24 38 24 38 40 c 1,72,-1
 37 47 l 1,73,-1
 39 81 l 1,74,75
 43 97 43 97 45 112 c 1,76,-1
 44 112 l 1,77,78
 41 115 41 115 41 116 c 2,79,-1
 42 117 l 2,80,81
 42 118 42 118 44 120 c 1,82,-1
 44 121 l 1,83,84
 59 127 59 127 72 127 c 2,85,-1
 115 124 l 1,86,-1
 150 125 l 2,87,88
 160 125 160 125 165 120 c 1,89,-1
 166 112 l 1,90,-1
 167 109 l 1,42,43
100 443 m 1,91,92
 98 443 98 443 95 442 c 1,93,-1
 70 443 l 2,94,95
 61 443 61 443 59 444 c 1,96,-1
 53 443 l 2,97,98
 52 442 52 442 52 431 c 2,99,-1
 52 362 l 1,100,-1
 53 360 l 2,101,102
 53 359 53 359 52 358 c 1,103,-1
 53 358 l 1,104,105
 54 357 54 357 54 354 c 0,106,107
 54 347 54 347 65 347 c 1,108,-1
 65 348 l 1,109,110
 84 349 84 349 95 349 c 2,111,-1
 152 354 l 2,112,113
 153 355 153 355 153 365 c 2,114,-1
 154 389 l 1,115,-1
 154 404 l 1,116,-1
 166 431 l 1,117,118
 151 435 151 435 151 440 c 1,119,120
 142 440 142 440 140 439.5 c 128,-1,121
 138 439 138 439 100 442 c 1,122,-1
 100 443 l 1,91,92
54 18 m 128,-1,124
 54 12 54 12 65 12 c 1,125,-1
 85 14 l 1,126,-1
 90 13 l 1,127,128
 93 14 93 14 152 19 c 0,129,130
 153 20 153 20 153 30 c 2,131,-1
 153 77 l 1,132,-1
 154 96 l 1,133,134
 151 102 151 102 151 105 c 1,135,-1
 133 104 l 2,136,137
 117 104 117 104 95 107 c 1,138,-1
 70 108 l 2,139,140
 61 108 61 108 59 109 c 1,141,-1
 53 108 l 2,142,143
 52 107 52 107 52 96 c 2,144,-1
 51 73 l 2,145,146
 52 73 52 73 52 69 c 2,147,-1
 52 47 l 1,148,-1
 53 32 l 1,149,-1
 52 32 l 1,150,123
 54 24 54 24 54 18 c 128,-1,124
EndSplineSet
EndChar

StartChar: semicolon
Encoding: 59 59 30
Width: 205
GlyphClass: 2
Flags: W
LayerCount: 2
Fore
SplineSet
80 -66 m 2,0,-1
 79 -56 l 1,1,2
 79 -36 79 -36 85 -11 c 1,3,-1
 86 -1 l 1,4,-1
 85 3 l 1,5,-1
 73 2 l 1,6,-1
 54 3 l 2,7,8
 43 3 43 3 42 2 c 1,9,-1
 42 4 l 1,10,11
 36 8 36 8 36 25 c 2,12,-1
 36 30 l 2,13,14
 36 31 36 31 37 32 c 1,15,-1
 36 49 l 1,16,-1
 38 81 l 1,17,18
 41 91 41 91 44 112 c 1,19,-1
 43 112 l 1,20,21
 40 115 40 115 40 116 c 2,22,-1
 41 117 l 1,23,24
 41 119 41 119 50 122 c 1,25,-1
 50 123 l 1,26,27
 54 127 54 127 69.5 127 c 128,-1,28
 85 127 85 127 122 123 c 1,29,-1
 149 125 l 2,30,31
 159 125 159 125 164 120 c 1,32,-1
 166 108 l 1,33,-1
 165 108 l 1,34,35
 160 100 160 100 160 34 c 2,36,-1
 160 5 l 1,37,-1
 158 5 l 1,38,-1
 156 -3 l 1,39,-1
 157 -15 l 1,40,41
 157 -35 157 -35 149 -83 c 1,42,43
 150 -84 150 -84 150 -92 c 128,-1,44
 150 -100 150 -100 146 -100 c 128,-1,45
 142 -100 142 -100 141 -99 c 1,46,-1
 139 -100 l 1,47,48
 138 -99 138 -99 131 -99 c 1,49,-1
 131 -98 l 1,50,51
 110 -100 110 -100 87 -100 c 2,52,-1
 78 -100 l 1,53,54
 78 -99 78 -99 79 -98 c 1,55,-1
 76 -98 l 1,56,-1
 76 -77 l 1,57,58
 80 -73 80 -73 80 -66 c 2,0,-1
42 452 m 1,59,60
 42 454 42 454 51 457 c 1,61,-1
 51 458 l 1,62,63
 55 462 55 462 71 462 c 1,64,-1
 123 458 l 1,65,-1
 147 459 l 2,66,67
 161 459 161 459 165 455 c 1,68,-1
 166 447 l 1,69,-1
 161 367 l 1,70,71
 156 336 156 336 155 334 c 2,72,-1
 154 332 l 2,73,74
 153 332 153 332 152 333 c 2,75,-1
 151 335 l 1,76,77
 148 338 148 338 140 338 c 2,78,-1
 102 334 l 1,79,-1
 55 338 l 2,80,81
 44 338 44 338 43 337 c 1,82,-1
 43 339 l 1,83,84
 39 342 39 342 39 343 c 2,85,-1
 38 408 l 1,86,-1
 39 408 l 1,87,-1
 45 447 l 1,88,-1
 44 447 l 1,89,90
 41 450 41 450 41 451 c 2,91,-1
 42 452 l 1,59,60
99 108 m 1,92,93
 97 108 97 108 94 107 c 1,94,-1
 58 109 l 1,95,-1
 52 108 l 2,96,97
 51 107 51 107 51 96 c 2,98,-1
 50 73 l 1,99,100
 52 54 52 54 52 35.5 c 128,-1,101
 52 17 52 17 53.5 14.5 c 128,-1,102
 55 12 55 12 64 12 c 1,103,-1
 64 13 l 1,104,105
 83 14 83 14 94 14 c 1,106,-1
 95 15 l 1,107,-1
 94 12 l 1,108,-1
 96 9 l 1,109,-1
 95 5 l 1,110,111
 95 -18 95 -18 91 -53 c 128,-1,112
 87 -88 87 -88 87.5 -89 c 128,-1,113
 88 -90 88 -90 90 -90 c 2,114,115
 90 -90 90 -90 100 -88 c 1,116,-1
 108 -90 l 1,117,-1
 119 -89 l 1,118,-1
 119 -90 l 1,119,-1
 120 -89 l 1,120,-1
 137 -91 l 1,121,-1
 138 -91 l 1,122,-1
 137 -88 l 1,123,-1
 138 -88 l 1,124,125
 140 -74 140 -74 140 -67.5 c 128,-1,126
 140 -61 140 -61 141 -60 c 2,127,-1
 148 -11 l 1,128,-1
 153 63 l 2,129,130
 153 64 153 64 154 65 c 1,131,-1
 153 65 l 1,132,-1
 150 105 l 1,133,134
 141 105 141 105 138.5 104.5 c 128,-1,135
 136 104 136 104 99 107 c 1,136,-1
 99 108 l 1,92,93
119 351 m 1,137,-1
 125 350 l 1,138,-1
 152 354 l 2,139,140
 153 355 153 355 153 365 c 2,141,-1
 154 389 l 1,142,-1
 155 400 l 1,143,-1
 153 431 l 1,144,145
 150 437 150 437 149 438.5 c 128,-1,146
 148 440 148 440 145 440 c 0,147,148
 136 440 136 440 127.5 440 c 128,-1,149
 119 440 119 440 110 441 c 2,150,-1
 100 443 l 2,151,152
 98 443 98 443 95 442 c 1,153,-1
 70 443 l 2,154,155
 61 443 61 443 59 444 c 1,156,-1
 53 443 l 2,157,158
 52 442 52 442 52 431 c 2,159,-1
 52 365 l 1,160,161
 54 363 54 363 54 356 c 128,-1,162
 54 349 54 349 56 348 c 128,-1,163
 58 347 58 347 65 347 c 2,164,-1
 85 349 l 1,165,-1
 85 348 l 1,166,167
 97 350 97 350 105 350 c 2,168,-1
 119 351 l 1,137,-1
EndSplineSet
EndChar

StartChar: less
Encoding: 60 60 31
Width: 363
GlyphClass: 2
Flags: W
LayerCount: 2
Fore
SplineSet
352 77 m 1,0,1
 348 77 348 77 348 80 c 2,2,-1
 348 81 l 1,3,-1
 338 72 l 2,4,5
 337 72 337 72 331 66 c 2,6,-1
 305 39 l 1,7,8
 293 34 293 34 288 20 c 1,9,-1
 288 22 l 1,10,-1
 277 8 l 1,11,-1
 263 0 l 1,12,13
 250 10 250 10 243.5 19 c 128,-1,14
 237 28 237 28 229 36 c 2,15,-1
 79 179 l 1,16,-1
 76 179 l 1,17,-1
 60 197 l 1,18,-1
 46 210 l 2,19,20
 31 224 31 224 24 232 c 2,21,-1
 3 257 l 1,22,-1
 -4 273 l 1,23,-1
 8 287 l 1,24,-1
 24 301 l 1,25,26
 41 323 41 323 55 337 c 2,27,-1
 99 379 l 1,28,29
 103 387 103 387 128 411 c 1,30,-1
 128 410 l 1,31,-1
 131 413 l 1,32,-1
 130 413 l 1,33,-1
 173 457 l 1,34,35
 184 465 184 465 189 473 c 1,36,-1
 206 490 l 2,37,38
 221 505 221 505 229 516 c 1,39,-1
 253 540 l 1,40,-1
 281 541 l 1,41,42
 278 533 278 533 277 533 c 1,43,44
 277 534 277 534 275 534 c 128,-1,45
 273 534 273 534 272 535 c 2,46,-1
 314 493 l 1,47,48
 314 487 314 487 327 483 c 1,49,-1
 330 478 l 1,50,51
 333 478 333 478 342 477 c 1,52,-1
 343 467 l 1,53,-1
 352 452 l 1,54,55
 340 440 340 440 336 440 c 2,56,-1
 335 440 l 1,57,58
 329 430 329 430 284 385 c 1,59,-1
 285 385 l 1,60,-1
 263 361 l 1,61,-1
 229 328 l 1,62,-1
 230 328 l 1,63,-1
 199 295 l 2,64,65
 193 288 193 288 186 282 c 1,66,-1
 187 284 l 1,67,-1
 180 276 l 1,68,-1
 182 277 l 1,69,-1
 182 260 l 1,70,-1
 191 251 l 1,71,72
 189 251 189 251 206.5 236 c 128,-1,73
 224 221 224 221 236 210 c 0,74,75
 265 183 265 183 275 172 c 1,76,-1
 284 164 l 1,77,-1
 291 156 l 1,78,-1
 303 148 l 1,79,-1
 303 144 l 1,80,81
 311 138 311 138 311 135 c 1,82,-1
 317 131 l 1,83,-1
 323 126 l 1,84,-1
 335 114 l 2,85,86
 337 112 337 112 352 107 c 1,87,-1
 352 77 l 1,0,1
340 89 m 1,88,-1
 340 97 l 1,89,-1
 338 97 l 1,90,91
 334 99 334 99 332 101 c 1,92,-1
 331 100 l 1,93,-1
 300 132 l 1,94,-1
 296 134 l 1,95,-1
 281 151 l 1,96,97
 273 157 273 157 257 175 c 1,98,99
 197 232 197 232 158 268 c 1,100,-1
 162 271 l 1,101,-1
 162 273 l 1,102,103
 181 292 181 292 189 302 c 1,104,-1
 188 303 l 1,105,-1
 254 369 l 1,106,-1
 253 370 l 1,107,-1
 307 425 l 1,108,-1
 306 426 l 1,109,-1
 332 455 l 1,110,111
 333 454 333 454 335 454 c 128,-1,112
 337 454 337 454 337 453 c 2,113,-1
 338 454 l 1,114,-1
 338 453 l 1,115,-1
 339 454 l 1,116,-1
 338 454 l 1,117,-1
 340 456 l 1,118,119
 334 458 334 458 332 461 c 1,120,-1
 333 462 l 1,121,-1
 326 466 l 1,122,123
 319 472 319 472 312 480 c 0,124,125
 290 501 290 501 277.5 513 c 128,-1,126
 265 525 265 525 265 527 c 2,127,-1
 265 529 l 1,128,-1
 256 529 l 1,129,-1
 250 521 l 1,130,-1
 252 520 l 1,131,-1
 214 482 l 1,132,-1
 177 446 l 1,133,-1
 174 441 l 1,134,-1
 139 405 l 1,135,136
 120 389 120 389 110 374 c 1,137,-1
 62 327 l 1,138,-1
 62 328 l 1,139,-1
 38 303 l 2,140,141
 31 296 31 296 27 291 c 128,-1,142
 23 286 23 286 21 284 c 0,143,144
 14 277 14 277 14 276 c 2,145,-1
 13 275 l 1,146,-1
 13 276 l 1,147,-1
 10 271 l 1,148,149
 12 266 12 266 14 264 c 1,150,151
 13 263 13 263 13 261 c 1,152,-1
 33 240 l 2,153,154
 42 231 42 231 53 220.5 c 128,-1,155
 64 210 64 210 67 207 c 2,156,-1
 95 179 l 1,157,-1
 95 180 l 1,158,-1
 103 172 l 2,159,160
 102 172 102 172 180 98 c 2,161,-1
 228 52 l 1,162,-1
 229 53 l 1,163,164
 230 52 230 52 230 51 c 2,165,-1
 236 45 l 1,166,-1
 237 46 l 1,167,-1
 266 19 l 1,168,169
 264 17 264 17 264 15.5 c 128,-1,170
 264 14 264 14 265 14 c 2,171,-1
 264 13 l 1,172,-1
 266 12 l 1,173,174
 268 18 268 18 272 19 c 1,175,176
 282 36 282 36 316 67 c 2,177,-1
 340 89 l 1,88,-1
EndSplineSet
EndChar

StartChar: equal
Encoding: 61 61 32
Width: 466
GlyphClass: 2
Flags: W
LayerCount: 2
Fore
SplineSet
420 238 m 2,0,-1
 421 202 l 2,1,2
 421 179 421 179 418 130 c 1,3,4
 408 128 408 128 377 128 c 2,5,-1
 337 127 l 1,6,-1
 336 125 l 2,7,8
 335 124 335 124 334 124 c 2,9,-1
 333 125 l 2,10,11
 333 126 333 126 331 126 c 1,12,-1
 331 124 l 1,13,-1
 297 124 l 1,14,-1
 198 123 l 1,15,-1
 198 121 l 1,16,17
 198 121 198 121 183 120 c 1,18,-1
 156 120 l 1,19,-1
 156 118 l 1,20,-1
 131 120 l 1,21,22
 123 118 123 118 120 118 c 2,23,-1
 74 118 l 2,24,25
 70 118 70 118 62 120 c 1,26,-1
 50 120 l 1,27,-1
 50 123 l 2,28,29
 50 124 50 124 42 126 c 1,30,31
 42 131 42 131 41 132 c 1,32,-1
 42 151 l 1,33,-1
 41 150 l 1,34,-1
 41 151 l 1,35,36
 42 152 42 152 42 158 c 2,37,-1
 43 201 l 1,38,-1
 42 204 l 1,39,-1
 43 219 l 1,40,-1
 42 238 l 1,41,-1
 46 247 l 1,42,-1
 44 248 l 2,43,44
 43 248 43 248 43 250 c 1,45,46
 46 253 46 253 51 253 c 2,47,-1
 179 254 l 1,48,-1
 193 254 l 1,49,50
 202 257 202 257 215 257 c 2,51,-1
 297 257 l 2,52,53
 298 257 298 257 347 259 c 1,54,-1
 347 257 l 1,55,-1
 349 257 l 1,56,-1
 349 259 l 1,57,58
 350 259 350 259 351 258 c 2,59,-1
 361 257 l 1,60,-1
 361 259 l 1,61,-1
 407 260 l 2,62,63
 408 261 408 261 414 261 c 1,64,65
 419 258 419 258 423 254 c 1,66,67
 420 251 420 251 420 238 c 2,0,-1
420 359 m 1,68,69
 422 353 422 353 422 349 c 2,70,-1
 422 345 l 2,71,72
 422 344 422 344 424 344 c 1,73,-1
 424 339 l 1,74,75
 423 338 423 338 423 335 c 2,76,-1
 424 327 l 1,77,-1
 423 326 l 1,78,79
 418 326 418 326 418 333 c 1,80,81
 388 331 388 331 377 331 c 2,82,-1
 337 330 l 1,83,-1
 336 328 l 2,84,85
 335 327 335 327 334 327 c 2,86,-1
 333 328 l 2,87,88
 333 329 333 329 331 329 c 1,89,-1
 331 327 l 1,90,-1
 297 327 l 1,91,-1
 198 326 l 1,92,-1
 198 324 l 1,93,-1
 146 322 l 2,94,95
 132 322 132 322 131 323 c 1,96,97
 123 321 123 321 96.5 321 c 128,-1,98
 70 321 70 321 62 323 c 1,99,-1
 50 323 l 1,100,-1
 50 326 l 1,101,102
 42 328 42 328 42 329 c 0,103,104
 42 334 42 334 41 335 c 1,105,-1
 42 350 l 1,106,-1
 41 350 l 1,107,108
 42 353 42 353 42 369 c 128,-1,109
 42 385 42 385 43 404 c 1,110,-1
 42 407 l 1,111,112
 42 420 42 420 43 441 c 1,113,-1
 42 441 l 1,114,115
 42 447 42 447 46 450 c 1,116,-1
 44 451 l 2,117,118
 43 451 43 451 43 453 c 1,119,120
 46 456 46 456 51 456 c 2,121,-1
 193 457 l 1,122,123
 202 460 202 460 215 460 c 2,124,-1
 297 460 l 2,125,126
 298 460 298 460 347 462 c 1,127,-1
 347 460 l 1,128,-1
 349 460 l 1,129,-1
 349 462 l 1,130,131
 350 462 350 462 351 461 c 2,132,-1
 361 460 l 1,133,-1
 361 462 l 1,134,-1
 367 460 l 1,135,136
 377 462 377 462 380 462 c 2,137,-1
 407 463 l 2,138,139
 408 464 408 464 414 464 c 1,140,-1
 415 465 l 1,141,142
 421 451 421 451 421 415 c 128,-1,143
 421 379 421 379 420 359 c 1,68,69
392 159 m 2,144,-1
 391 169 l 1,145,-1
 392 191 l 1,146,-1
 393 191 l 1,147,-1
 393 192 l 1,148,-1
 392 198 l 1,149,-1
 393 198 l 1,150,-1
 394 213 l 1,151,-1
 392 243 l 1,152,153
 387 243 387 243 381 241 c 1,154,-1
 362 242 l 1,155,-1
 308 242 l 1,156,-1
 293 243 l 1,157,-1
 254 242 l 1,158,-1
 241 240 l 1,159,160
 240 241 240 241 232 241 c 2,161,-1
 202 240 l 2,162,163
 201 240 201 240 200 241 c 1,164,-1
 193 240 l 1,165,-1
 193 238 l 1,166,-1
 171 240 l 1,167,-1
 135 240 l 1,168,-1
 135 237 l 1,169,170
 125 236 125 236 113.5 235.5 c 128,-1,171
 102 235 102 235 95.5 234.5 c 128,-1,172
 89 234 89 234 82.5 233.5 c 128,-1,173
 76 233 76 233 72.5 231.5 c 128,-1,174
 69 230 69 230 66 228 c 0,175,176
 61 225 61 225 61 211 c 128,-1,177
 61 197 61 197 62 183.5 c 128,-1,178
 63 170 63 170 62 170 c 2,179,-1
 63 165 l 1,180,-1
 62 165 l 1,181,-1
 62 156 l 2,182,183
 62 142 62 142 69 142 c 2,184,-1
 125 142 l 1,185,-1
 125 139 l 1,186,187
 162 139 162 139 209 144 c 1,188,-1
 211 145 l 1,189,-1
 220 144 l 1,190,-1
 223 145 l 1,191,-1
 224 143 l 1,192,-1
 225 145 l 1,193,-1
 298 145 l 1,194,195
 298 147 298 147 304 147 c 1,196,-1
 304 144 l 1,197,-1
 359 146 l 2,198,199
 361 146 361 146 361 145 c 2,200,-1
 380 146 l 1,201,-1
 381 147 l 1,202,-1
 381 146 l 1,203,204
 382 147 382 147 386 147 c 1,205,206
 384 147 384 147 381 149 c 128,-1,207
 378 151 378 151 377 151 c 1,208,209
 392 151 392 151 392 159 c 2,144,-1
251 349 m 2,210,-1
 262 348 l 1,211,-1
 298 348 l 1,212,213
 298 350 298 350 304 350 c 1,214,-1
 304 347 l 1,215,-1
 381 347 l 1,216,-1
 381 349 l 1,217,218
 382 350 382 350 386 350 c 1,219,220
 384 350 384 350 381 352 c 128,-1,221
 378 354 378 354 377 354 c 1,222,223
 392 354 392 354 392 362 c 2,224,-1
 392 394 l 1,225,-1
 393 394 l 1,226,-1
 392 395 l 1,227,-1
 392 401 l 1,228,-1
 393 401 l 1,229,230
 394 402 394 402 394 409 c 2,231,-1
 392 430 l 1,232,-1
 392 446 l 1,233,234
 387 446 387 446 381 444 c 1,235,236
 372 445 372 445 362 445 c 2,237,-1
 308 445 l 1,238,-1
 293 446 l 1,239,-1
 254 443 l 1,240,-1
 241 443 l 1,241,242
 240 444 240 444 232 444 c 2,243,-1
 172 441 l 1,244,-1
 171 443 l 1,245,-1
 171 441 l 1,246,-1
 169 442 l 1,247,-1
 167 443 l 1,248,-1
 167 441 l 1,249,-1
 106 441 l 1,250,-1
 106 438 l 1,251,-1
 90 437 l 2,252,253
 87 436 87 436 79 436 c 0,254,255
 64 435 64 435 61 425 c 1,256,-1
 63 376 l 1,257,-1
 63 366 l 2,258,259
 63 345 63 345 69 345 c 2,260,-1
 125 345 l 1,261,-1
 125 342 l 1,262,263
 134 344 134 344 163 344.5 c 128,-1,264
 192 345 192 345 225 347 c 2,265,-1
 247 348 l 2,266,267
 248 349 248 349 251 349 c 2,210,-1
373 354 m 1,268,-1
 373 352 l 1,269,-1
 370 351 l 1,270,271
 366 351 366 351 365 354 c 1,272,-1
 373 354 l 1,268,-1
373 151 m 1,273,-1
 373 148 l 1,274,275
 366 148 366 148 365 151 c 1,276,-1
 373 151 l 1,273,-1
374 352 m 1,277,-1
 373 353 l 1,278,-1
 376 354 l 1,279,-1
 374 352 l 1,277,-1
376 150 m 2,280,281
 376 149 376 149 374 149 c 1,282,-1
 376 151 l 1,283,-1
 376 150 l 2,280,281
EndSplineSet
EndChar

StartChar: greater
Encoding: 62 62 33
Width: 363
GlyphClass: 2
Flags: W
LayerCount: 2
Fore
SplineSet
12 77 m 1,0,-1
 12 107 l 1,1,2
 27 112 27 112 29 114 c 2,3,-1
 41 126 l 1,4,-1
 47 131 l 1,5,-1
 53 135 l 1,6,7
 53 138 53 138 61 144 c 1,8,-1
 61 148 l 1,9,-1
 73 156 l 1,10,-1
 80 164 l 1,11,-1
 89 172 l 1,12,13
 106 195 106 195 139 223 c 128,-1,14
 172 251 172 251 173 251 c 2,15,-1
 182 260 l 1,16,-1
 182 277 l 1,17,-1
 184 276 l 1,18,-1
 177 284 l 1,19,-1
 178 282 l 1,20,21
 172 288 172 288 166 294 c 2,22,-1
 134 328 l 1,23,-1
 135 328 l 1,24,-1
 101 361 l 1,25,-1
 79 385 l 1,26,-1
 80 385 l 1,27,28
 35 430 35 430 29 440 c 1,29,-1
 28 440 l 2,30,31
 24 440 24 440 12 452 c 1,32,-1
 21 467 l 1,33,-1
 22 477 l 1,34,35
 31 478 31 478 34 478 c 1,36,-1
 37 483 l 1,37,38
 50 487 50 487 50 493 c 1,39,-1
 92 535 l 2,40,41
 91 534 91 534 89 534 c 128,-1,42
 87 534 87 534 86.5 533.5 c 128,-1,43
 86 533 86 533 83 541 c 1,44,-1
 111 540 l 1,45,-1
 135 516 l 1,46,47
 143 505 143 505 158 490 c 2,48,-1
 175 473 l 1,49,50
 180 465 180 465 191 457 c 1,51,-1
 234 413 l 1,52,-1
 233 413 l 1,53,-1
 236 410 l 1,54,-1
 236 411 l 1,55,56
 263 382 263 382 265 379 c 2,57,-1
 309 337 l 2,58,59
 325 321 325 321 340 301 c 1,60,-1
 356 287 l 1,61,-1
 368 273 l 1,62,-1
 363 262 l 2,63,64
 361 258 361 258 361 257 c 2,65,-1
 340 232 l 2,66,67
 334 225 334 225 320.5 212.5 c 128,-1,68
 307 200 307 200 304 197 c 2,69,-1
 288 179 l 1,70,-1
 285 179 l 1,71,-1
 135 36 l 2,72,73
 124 25 124 25 117 17 c 128,-1,74
 110 9 110 9 101 0 c 1,75,-1
 87 8 l 1,76,-1
 76 22 l 1,77,-1
 76 20 l 1,78,79
 71 34 71 34 59 39 c 1,80,-1
 33 66 l 2,81,82
 27 72 27 72 26 72 c 2,83,-1
 16 81 l 1,84,-1
 16 80 l 2,85,86
 16 77 16 77 12 77 c 1,0,-1
114 521 m 1,87,-1
 108 529 l 1,88,-1
 99 529 l 1,89,-1
 99 527 l 2,90,91
 99 525 99 525 95 522 c 2,92,-1
 79 506 l 2,93,94
 74 501 74 501 64 490 c 0,95,96
 42 466 42 466 38 466 c 1,97,-1
 31 462 l 1,98,-1
 32 461 l 1,99,100
 30 458 30 458 24 456 c 1,101,-1
 26 454 l 1,102,-1
 25 454 l 1,103,-1
 26 453 l 1,104,-1
 26 454 l 1,105,-1
 27 453 l 2,106,107
 27 454 27 454 29 454 c 128,-1,108
 31 454 31 454 32 455 c 1,109,-1
 58 426 l 1,110,-1
 57 425 l 1,111,-1
 111 370 l 1,112,-1
 110 369 l 1,113,-1
 176 303 l 1,114,-1
 175 302 l 1,115,116
 183 292 183 292 202 273 c 1,117,-1
 202 271 l 1,118,-1
 206 268 l 1,119,120
 153 220 153 220 107 175 c 1,121,122
 91 157 91 157 83 151 c 1,123,-1
 68 134 l 1,124,-1
 64 132 l 1,125,126
 51 121 51 121 44 112 c 2,127,-1
 33 100 l 1,128,-1
 32 101 l 1,129,130
 30 99 30 99 26 97 c 1,131,-1
 24 97 l 1,132,-1
 24 89 l 1,133,-1
 48 67 l 2,134,135
 82 36 82 36 92 19 c 1,136,137
 96 18 96 18 98 12 c 1,138,-1
 100 13 l 1,139,-1
 99 14 l 2,140,141
 100 14 100 14 100 15.5 c 128,-1,142
 100 17 100 17 98 19 c 1,143,-1
 127 46 l 1,144,-1
 128 45 l 1,145,-1
 134 51 l 2,146,147
 134 52 134 52 135 53 c 1,148,-1
 136 52 l 1,149,-1
 184 98 l 2,150,151
 202 115 202 115 222 134.5 c 128,-1,152
 242 154 242 154 252 163 c 2,153,-1
 269 180 l 1,154,-1
 269 179 l 1,155,-1
 297 207 l 2,156,157
 300 210 300 210 311 220 c 2,158,-1
 351 261 l 1,159,160
 351 263 351 263 350 264 c 1,161,162
 352 266 352 266 354 271 c 1,163,-1
 351 276 l 1,164,-1
 351 275 l 1,165,-1
 302 328 l 1,166,-1
 302 327 l 1,167,-1
 254 374 l 1,168,169
 244 389 244 389 225 405 c 1,170,-1
 190 441 l 1,171,-1
 187 446 l 1,172,-1
 159 474 l 1,173,-1
 150 482 l 1,174,175
 142 491 142 491 133.5 498.5 c 128,-1,176
 125 506 125 506 112 520 c 1,177,-1
 114 521 l 1,87,-1
EndSplineSet
EndChar

